<svg xmlns="http://www.w3.org/2000/svg" viewBox="0 0 171.533 252.809"><g id="Ebene_2" data-name="Ebene 2"><g id="_3D_Typo_Kopie" data-name="3D&amp;Typo Kopie"><path d="M37.952,1.367H1.99v131.37h2.2S5.66,108.518,14.467,90.17A62.967,62.967,0,0,1,37.952,63.749V1.367" style="fill:#151515"/><path d="M37.329,97.189A85.651,85.651,0,0,0,1.367,167.042,84.4,84.4,0,1,0,134.205,97.923v40a56.511,56.511,0,1,1-96.876,0V97.189" style="fill:#151515"/><path d="M1.623,133.6a.5.5,0,0,1-.5-.5V1a.5.5,0,0,1,.5-.5h36.7a.5.5,0,0,1,.5.5V63.966a.5.5,0,0,1-.258.438l-.19.1A62.715,62.715,0,0,0,15.248,90.545c-8.629,17.978-10.176,42-10.191,42.244l-.021.345a.5.5,0,0,1-.5.47Zm1.764-1.734c.334-4.115,2.409-25.64,10.3-42.075a65.39,65.39,0,0,1,23.4-26.541V2.234H2.857V131.87Z" style="fill:#f5f5f5"/><path d="M38.319,1V63.966l-.19.1A63.178,63.178,0,0,0,14.8,90.329C6.124,108.4,4.573,132.518,4.558,132.759l-.021.345H1.623V1h36.7M2.357,132.37H3.85c.224-3.032,2.118-25.342,10.286-42.359A64.329,64.329,0,0,1,37.585,63.537V1.734H2.357V132.37M38.319,0H1.623a1,1,0,0,0-1,1V133.1a1,1,0,0,0,1,1H4.537a1,1,0,0,0,1-.94l.02-.345c.015-.239,1.558-24.172,10.143-42.057A62.493,62.493,0,0,1,38.612,64.946l.189-.1a1,1,0,0,0,.518-.876V1a1,1,0,0,0-1-1ZM3.357,2.734H36.585v60.24a66.161,66.161,0,0,0-23.351,26.6c-6.288,13.1-8.9,29.4-9.877,37.646V2.734Z" style="fill:#151515"/><path d="M85.767,252.309A85.752,85.752,0,0,1,36.831,96.479l.577-.405a.5.5,0,0,1,.787.409v41.546a.5.5,0,0,1-.072.26l-.053.087a55.644,55.644,0,1,0,95.392,0l-.051-.085a.5.5,0,0,1-.073-.26V97.217a.5.5,0,0,1,.787-.409l.578.4a85.269,85.269,0,0,1-48.936,155.1ZM36.462,98.878A84.533,84.533,0,0,0,2.234,167.042a83.533,83.533,0,1,0,132.838-67.43v38.075a57.378,57.378,0,1,1-98.61,0Z" style="fill:#f5f5f5"/><path d="M37.7,96.483V138.03l-.053.087a56.144,56.144,0,1,0,96.248,0l-.053-.087V97.217l.578.405A84.768,84.768,0,1,1,1,167.042,85.632,85.632,0,0,1,37.118,96.889l.578-.406M85.767,251.075A84.035,84.035,0,0,0,134.572,98.632v39.194a56.878,56.878,0,1,1-97.61,0V97.9a84.52,84.52,0,0,0,48.8,153.177M37.7,95.483a1,1,0,0,0-.575.182l-.578.4A86.252,86.252,0,0,0,85.767,252.809a85.769,85.769,0,0,0,49.223-156l-.577-.406a1,1,0,0,0-1.575.819V138.03a1,1,0,0,0,.144.517l.053.087a55.144,55.144,0,1,1-94.536,0l.052-.086a.994.994,0,0,0,.145-.517V96.483a1,1,0,0,0-1-1ZM85.767,250.075A83.126,83.126,0,0,1,2.734,167.042a84.058,84.058,0,0,1,33.228-67.17V137.55a57.878,57.878,0,1,0,99.61,0V100.605a83.033,83.033,0,0,1-49.805,149.47Z" style="fill:#151515"/></g></g></svg>