<svg xmlns="http://www.w3.org/2000/svg" viewBox="0 0 171.53 252.81"><g id="Ebene_2" data-name="Ebene 2"><g id="_3D_Typo_Kopie" data-name="3D&amp;Typo Kopie"><path d="M38,1.37H2V132.74h2.2s1.47-24.22,10.28-42.57A62.9,62.9,0,0,1,38,63.75V1.37" style="fill:#1b1b1b"/><path d="M37.33,97.19A85.63,85.63,0,0,0,1.37,167,84.4,84.4,0,1,0,134.2,97.92v40a56.51,56.51,0,1,1-96.87,0V97.19" style="fill:#1b1b1b"/><path d="M1.62,133.6a.5.5,0,0,1-.5-.5V1a.5.5,0,0,1,.5-.5h36.7a.5.5,0,0,1,.5.5V64a.48.48,0,0,1-.26.43l-.19.11a62.75,62.75,0,0,0-23.12,26c-8.63,18-10.18,42-10.19,42.24l0,.34a.5.5,0,0,1-.5.47Zm1.77-1.73c.33-4.12,2.41-25.64,10.3-42.07a65.34,65.34,0,0,1,23.4-26.55v-61H2.86V131.87Z" style="fill:#f5f5f5"/><path d="M38.32,1V64l-.19.1A63.17,63.17,0,0,0,14.8,90.33C6.12,108.4,4.57,132.52,4.56,132.76l0,.34H1.62V1h36.7m-36,131.37H3.85C4.07,129.34,6,107,14.14,90A64.36,64.36,0,0,1,37.58,63.54V1.73H2.36V132.37M38.32,0H1.62a1,1,0,0,0-1,1V133.1a1,1,0,0,0,1,1H4.54a1,1,0,0,0,1-.94l0-.34c0-.24,1.55-24.17,10.14-42.06A62.53,62.53,0,0,1,38.61,65l.19-.11a1,1,0,0,0,.52-.87V1a1,1,0,0,0-1-1Zm-35,2.73H36.58V63A66.31,66.31,0,0,0,13.23,89.58C7,102.68,4.34,119,3.36,127.23V2.73Z" style="fill:#151515"/><path d="M85.77,252.31A85.75,85.75,0,0,1,36.83,96.48l.58-.41A.48.48,0,0,1,37.7,96a.53.53,0,0,1,.23.06.52.52,0,0,1,.27.44V138a.5.5,0,0,1-.08.26l0,.09a55.64,55.64,0,1,0,95.39,0l-.05-.08a.48.48,0,0,1-.07-.26V97.22a.5.5,0,0,1,.27-.45.59.59,0,0,1,.23,0,.52.52,0,0,1,.29.09l.57.4a85.27,85.27,0,0,1-48.93,155.1ZM36.46,98.88A84.53,84.53,0,0,0,2.23,167,83.54,83.54,0,1,0,135.07,99.61v38.08a57.38,57.38,0,1,1-98.61,0Z" style="fill:#f5f5f5"/><path d="M37.7,96.48V138l-.06.09a56.15,56.15,0,1,0,96.25,0l0-.09V97.22l.58.4A84.77,84.77,0,1,1,1,167,85.62,85.62,0,0,1,37.12,96.89l.58-.41m48.07,154.6a84,84,0,0,0,48.8-152.45v39.2a56.88,56.88,0,1,1-97.61,0V97.9A84.52,84.52,0,0,0,85.77,251.08M37.7,95.48a1,1,0,0,0-.58.18l-.58.41A86.25,86.25,0,0,0,85.77,252.81,85.77,85.77,0,0,0,135,96.8l-.58-.4a1,1,0,0,0-.57-.18.92.92,0,0,0-.46.11,1,1,0,0,0-.54.89V138a1.07,1.07,0,0,0,.14.52l.05.08a55.15,55.15,0,1,1-94.53,0l0-.08a1,1,0,0,0,.15-.52V96.48a1,1,0,0,0-1-1Zm48.07,154.6a83.13,83.13,0,0,1-83-83A84.07,84.07,0,0,1,36,99.87v37.68a57.88,57.88,0,1,0,99.61,0v-37a83,83,0,0,1-49.8,149.48Z" style="fill:#151515"/></g></g></svg>