<svg xmlns="http://www.w3.org/2000/svg" viewBox="0 0 220.78 228.74"><g id="Ebene_2" data-name="Ebene 2"><g id="Archive_Kopie_Kopie" data-name="Archive Kopie Kopie"><path d="M169.57,6.55h4.36l3.47-4h18l1.28-1h7l15.63,15.63L218,219.26c0,3.1-6.4,8.18-9.5,8.18l-198.43-.3c-3.09,0-8.4-4.62-8.4-7.71L1.5,10.65l8-9.1H26.1V3.86h9.42l1.72-1.31H57.87l1.19,70.8,109.58-.59Z" style="fill:#151515"/><path d="M169.63,1.5V70.58A3.37,3.37,0,0,1,166.26,74H61.7a3.36,3.36,0,0,1-3.36-3.37V1.5Z" style="fill:#f5f5f5"/><rect x="123.85" y="12.53" width="28.37" height="57.46" rx="1.87" style="fill:#151515"/><path d="M11.39,228.24A10.9,10.9,0,0,1,.5,217.35V12.1c0-4.33,3.67-7.47,7.26-10l.41-.28L9.32,3.48l-.41.28C4.66,6.73,2.5,9.53,2.5,12.1V217.35a8.9,8.9,0,0,0,8.89,8.89H208.73c2.69,0,5.22-2.91,7.07-5l.66-.75.33-.38,1.49,1.34-.33.37c-.29.32-.58.67-.89,1-2.08,2.42-4.66,5.43-8.33,5.43Z" style="fill:#151515"/><path d="M8.05,2.53l.57.82C6.31,5,2,8.3,2,12.1V217.35a9.38,9.38,0,0,0,9.39,9.39H208.73c3.28,0,6.23-3.85,8.1-6l.75.66c-2.25,2.51-4.9,6.29-8.85,6.29H11.39A10.39,10.39,0,0,1,1,217.35V12.1C1,7.68,5.29,4.46,8.05,2.53M8.3,1.14l-.82.57C5.24,3.27,0,6.92,0,12.1V217.35a11.4,11.4,0,0,0,11.39,11.39H208.73c3.9,0,6.57-3.11,8.71-5.6.3-.36.6-.7.88-1l.67-.74-.75-.67-.74-.67-.75-.66-.66.74-.67.76c-1.68,1.94-4.23,4.86-6.69,4.86H11.39A8.39,8.39,0,0,1,3,217.35V12.1c0-1.65,1.07-4.36,6.19-7.93L10,3.6l-.57-.82L8.87,2,8.3,1.14Z" style="fill:#f5f5f5"/><path d="M198.63,222.8V95.35a4.58,4.58,0,0,0-4.58-4.58H31.67a4.59,4.59,0,0,0-4.58,4.58V222.8h-2V95.35a6.59,6.59,0,0,1,6.58-6.58H194.05a6.59,6.59,0,0,1,6.58,6.58V222.8Z" style="fill:#151515"/><path d="M194.05,89.27a6.09,6.09,0,0,1,6.08,6.08v127h-1v-127a5.09,5.09,0,0,0-5.08-5.08H31.67a5.09,5.09,0,0,0-5.08,5.08v127h-1v-127a6.09,6.09,0,0,1,6.08-6.08H194.05m0-1H31.67a7.09,7.09,0,0,0-7.08,7.08v128h3v-128a4.08,4.08,0,0,1,4.08-4.08H194.05a4.08,4.08,0,0,1,4.08,4.08v128h3v-128a7.08,7.08,0,0,0-7.08-7.08Z" style="fill:#f5f5f5"/><path d="M12.05,223.3a6.62,6.62,0,0,1-6.6-6.61V7.15a6.61,6.61,0,0,1,6.6-6.6H26.1a1,1,0,0,1,.71.29,1,1,0,0,1,.29.71V2.86h8.08l1.45-1.1a1,1,0,0,1,.61-.21H58.77v2H37.57L36.13,4.66a1,1,0,0,1-.61.2H26.1a1,1,0,0,1-1-1V2.54h-13a4.6,4.6,0,0,0-4.6,4.6V216.69a4.61,4.61,0,0,0,4.6,4.61H213.68a4.62,4.62,0,0,0,4.6-4.61V17.59l-15-15H197l-1,.79a1,1,0,0,1-.61.21H177.85L174.69,7.2a1,1,0,0,1-.76.35h-4.86v-2h4.41l3.16-3.65a1,1,0,0,1,.76-.35h17.65l1-.79a1,1,0,0,1,.61-.21h7a1,1,0,0,1,.71.29L220,16.47a1,1,0,0,1,.29.71V216.69a6.62,6.62,0,0,1-6.6,6.61Z" style="fill:#151515"/><path d="M26.1,1a.54.54,0,0,1,.36.14.52.52,0,0,1,.14.36V3.36h8.75l1.58-1.21a.57.57,0,0,1,.31-.1h21v1H37.41L35.83,4.26a.5.5,0,0,1-.31.1H26.1a.51.51,0,0,1-.5-.5V2H12.05A5.11,5.11,0,0,0,7,7.15V216.69a5.11,5.11,0,0,0,5.1,5.11H213.68a5.11,5.11,0,0,0,5.1-5.11V17.38L203.45,2.05h-6.6l-1.15.89a.48.48,0,0,1-.3.11H177.62l-3.31,3.83a.49.49,0,0,1-.38.17h-4.36v-1h4.14L177,2.22a.49.49,0,0,1,.38-.17h17.82l1.15-.9a.57.57,0,0,1,.31-.1h7a.49.49,0,0,1,.36.15l15.62,15.62a.49.49,0,0,1,.15.36V216.69a6.11,6.11,0,0,1-6.1,6.11H12.05A6.11,6.11,0,0,1,6,216.69V7.15a6.11,6.11,0,0,1,6.1-6.1H26.1m0-1h-14A7.11,7.11,0,0,0,5,7.15V216.69a7.11,7.11,0,0,0,7.1,7.11H213.68a7.12,7.12,0,0,0,7.1-7.11V17.18a1.5,1.5,0,0,0-.44-1.06L204.71.49a1.5,1.5,0,0,0-1.06-.44h-7a1.47,1.47,0,0,0-.92.32l-.88.68H177.4a1.51,1.51,0,0,0-1.14.52l-3,3.48h-4.68v3h5.36a1.51,1.51,0,0,0,1.14-.52l3-3.48H195.4a1.49,1.49,0,0,0,.92-.32l.88-.68H203L217.78,17.8V216.69a4.11,4.11,0,0,1-4.1,4.11H12.05A4.11,4.11,0,0,1,8,216.69V7.15a4.11,4.11,0,0,1,4.1-4.1H24.6v.82a1.5,1.5,0,0,0,1.5,1.5h9.42a1.52,1.52,0,0,0,.92-.31l1.3-1H59.27v-3h-22a1.52,1.52,0,0,0-.92.31L35,2.36H27.6V1.54A1.46,1.46,0,0,0,27.16.48,1.5,1.5,0,0,0,26.1,0Z" style="fill:#f5f5f5"/><path d="M29.92,74.94a4.83,4.83,0,0,1-4.83-4.82V1.46h2V70.12a2.83,2.83,0,0,0,2.83,2.82H62.66v2Z" style="fill:#151515"/><path d="M26.59,2V70.12a3.33,3.33,0,0,0,3.33,3.32H62.16v1H29.92a4.33,4.33,0,0,1-4.33-4.32V2h1m1-1h-3V70.12a5.33,5.33,0,0,0,5.33,5.32H63.16v-3H29.92a2.33,2.33,0,0,1-2.33-2.32V1Z" style="fill:#f5f5f5"/><path d="M61.7,74.94a4.36,4.36,0,0,1-4.36-4.36V1.5a1,1,0,0,1,1-1H169.63a1,1,0,0,1,1,1V70.58a4.37,4.37,0,0,1-4.37,4.36Zm-2.36-4.36a2.36,2.36,0,0,0,2.36,2.36H166.26a2.37,2.37,0,0,0,2.37-2.36V2.5H59.34Z" style="fill:#151515"/><path d="M169.63,1a.5.5,0,0,1,.5.5V70.58a3.86,3.86,0,0,1-3.87,3.86H61.7a3.86,3.86,0,0,1-3.86-3.86V1.5a.5.5,0,0,1,.5-.5H169.63M61.7,73.44H166.26a2.86,2.86,0,0,0,2.87-2.86V2H58.84V70.58a2.86,2.86,0,0,0,2.86,2.86M169.63,0H58.34a1.5,1.5,0,0,0-1.5,1.5V70.58a4.87,4.87,0,0,0,4.86,4.86H166.26a4.87,4.87,0,0,0,4.87-4.86V1.5a1.5,1.5,0,0,0-1.5-1.5ZM59.84,3H168.13V70.58a1.87,1.87,0,0,1-1.87,1.86H61.7a1.86,1.86,0,0,1-1.86-1.86V3Z" style="fill:#f5f5f5"/><path d="M11.1,207.47a2.59,2.59,0,0,1-2.58-2.58v-6.43a2.59,2.59,0,0,1,2.58-2.58H21.49a2.59,2.59,0,0,1,2.58,2.58v6.43a2.59,2.59,0,0,1-2.58,2.58Zm0-9.59a.58.58,0,0,0-.58.58v6.43a.58.58,0,0,0,.58.58H21.49a.58.58,0,0,0,.58-.58v-6.43a.58.58,0,0,0-.58-.58Z" style="fill:#151515"/><path d="M21.49,196.38a2.08,2.08,0,0,1,2.08,2.08v6.43A2.08,2.08,0,0,1,21.49,207H11.1A2.08,2.08,0,0,1,9,204.89v-6.43a2.08,2.08,0,0,1,2.08-2.08H21.49M11.1,206H21.49a1.08,1.08,0,0,0,1.08-1.08v-6.43a1.08,1.08,0,0,0-1.08-1.08H11.1A1.08,1.08,0,0,0,10,198.46v6.43A1.08,1.08,0,0,0,11.1,206m10.39-10.59H11.1A3.08,3.08,0,0,0,8,198.46v6.43A3.08,3.08,0,0,0,11.1,208H21.49a3.08,3.08,0,0,0,3.08-3.08v-6.43a3.08,3.08,0,0,0-3.08-3.08ZM11.1,205a.09.09,0,0,1-.08-.08v-6.43a.09.09,0,0,1,.08-.08H21.49a.09.09,0,0,1,.08.08v6.43a.09.09,0,0,1-.08.08Z" style="fill:#f5f5f5"/><path d="M125.73,71a2.88,2.88,0,0,1-2.88-2.87V14.4a2.88,2.88,0,0,1,2.88-2.87h24.62a2.88,2.88,0,0,1,2.88,2.87V68.12A2.88,2.88,0,0,1,150.35,71Zm0-57.46a.87.87,0,0,0-.88.87V68.12a.87.87,0,0,0,.88.87h24.62a.88.88,0,0,0,.88-.87V14.4a.88.88,0,0,0-.88-.87Z" style="fill:#151515"/><path d="M150.35,12a2.38,2.38,0,0,1,2.38,2.37V68.12a2.38,2.38,0,0,1-2.38,2.37H125.73a2.38,2.38,0,0,1-2.38-2.37V14.4A2.38,2.38,0,0,1,125.73,12h24.62M125.73,69.49h24.62a1.38,1.38,0,0,0,1.38-1.37V14.4A1.37,1.37,0,0,0,150.35,13H125.73a1.37,1.37,0,0,0-1.38,1.37V68.12a1.38,1.38,0,0,0,1.38,1.37M150.35,11H125.73a3.38,3.38,0,0,0-3.38,3.37V68.12a3.38,3.38,0,0,0,3.38,3.37h24.62a3.38,3.38,0,0,0,3.38-3.37V14.4A3.38,3.38,0,0,0,150.35,11ZM125.73,68.49a.38.38,0,0,1-.38-.37V14.4a.37.37,0,0,1,.38-.37h24.62a.37.37,0,0,1,.38.37V68.12a.38.38,0,0,1-.38.37Z" style="fill:#f5f5f5"/><path d="M204.36,207.47a2.59,2.59,0,0,1-2.59-2.58v-6.43a2.59,2.59,0,0,1,2.59-2.58h10.38a2.58,2.58,0,0,1,2.58,2.58v6.43a2.58,2.58,0,0,1-2.58,2.58Zm0-9.59a.59.59,0,0,0-.59.58v6.43a.59.59,0,0,0,.59.58h10.38a.58.58,0,0,0,.58-.58v-6.43a.58.58,0,0,0-.58-.58Z" style="fill:#151515"/><path d="M214.74,196.38a2.08,2.08,0,0,1,2.08,2.08v6.43a2.08,2.08,0,0,1-2.08,2.08H204.36a2.09,2.09,0,0,1-2.09-2.08v-6.43a2.09,2.09,0,0,1,2.09-2.08h10.38M204.36,206h10.38a1.08,1.08,0,0,0,1.08-1.08v-6.43a1.08,1.08,0,0,0-1.08-1.08H204.36a1.08,1.08,0,0,0-1.09,1.08v6.43a1.08,1.08,0,0,0,1.09,1.08m10.38-10.59H204.36a3.09,3.09,0,0,0-3.09,3.08v6.43a3.09,3.09,0,0,0,3.09,3.08h10.38a3.08,3.08,0,0,0,3.08-3.08v-6.43a3.08,3.08,0,0,0-3.08-3.08ZM204.36,205a.09.09,0,0,1-.09-.08v-6.43a.09.09,0,0,1,.09-.08h10.38a.08.08,0,0,1,.08.08v6.43a.08.08,0,0,1-.08.08Z" style="fill:#f5f5f5"/><path d="M204.36,194.37a2.59,2.59,0,0,1-2.59-2.58v-6.43a2.59,2.59,0,0,1,2.59-2.59h10.38a2.58,2.58,0,0,1,2.58,2.59v6.43a2.58,2.58,0,0,1-2.58,2.58Zm0-9.6a.6.6,0,0,0-.59.59v6.43a.59.59,0,0,0,.59.58h10.38a.58.58,0,0,0,.58-.58v-6.43a.59.59,0,0,0-.58-.59Z" style="fill:#151515"/><path d="M214.74,183.27a2.09,2.09,0,0,1,2.08,2.09v6.43a2.08,2.08,0,0,1-2.08,2.08H204.36a2.09,2.09,0,0,1-2.09-2.08v-6.43a2.1,2.1,0,0,1,2.09-2.09h10.38m-10.38,9.6h10.38a1.08,1.08,0,0,0,1.08-1.08v-6.43a1.08,1.08,0,0,0-1.08-1.09H204.36a1.09,1.09,0,0,0-1.09,1.09v6.43a1.09,1.09,0,0,0,1.09,1.08m10.38-10.6H204.36a3.1,3.1,0,0,0-3.09,3.09v6.43a3.09,3.09,0,0,0,3.09,3.08h10.38a3.08,3.08,0,0,0,3.08-3.08v-6.43a3.09,3.09,0,0,0-3.08-3.09Zm-10.38,9.6a.09.09,0,0,1-.09-.08v-6.43a.09.09,0,0,1,.09-.09h10.38a.08.08,0,0,1,.08.09v6.43a.08.08,0,0,1-.08.08Z" style="fill:#f5f5f5"/><path d="M13.48,32.94a1,1,0,0,1-1-1V27.41h-.56A1,1,0,0,1,11,26.06L15,15A1,1,0,0,1,16,14.3h.1a1.05,1.05,0,0,1,.84.63l4.26,11.11a1,1,0,0,1-.11.92,1,1,0,0,1-.82.44h-.56v4.53a1,1,0,0,1-1,1Zm4.21-2V26.41a1,1,0,0,1,1-1h.11L16,18.14l-2.66,7.27h.13a1,1,0,0,1,1,1v4.53Z" style="fill:#151515"/><path d="M16,14.8a.54.54,0,0,1,.47.32l4.27,11.11a.48.48,0,0,1-.06.46.49.49,0,0,1-.41.22H19.19v5a.5.5,0,0,1-.5.5H13.48a.5.5,0,0,1-.5-.5v-5H11.92a.48.48,0,0,1-.41-.22.47.47,0,0,1-.06-.46l4.06-11.1A.51.51,0,0,1,16,14.8M12.63,25.91h.85a.5.5,0,0,1,.5.5v5h4.21v-5a.5.5,0,0,1,.5-.5h.83L16,16.72l-3.37,9.19M16.08,13.8H16a1.49,1.49,0,0,0-1.39,1L10.51,25.89a1.5,1.5,0,0,0,1.41,2H12v4a1.5,1.5,0,0,0,1.5,1.5h5.21a1.5,1.5,0,0,0,1.5-1.5v-4h.06a1.53,1.53,0,0,0,1.24-.65,1.5,1.5,0,0,0,.16-1.39L17.38,14.76a1.5,1.5,0,0,0-1.2-.94l-.1,0ZM14,25l2-5.44L18.11,25a1.51,1.51,0,0,0-.92,1.39v4H15v-4A1.5,1.5,0,0,0,14,25Z" style="fill:#f5f5f5"/><path d="M70.94,21.72h-4l-.88,3.17H63.78L66.62,15h4.63l2.85,9.88H71.83Zm-.55-2-1.17-4.18h-.56l-1.18,4.18Z" style="fill:#151515"/><path d="M75.08,15H78.9c2.36,0,4.4.55,4.4,2.76,0,1.63-1.32,2.08-2.51,2.22v.56h1.45a1.07,1.07,0,0,1,1.19,1.19v3.15H81.19V21.42H77.32v3.47H75.08Zm3.82,4.45c1.33,0,2.16,0,2.16-1.24S80.23,17,78.9,17H77.32v2.48Z" style="fill:#151515"/><path d="M89.47,14.87c2.76,0,4.58,1.52,4.88,4H92.11a2.41,2.41,0,0,0-2.61-2c-1.72,0-2.86,1.07-2.86,3.11s1.14,3.12,2.86,3.12a2.42,2.42,0,0,0,2.61-2h2.24c-.3,2.45-2.12,4-4.88,4A4.84,4.84,0,0,1,84.4,20,4.84,4.84,0,0,1,89.47,14.87Z" style="fill:#151515"/><path d="M105,15v9.88H102.8V21.07h-5v3.82H95.6V15h2.24V19.1h5V15Z" style="fill:#151515"/><path d="M107,17.7a3.41,3.41,0,0,1,6.81,0,3.41,3.41,0,1,1-6.81,0Zm6.08,0a2.68,2.68,0,1,0-2.68,2.68A2.61,2.61,0,0,0,113.12,17.7ZM109,16h1.38c.8,0,1.67.18,1.67,1,0,.56-.36.7-1,.75V18h.6a.32.32,0,0,1,.35.35v1h-.71v-1.1H109.7v1.1H109Zm1.38,1.54c.59,0,1,0,1-.42s-.37-.41-1-.41h-.67v.83Z" style="fill:#151515"/><path d="M63.1,32.11a2.23,2.23,0,1,1,2.23,2.23A2.16,2.16,0,0,1,63.1,32.11Zm4.14,0A1.91,1.91,0,1,0,65.33,34,1.87,1.87,0,0,0,67.24,32.11ZM65,32V32a.45.45,0,0,1-.44-.46c0-.32.3-.51.79-.51s.79.19.79.51a.46.46,0,0,1-.45.46V32c.32,0,.57.2.57.56s-.32.63-.91.63-.91-.26-.91-.63S64.67,32.08,65,32Zm.35.87c.4,0,.53-.19.53-.37s-.13-.38-.53-.38-.53.19-.53.38S64.92,32.91,65.33,32.91Zm0-1.06c.3,0,.41-.13.41-.28s-.11-.26-.41-.26-.42.11-.42.26S65,31.85,65.33,31.85Z" style="fill:#151515"/><path d="M69.89,30.11h.83l1,3.41h.11l1-3.41h.82v3.53h-.41V30.52l.07-.3H73.2l-1,3.42h-.83l-1-3.42h-.11l.06.3v3.12h-.41Z" style="fill:#151515"/><path d="M74.33,30.11h.93c.86,0,1.36.17,1.36.86a.7.7,0,0,1-.71.75v.12c.54,0,1,.23,1,.86s-.54.94-1.39.94H74.33Zm1,1.51c.57,0,.93-.08.93-.58s-.36-.58-.93-.58h-.54v1.16Zm.22,1.67c.6,0,1-.1,1-.66s-.37-.66-1-.66h-.76v1.32Z" style="fill:#151515"/><path d="M80.82,30.06a1.5,1.5,0,0,1,1.59,1.41H82a1.09,1.09,0,0,0-1.18-1.06c-.82,0-1.24.61-1.24,1.46s.42,1.47,1.24,1.47A1.1,1.1,0,0,0,82,32.27h.41a1.5,1.5,0,0,1-1.59,1.42,1.65,1.65,0,0,1-1.65-1.82A1.64,1.64,0,0,1,80.82,30.06Z" style="fill:#151515"/><path d="M83.69,32.22l1-.1a.64.64,0,0,0-.7-.68c-.36,0-.69.16-.69.63h-.4a1,1,0,0,1,1.09-1,1,1,0,0,1,1.11,1.13v1.06h.37v.35H85a.27.27,0,0,1-.3-.29v-.14l.07-.26h-.12a.92.92,0,0,1-1,.74c-.72,0-.83-.48-.83-.74S83.11,32.28,83.69,32.22Zm.07,1.12a.87.87,0,0,0,.92-.91l-.92.09c-.31,0-.47.13-.47.38A.42.42,0,0,0,83.76,33.34Z" style="fill:#151515"/><path d="M86.34,31.15v.36l-.07.29h.12a1,1,0,0,1,1-.7,1.3,1.3,0,0,1,0,2.59,1,1,0,0,1-1-.7h-.12l.07.28v1.28h-.41v-3.4Zm.93,2.19a.95.95,0,0,0,0-1.89.95.95,0,0,0,0,1.89Z" style="fill:#151515"/><path d="M89.9,32.22l1-.1a.64.64,0,0,0-.7-.68c-.36,0-.7.16-.7.63h-.4a1,1,0,0,1,1.1-1,1,1,0,0,1,1.11,1.13v1.06h.36v.35h-.44a.26.26,0,0,1-.29-.29v-.14L91,33h-.12a.91.91,0,0,1-1,.74c-.72,0-.83-.48-.83-.74S89.32,32.28,89.9,32.22ZM90,33.34a.88.88,0,0,0,.93-.91l-.92.09c-.32,0-.48.13-.48.38A.42.42,0,0,0,90,33.34Z" style="fill:#151515"/><path d="M93.21,31.1a1.1,1.1,0,0,1,1.16,1H94a.69.69,0,0,0-.75-.64.95.95,0,0,0,0,1.89A.69.69,0,0,0,94,32.7h.41a1.1,1.1,0,0,1-1.16,1,1.3,1.3,0,0,1,0-2.59Z" style="fill:#151515"/><path d="M94.7,33.29h.7V31.45l-.51.05v-.35l.57,0a.27.27,0,0,1,.33.3v1.89h.7v.35H94.7Zm.47-2.89a.36.36,0,1,1,.36.35A.35.35,0,0,1,95.17,30.4Z" style="fill:#151515"/><path d="M98.33,33.29v.35l-.94,0c-.23,0-.34-.11-.34-.34V31.5H96.5v-.35h.55v-.64l.41-.13v.77h.77v.35h-.77v1.84Z" style="fill:#151515"/><path d="M101.19,31.15l-1.08,2.46v.7c0,.19-.11.3-.34.29l-1,0v-.35l.89,0v-.64l-1.08-2.46h.45l.78,1.94v.19H100v-.19l.78-1.94Z" style="fill:#151515"/><path d="M63.09,36.11h1.57l.52,3.33h.2l.51-3.33h1.58v3.53h-.8V36.81l.15-.5h-.2l-.57,3.33H64.5l-.56-3.33h-.2l.15.5v2.83h-.8Z" style="fill:#151515"/><path d="M68,36.11h2.51v.7H68.77v1l1.6-.1v.72l-1.6.1v1.1H68Z" style="fill:#151515"/><path d="M72.55,36.06c.83,0,1.41.41,1.41,1.18,0,1.19-1.18,1.34-2.83,1.65v.2l.5-.15H74v.7h-3V38.23c.36,0,2.23-.24,2.23-1,0-.23-.15-.45-.6-.45-.61,0-.88.29-.88,1h-.8A1.52,1.52,0,0,1,72.55,36.06Z" style="fill:#151515"/><path d="M74.46,36.11H77v.7H75.26v.71h1.47v.7H75.26v.72H77v.7H74.46Z" style="fill:#151515"/><path d="M80.65,37.87c0,1.52-1,1.77-1.92,1.77h-1.3V36.11h1.3C79.67,36.11,80.65,36.35,80.65,37.87Zm-.8,0c0-1-.5-1.06-1.12-1.06h-.5v2.13h.5C79.35,38.94,79.85,38.89,79.85,37.87Z" style="fill:#151515"/><path d="M85.55,37.87c0,1.52-.91,1.77-1.77,1.77H82.66V36.11h1.12C84.64,36.11,85.55,36.35,85.55,37.87Zm-.41,0c0-1.3-.73-1.41-1.36-1.41h-.71v2.83h.71C84.41,39.29,85.14,39.18,85.14,37.87Z" style="fill:#151515"/><path d="M87.33,37.1a1.3,1.3,0,1,1,0,2.59,1.3,1.3,0,1,1,0-2.59Zm0,2.24a.95.95,0,1,0-.91-1A.88.88,0,0,0,87.33,39.34Z" style="fill:#151515"/><path d="M91.09,38.25v-1.1h.4v2.49h-.4v-.43l.06-.29H91a.92.92,0,0,1-1,.77c-.56,0-.93-.33-.93-1V37.15h.41v1.47c0,.52.2.72.63.72S91.09,38.92,91.09,38.25Z" style="fill:#151515"/><path d="M92.16,36h.41v1.55l-.06.29h.11a1,1,0,0,1,1-.7,1.3,1.3,0,0,1,0,2.59,1,1,0,0,1-1-.7h-.11l.06.28v.37h-.41Zm1.35,3.38a.95.95,0,0,0,0-1.89.95.95,0,0,0,0,1.89Z" style="fill:#151515"/><path d="M95.06,39.29h.7v-3l-.52.05V36l.58-.05c.23,0,.34.11.34.34v3h.7v.35h-1.8Z" style="fill:#151515"/><path d="M98.35,37.1a1.1,1.1,0,0,1,1.16,1.21v.16h-2a.82.82,0,0,0,.87.88.72.72,0,0,0,.77-.58h.41a1.14,1.14,0,0,1-1.18.92,1.2,1.2,0,0,1-1.27-1.33A1.15,1.15,0,0,1,98.35,37.1Zm.76,1.06a.7.7,0,0,0-.76-.72.74.74,0,0,0-.81.72Z" style="fill:#151515"/><path d="M103.33,39.69c-1.23,0-1.6-.55-1.6-1.38h.41c0,.84.45,1,1.19,1s.94-.15.94-.57-.62-.65-1.18-.82-1.2-.4-1.2-1,.38-.87,1.25-.87c1,0,1.4.63,1.4,1.21h-.41c0-.6-.45-.86-1-.86s-.84.12-.84.51.31.5.89.68,1.49.41,1.49,1.15C104.68,39.27,104.37,39.69,103.33,39.69Z" style="fill:#151515"/><path d="M105.11,39.29h.7V37.45l-.51,0v-.35l.57,0a.27.27,0,0,1,.33.3v1.89h.7v.35h-1.79Zm.47-2.89a.36.36,0,1,1,.36.35A.35.35,0,0,1,105.58,36.4Z" style="fill:#151515"/><path d="M109.42,39.64v-.37l.07-.28h-.12a1,1,0,0,1-1,.7,1.3,1.3,0,0,1,0-2.59,1,1,0,0,1,1,.7h.12l-.07-.29V36h.41v3.68Zm-.94-2.19a.95.95,0,0,0,0,1.89.95.95,0,0,0,0-1.89Z" style="fill:#151515"/><path d="M111.63,37.1a1.1,1.1,0,0,1,1.16,1.21v.16h-2a.81.81,0,0,0,.86.88.73.73,0,0,0,.78-.58h.41a1.16,1.16,0,0,1-1.19.92,1.19,1.19,0,0,1-1.26-1.33A1.15,1.15,0,0,1,111.63,37.1Zm.76,1.06a.69.69,0,0,0-.76-.72.73.73,0,0,0-.8.72Z" style="fill:#151515"/><path d="M115.58,39.64v-.37l.07-.28h-.12a1,1,0,0,1-1,.7,1.3,1.3,0,0,1,0-2.59,1,1,0,0,1,1,.7h.12l-.07-.29V36H116v3.68Zm-.93-2.19a.95.95,0,0,0,0,1.89.95.95,0,0,0,0-1.89Z" style="fill:#151515"/></g></g></svg>