<svg xmlns="http://www.w3.org/2000/svg" viewBox="0 0 283.82 211.37"><g id="Ebene_2" data-name="Ebene 2"><g id="Bildsprache_Kopie" data-name="Bildsprache Kopie"><polygon points="144.17 174.49 219.4 160.62 218.55 152.15 208.04 151.27 208.04 142.8 198.59 142.79 199.45 138.85 197.83 135.01 196.98 132.94 212.19 130.87 212.54 126.02 234.5 124.76 242.22 111.18 267.42 108.24 273.75 104.83 277.64 99.72 278.62 94.37 277.09 71.76 282.4 71.73 279.04 20.03 277.52 8.35 272.78 3.85 264.75 1.42 138.45 4.21 12.59 11.09 5.04 17.05 1.27 27.39 21.47 87.38 31.87 88.24 32.54 95.65 34.85 116.7 40.33 125.34 61.5 128.01 120.14 124.06 150.71 121.18 159.13 131.01 171.9 129.1 172.14 135.34 181.65 134.64 182.11 144.15 175.37 145.82 175.37 152.47 144.54 156.06 143.87 149.97 126.71 130.93 99.02 131.34 84.01 151.92 83.95 189.88 99.02 208.94 126.47 209.65 144.54 189.4 144.17 174.49" style="fill:#151515"/><path d="M99,210.87A6.12,6.12,0,0,1,93.84,208L83.41,191.69a6.13,6.13,0,0,1-1-3.3v-36.5a6.13,6.13,0,0,1,1-3.3l10.43-16.34A6.12,6.12,0,0,1,99,129.41h8.65v2.44H99a3.71,3.71,0,0,0-3.13,1.71L85.47,149.9a3.64,3.64,0,0,0-.59,2v36.5a3.62,3.62,0,0,0,.59,2l10.42,16.34A3.71,3.71,0,0,0,99,208.43h8.65v2.44Z" style="fill:#151515"/><path d="M107.17,129.91v1.44H99a4.18,4.18,0,0,0-3.55,1.94L85,149.63a4.22,4.22,0,0,0-.66,2.26v36.5a4.22,4.22,0,0,0,.66,2.26L95.47,207A4.18,4.18,0,0,0,99,208.93h8.15v1.44H99a5.61,5.61,0,0,1-4.76-2.61L83.84,191.42a5.61,5.61,0,0,1-.89-3v-36.5a5.64,5.64,0,0,1,.89-3l10.42-16.34A5.61,5.61,0,0,1,99,129.91h8.15m1-1H99a6.62,6.62,0,0,0-5.6,3.07L83,148.32a6.64,6.64,0,0,0-1,3.57v36.5A6.64,6.64,0,0,0,83,192L93.42,208.3a6.62,6.62,0,0,0,5.6,3.07h9.15v-3.44H99a3.18,3.18,0,0,1-2.7-1.48L85.89,190.11a3.18,3.18,0,0,1-.51-1.72v-36.5a3.18,3.18,0,0,1,.51-1.72l10.43-16.34a3.18,3.18,0,0,1,2.7-1.48h9.15v-3.44Z" style="fill:#f5f5f5"/><path d="M102.07,210.87A6.12,6.12,0,0,1,96.89,208l-.09-.18-6.15-16.39a5.89,5.89,0,0,1-.85-3.07v-36.5a8.35,8.35,0,0,1,.56-2.21c.1-.27.19-.54.27-.79l6.23-16.6,0,0a6.12,6.12,0,0,1,5.18-2.84H124.9a6.12,6.12,0,0,1,5.18,2.84l14.61,16.18a6.23,6.23,0,0,1,1.08,3.46v5.76h-2.43v-5.76a3.72,3.72,0,0,0-.58-2l-14.61-16.18a3.84,3.84,0,0,0-3.25-1.87H102.07A3.69,3.69,0,0,0,99,133.46l-6.08,16.21c-.06.21-.16.51-.27.81a7.4,7.4,0,0,0-.42,1.47v36.44a3.69,3.69,0,0,0,.61,2L99,206.82a3.69,3.69,0,0,0,3.06,1.61H124.9c1,0,2.06-.61,3.26-1.89l14.72-16.32a3.81,3.81,0,0,0,.46-1.83V174.81h2.43v13.58a6.13,6.13,0,0,1-1,3.3L130,208.19c-1.7,1.81-3.35,2.68-5,2.68Z" style="fill:#151515"/><path d="M124.9,129.91a5.58,5.58,0,0,1,4.75,2.61l14.67,16.24a5.69,5.69,0,0,1,1,3.13v5.26h-1.43v-5.26a4.22,4.22,0,0,0-.66-2.26l-14.66-16.25a4.28,4.28,0,0,0-3.62-2H102.07a4.19,4.19,0,0,0-3.51,1.88L92.47,149.5l-.28.82a7.56,7.56,0,0,0-.45,1.61v36.46a4.25,4.25,0,0,0,.68,2.29l6.14,16.37a4.19,4.19,0,0,0,3.51,1.88H124.9c1.14,0,2.33-.67,3.63-2l14.72-16.33a4.26,4.26,0,0,0,.59-2.17V175.31h1.43v13.08a5.63,5.63,0,0,1-.88,3l-14.81,16.44c-1.59,1.69-3.12,2.51-4.68,2.51H102.07a5.61,5.61,0,0,1-4.76-2.61l-.06-.13-6.13-16.34a5.45,5.45,0,0,1-.82-2.9v-36.5a8.17,8.17,0,0,1,.53-2c.1-.27.2-.55.28-.81l6.2-16.51a5.61,5.61,0,0,1,4.76-2.61H124.9m0-1H102.07a6.62,6.62,0,0,0-5.6,3.07l0,.09,0,.09-6.21,16.52v.06c-.07.25-.17.51-.26.77a8.38,8.38,0,0,0-.58,2.33v36.55a6.37,6.37,0,0,0,.92,3.33L96.31,208l0,.05,0,.05.07.13,0,0,0,0a6.62,6.62,0,0,0,5.6,3.07H124.9c1.85,0,3.62-.92,5.41-2.83l14.82-16.45.06-.06,0-.07a6.64,6.64,0,0,0,1-3.57V174.31h-3.43v14.08a3.3,3.3,0,0,1-.4,1.57l-14.66,16.26a4.42,4.42,0,0,1-2.88,1.71H102.07a3.2,3.2,0,0,1-2.61-1.34l-6.11-16.26,0-.08,0-.07a3.26,3.26,0,0,1-.54-1.79V151.93a9.73,9.73,0,0,1,.39-1.28c.11-.3.21-.59.28-.83l6-16.13a3.2,3.2,0,0,1,2.61-1.34H124.9a3.29,3.29,0,0,1,2.78,1.58l0,.06,0,.06,14.61,16.18a3.27,3.27,0,0,1,.46,1.66v6.26h3.43v-6.26a6.66,6.66,0,0,0-1.11-3.67l0-.07-.05-.06-14.61-16.18a6.6,6.6,0,0,0-5.55-3Z" style="fill:#f5f5f5"/><path d="M50.15,128.92A17.91,17.91,0,0,1,32.33,112L27.79,33.82a17.92,17.92,0,0,1,16.9-18.77L101.3,11.5l.15,2.43L44.83,17.48A15.47,15.47,0,0,0,30.22,33.69l4.54,78.17a15.47,15.47,0,0,0,15.39,14.62c.27,0,.55,0,.82,0L117.36,123A15.42,15.42,0,0,0,132,106.77l-1.67-24.89,2.43-.16,1.67,24.91a17.89,17.89,0,0,1-16.9,18.79L51.1,128.89C50.78,128.91,50.47,128.92,50.15,128.92Z" style="fill:#151515"/><path d="M100.83,12l.09,1.43L44.8,17A16,16,0,0,0,29.72,33.72l4.54,78.17A16,16,0,0,0,50.15,127c.28,0,.56,0,.85,0l66.38-3.48a15.94,15.94,0,0,0,15.07-16.73l-1.64-24.41,1.43-.09,1.65,24.41a17.39,17.39,0,0,1-16.43,18.26l-66.39,3.47c-.3,0-.61,0-.92,0A17.42,17.42,0,0,1,32.83,112L28.29,33.79A17.4,17.4,0,0,1,44.72,15.55L100.83,12m.94-1.06-1,.06L44.65,14.55a18.41,18.41,0,0,0-17.36,19.3L31.83,112a18.41,18.41,0,0,0,18.32,17.39c.33,0,.65,0,1,0l66.38-3.48a18.38,18.38,0,0,0,17.37-19.3l-1.64-24.43-.06-1-1,.07-1.43.1-1,.06.06,1,1.64,24.4a14.92,14.92,0,0,1-14.12,15.67L50.94,126c-.26,0-.53,0-.79,0a15,15,0,0,1-14.89-14.14L30.72,33.66A15,15,0,0,1,44.85,18L101,14.46l1-.06-.06-1L101.83,12l-.06-1Z" style="fill:#f5f5f5"/><path d="M55.43,109.22a5.34,5.34,0,0,1-5.33-5.06L46.24,39a5.33,5.33,0,0,1,5-5.62l57.25-3.69.16,2.43L51.43,35.84a2.92,2.92,0,0,0-2,1,2.88,2.88,0,0,0-.74,2.09L52.53,104a2.93,2.93,0,0,0,2.89,2.75h.16l55.34-3.65a2.9,2.9,0,0,0,2.76-3L110,40l2.4,1.45,3.67,58.51a5.33,5.33,0,0,1-5,5.62l-55.33,3.65Z" style="fill:#151515"/><path d="M108.08,30.25l.09,1.43L51.4,35.34A3.38,3.38,0,0,0,49,36.47a3.34,3.34,0,0,0-.87,2.45L52,104.06a3.42,3.42,0,0,0,3.39,3.22h.19L111,103.63a3.4,3.4,0,0,0,3.23-3.58L110.6,40.9l1.36.82L115.61,100a4.82,4.82,0,0,1-4.57,5.09l-55.35,3.65h-.26a4.83,4.83,0,0,1-4.83-4.58L46.74,39a4.84,4.84,0,0,1,4.57-5.09l56.77-3.66m.93-1.06-1,.06L51.25,32.91a5.85,5.85,0,0,0-5.51,6.14L49.6,104.2a5.85,5.85,0,0,0,5.83,5.52h.31l55.36-3.65a5.83,5.83,0,0,0,5.51-6.14L113,41.66l0-.53-.45-.27L111.12,40l-1.63-1,.11,1.9,3.58,59.15a2.39,2.39,0,0,1-.61,1.73,2.47,2.47,0,0,1-1.67.79l-55.36,3.65h-.12A2.43,2.43,0,0,1,53,104L49.17,38.86a2.33,2.33,0,0,1,.61-1.72,2.42,2.42,0,0,1,1.67-.8l56.78-3.66,1-.06-.06-1-.1-1.43-.06-1Z" style="fill:#f5f5f5"/><rect x="183.36" y="128.79" width="2.43" height="5.68" transform="matrix(1, -0.07, 0.07, 1, -8.45, 12.73)" style="fill:#151515"/><path d="M185.14,129.25l.31,4.67L184,134l-.32-4.67,1.44-.09m.93-1.07-1,.07-1.43.1-1,.06.07,1,.31,4.67.07,1,1-.07,1.44-.1,1-.06-.06-1-.32-4.67-.06-1Z" style="fill:#f5f5f5"/><path d="M181.7,144.43a9.9,9.9,0,0,1-1.71-5.58,7.29,7.29,0,0,1,1.59-4.95l.15-.21h2.65l-.56.78a7.56,7.56,0,0,0-.1,8.59l.28.41-2,1.37Z" style="fill:#151515"/><path d="M182,134.19h1.42a8.08,8.08,0,0,0-.11,9.16l-1.19.8a9.43,9.43,0,0,1-1.62-5.3,6.84,6.84,0,0,1,1.5-4.66m-.51-1-.31.42a7.83,7.83,0,0,0-1.68,5.24,10.43,10.43,0,0,0,1.79,5.86l.56.83.83-.56,1.19-.8.83-.56-.56-.83a7.06,7.06,0,0,1,.1-8l1.12-1.57h-3.87Z" style="fill:#f5f5f5"/><path d="M196.63,142.44l.21-.45a7.61,7.61,0,0,0-1.67-8.61l-.67-.63,2.49-.59.2.18a8.07,8.07,0,0,1,2.76,6.51,9.87,9.87,0,0,1-.9,4.15l-.21.45Z" style="fill:#151515"/><path d="M196.84,132.7a7.59,7.59,0,0,1,2.61,6.15,9.35,9.35,0,0,1-.86,3.94l-1.3-.6a8.07,8.07,0,0,0-1.78-9.17l1.33-.32m.3-1.09-.53.12-1.33.32-1.79.43,1.33,1.27a6.93,6.93,0,0,1,2.19,5.1,7,7,0,0,1-.63,2.93l-.42.91.91.41,1.31.6.91.42.41-.91a10.37,10.37,0,0,0,.95-4.36,8.6,8.6,0,0,0-2.92-6.87l-.39-.37Z" style="fill:#f5f5f5"/><path d="M174.65,153.69a1.22,1.22,0,0,1-1.22-1.22v-7.24a1.23,1.23,0,0,1,1-1.2L187,141.6l.24,0a1.22,1.22,0,0,1,.22,2.41l-11.63,2.24v6.24A1.22,1.22,0,0,1,174.65,153.69Z" style="fill:#151515"/><path d="M187.28,142.08a.71.71,0,0,1,.69.58.72.72,0,0,1-.56.84l-12,2.32v6.65a.72.72,0,0,1-1.44,0v-7.24a.72.72,0,0,1,.59-.7l12.61-2.44h.15m0-1a2,2,0,0,0-.35,0l-12.6,2.43a1.73,1.73,0,0,0-1.4,1.69v7.24a1.72,1.72,0,0,0,3.44,0v-5.82l11.22-2.17a1.7,1.7,0,0,0,1.36-2,1.7,1.7,0,0,0-1.67-1.39Z" style="fill:#f5f5f5"/><path d="M187.27,152.48a1.22,1.22,0,0,1-1.22-1.21V142.8a1.22,1.22,0,0,1,1.22-1.22h20a1.22,1.22,0,0,1,1.22,1.22v8.47a1.22,1.22,0,0,1-1.22,1.21Zm18.83-2.43v-6H188.49v6Z" style="fill:#151515"/><path d="M207.32,142.08a.72.72,0,0,1,.72.72v8.47a.71.71,0,0,1-.72.71h-20a.71.71,0,0,1-.72-.71V142.8a.72.72,0,0,1,.72-.72h20M188,150.55H206.6v-7H188v7m19.33-9.47h-20a1.72,1.72,0,0,0-1.72,1.72v8.47a1.72,1.72,0,0,0,1.72,1.71h20a1.72,1.72,0,0,0,1.72-1.71V142.8a1.72,1.72,0,0,0-1.72-1.72ZM189,144.51H205.6v5H189v-5Z" style="fill:#f5f5f5"/><polygon points="98.7 176.82 98.7 174.39 135.44 174.43 219.54 158.63 219.99 161.02 135.62 176.85 98.7 176.82" style="fill:#151515"/><path d="M219.14,159.21l.26,1.41-83.83,15.73-36.37,0v-1.43l36.24,0,83.7-15.72m.8-1.17-1,.19-83.6,15.7-36.15,0h-1v3.43h1l36.37,0h.09l.1,0,83.83-15.73,1-.18-.19-1-.26-1.41-.18-1Z" style="fill:#f5f5f5"/><path d="M97.82,176.85a1.25,1.25,0,0,1-.79-.28,1.2,1.2,0,0,1-.43-.95l.15-10.34a1.23,1.23,0,0,1,1-1.19l83.68-13.86h.19a1.17,1.17,0,0,1,.79.29,1.19,1.19,0,0,1,.43.92v8.48a1.21,1.21,0,0,1-1,1.19L98,176.83A.82.82,0,0,1,97.82,176.85Zm1.24-2.68,81.37-15.28v-6L99.17,166.33Z" style="fill:#151515"/><path d="M181.64,150.72a.73.73,0,0,1,.47.17.69.69,0,0,1,.25.54v8.48a.71.71,0,0,1-.58.7L98,176.34h-.13a.72.72,0,0,1-.47-.16.75.75,0,0,1-.25-.56l.15-10.35a.72.72,0,0,1,.6-.69l83.68-13.86h.11M98.55,174.77l82.38-15.46v-7L98.68,165.9l-.13,8.87m83.09-25.05-.27,0L97.69,163.6a1.72,1.72,0,0,0-1.44,1.67l-.15,10.34a1.71,1.71,0,0,0,1.72,1.74l.32,0L182,161.59a1.7,1.7,0,0,0,1.4-1.68v-8.48a1.69,1.69,0,0,0-1.72-1.71Zm-82,17,80.27-13.29v5L99.56,173.56l.1-6.81Z" style="fill:#f5f5f5"/><polygon points="171.38 128.63 173.81 128.53 174 133.31 184.67 132.75 210.88 129.9 210.58 125.66 213 125.49 213.47 132.06 184.86 135.18 171.66 135.87 171.38 128.63" style="fill:#151515"/><path d="M212.54,126l.4,5.6-28.13,3.06-12.67.66-.24-6.23,1.43-.06.19,4.78,11.17-.58,26.72-2.91-.3-4.22,1.43-.1m.93-1.07-1,.07-1.43.11-1,.07.07,1,.23,3.26-25.73,2.8-10.13.53-.15-3.77,0-1-1,0-1.44.06-1,0,0,1,.24,6.24,0,1,1,0,12.66-.66h.06l28.13-3.06.95-.1-.06-1-.4-5.6-.07-1Z" style="fill:#f5f5f5"/><polygon points="194.21 127.1 233.31 122.94 240.79 109.79 242.91 110.99 234.81 125.23 194.47 129.52 194.21 127.1" style="fill:#151515"/><path d="M241,110.47l1.24.71-7.72,13.58L194.91,129l-.15-1.42,38.85-4.14L241,110.47m-.38-1.36-.49.87L233,122.47l-38.34,4.08-1,.11.11,1,.15,1.43.11,1,1-.1,39.58-4.21.51-.06.26-.44,7.72-13.58.5-.87-.87-.5-1.25-.71-.87-.49Z" style="fill:#f5f5f5"/><path d="M159.09,131.51a1.24,1.24,0,0,1-1-.44l-7.82-9.57a1.2,1.2,0,0,1-.19-1.23,1.22,1.22,0,0,1,1-.75l33.6-3.62h.12a1.2,1.2,0,0,1,.89.41l10,11.15a1.19,1.19,0,0,1,.22,1.27,1.2,1.2,0,0,1-1.05.75Zm.55-2.46,32.6-1.86-7.9-8.8-30.71,3.31Z" style="fill:#151515"/><path d="M184.85,116.39a.71.71,0,0,1,.52.24l10,11.15a.7.7,0,0,1,.13.75.71.71,0,0,1-.62.45l-35.75,2h0a.71.71,0,0,1-.56-.26l-7.83-9.57a.72.72,0,0,1-.1-.72.71.71,0,0,1,.58-.45l33.58-3.61h.09m-25.44,13.17,33.9-1.93-8.76-9.77-31.9,3.44,6.76,8.26m25.44-14.17-.22,0L151.08,119a1.72,1.72,0,0,0-1.15,2.8l7.83,9.56a1.7,1.7,0,0,0,1.33.63h.09l35.76-2a1.72,1.72,0,0,0,1.18-2.86l-10-11.15a1.69,1.69,0,0,0-1.26-.57ZM154.6,122.1l29.54-3.19,7,7.84-31.32,1.78-5.26-6.43Z" style="fill:#f5f5f5"/><path d="M181.65,161.12a1.22,1.22,0,0,1-1.22-1.21v-8.48a1.22,1.22,0,0,1,1.22-1.21h37.62a1.22,1.22,0,0,1,1.22,1.21v8.48a1.22,1.22,0,0,1-1.22,1.21Zm36.4-2.43v-6H182.86v6Z" style="fill:#151515"/><path d="M219.27,150.72a.72.72,0,0,1,.72.71v8.48a.72.72,0,0,1-.72.71H181.65a.71.71,0,0,1-.72-.71v-8.48a.71.71,0,0,1,.72-.71h37.62m-36.91,8.47h36.19v-7H182.36v7m36.91-9.47H181.65a1.72,1.72,0,0,0-1.72,1.71v8.48a1.72,1.72,0,0,0,1.72,1.71h37.62a1.72,1.72,0,0,0,1.72-1.71v-8.48a1.72,1.72,0,0,0-1.72-1.71Zm-35.91,3.43h34.19v5H183.36v-5Z" style="fill:#f5f5f5"/><path d="M117,123l145.39-15.56a16.25,16.25,0,0,0,11.34-5.09,12.34,12.34,0,0,0,3.24-9l-1.83-21.94,2.43-.2,1.83,22A14.8,14.8,0,0,1,275.52,104a18.59,18.59,0,0,1-13,5.88L117.24,125.45Z" style="fill:#151515"/><path d="M277.09,71.76l1.79,21.47a14.3,14.3,0,0,1-3.73,10.45,18.1,18.1,0,0,1-12.62,5.71L117.69,124.9l-.16-1.42L262.42,108a16.71,16.71,0,0,0,11.66-5.24,12.86,12.86,0,0,0,3.37-9.39l-1.79-21.45,1.43-.12m.92-1.08-1,.08-1.43.12-1,.09.09,1,1.78,21.45a11.85,11.85,0,0,1-3.11,8.64,15.68,15.68,0,0,1-11,4.91h-.06L117.43,122.48l-1,.11.11,1,.15,1.43.11,1,1-.1,144.82-15.51a19.1,19.1,0,0,0,13.28-6,15.28,15.28,0,0,0,4-11.18l-1.79-21.49-.08-1Z" style="fill:#f5f5f5"/><path d="M154.09,81.67a1.22,1.22,0,0,1-1.22-1.14l-3.81-63.35c-.37-6.31-6.22-11.07-13.6-11.07h-.34a1.22,1.22,0,1,1,0-2.43h.3c8.74,0,15.66,5.74,16.11,13.35l3.81,63.35a1.22,1.22,0,0,1-1.14,1.29Z" style="fill:#151515"/><path d="M135.38,4.18c8.5,0,15.18,5.48,15.61,12.88l3.82,63.35a.73.73,0,0,1-.68.76h0a.72.72,0,0,1-.72-.67l-3.81-63.35c-.39-6.61-6.42-11.54-14.1-11.54h-.36a.72.72,0,1,1,0-1.43h.29m0-1h-.31a1.72,1.72,0,0,0,0,3.43h.36c7.11,0,12.75,4.56,13.1,10.6l3.82,63.35a1.71,1.71,0,0,0,1.71,1.61h.09a1.72,1.72,0,0,0,1.62-1.82L152,17c-.46-7.88-7.6-13.82-16.61-13.82Z" style="fill:#f5f5f5"/><path d="M23.85,89.2A4.63,4.63,0,0,1,19.45,86L1.36,30.75A16.89,16.89,0,0,1,16.46,8.61L87.8,4.83l1,0L263.56.52l.81,0C272.68.5,279.55,6.41,280,14l3.33,56.56a2.13,2.13,0,0,1-.55,1.55,2.38,2.38,0,0,1-1.63.76L128,83.58h-.28a4.62,4.62,0,0,1-4.39-3.18L102.44,17.16A14.44,14.44,0,0,0,88.82,7.24l-.92,0L16.59,11A14.46,14.46,0,0,0,3.67,30L21.76,85.25a2.19,2.19,0,0,0,2.1,1.51H24l8.27-.48.14,2.43-8.27.48ZM97.1,7a16.87,16.87,0,0,1,7.65,9.35l20.87,63.25a2.2,2.2,0,0,0,2.08,1.51h.13l153-10.74L277.56,14.1c-.37-6.26-6.16-11.17-13.19-11.17l-.72,0Z" style="fill:#151515"/><path d="M264.37,1c8,0,14.69,5.68,15.12,13l3.33,56.55a1.59,1.59,0,0,1-.42,1.19,1.83,1.83,0,0,1-1.29.6L128,83.08h-.26a4.12,4.12,0,0,1-3.9-2.84L102.91,17A15,15,0,0,0,88.82,6.74l-.93,0L16.57,10.54A14.95,14.95,0,0,0,3.2,30.15L21.29,85.41a2.71,2.71,0,0,0,2.57,1.85H24l7.77-.45.09,1.43-7.78.45h-.24a4.13,4.13,0,0,1-3.92-2.84L1.84,30.6A16.38,16.38,0,0,1,16.49,9.11L87.82,5.33l1,0L263.58,1l.79,0M127.7,81.65h.16L281,70.9a.4.4,0,0,0,.3-.13.2.2,0,0,0,.06-.14l-3.33-56.56c-.39-6.54-6.45-11.64-13.69-11.64l-.74,0L95.06,6.59a16.41,16.41,0,0,1,9.21,10l20.88,63.24a2.68,2.68,0,0,0,2.55,1.86M264.37,0l-.84,0L88.79,4.31l-1,0L16.44,8.11A17.37,17.37,0,0,0,.89,30.91L19,86.17a5.12,5.12,0,0,0,4.87,3.53h.31l7.76-.45,1-.06-.06-1-.08-1.43-.06-1-1,.06L24,86.26h-.09a1.72,1.72,0,0,1-1.62-1.16L4.15,29.84a13.95,13.95,0,0,1,12.47-18.3L87.94,7.76l.9,0A13.93,13.93,0,0,1,102,17.31l20.88,63.25a5.1,5.1,0,0,0,4.85,3.52H128L281.18,73.33a2.89,2.89,0,0,0,2-.93,2.61,2.61,0,0,0,.68-1.91l-3.33-56.56C280,6.12,273,0,264.37,0ZM98.75,7.5l164.9-4,.72,0c6.76,0,12.34,4.7,12.69,10.7l3.29,55.81L127.79,80.65h-.09a1.69,1.69,0,0,1-1.6-1.17L105.22,16.24A17.36,17.36,0,0,0,98.75,7.5Z" style="fill:#f5f5f5"/></g></g></svg>