<svg xmlns="http://www.w3.org/2000/svg" viewBox="0 0 263.51 308.36"><g id="Ebene_2" data-name="Ebene 2"><g id="Citrus-Black"><path d="M1.91,1.5S83.37,9.39,134.66,8.43s126.08.09,126.08.09a448.48,448.48,0,0,1,0,67.51c-2.87,35-48.42,66.16-48.42,66.16s22.06,12.46,24,73.34-1.43,78.63-1.43,78.63-35.48,4.79-46.51-15.35-13.42-24-13.42-24-16.3,15.35-45.54,19.18-53.22-10.55-53.22-10.55,5.28,16.34-21.09,31.18-30.68,12-30.68,12,1.44-51.78-3.84-66.64,4.32-17.26,2.4-30.68-3.35-26.37-2.4-36.91-6.71-43.63-13.9-80.54S1.87,2.2,1.87,2.2" style="fill:#151515"/><path d="M192.41,218.37C177.71,238.18,170,255,125.55,258.52s-68.71-22.37-74.78-31-9-9-16-12.47-6.72-11.82-6.72-11.82c.32-5.11,8.31-8.31,14.71-14.7S50.45,161,75.06,146.66s47.62-13.42,67.43-11.83,35.8,16.3,45.07,24.29,5.75,10.55,8,13.43,6.39,8.95,5.43,11.82,5.75,14.7-8.95,34.52" style="fill:#f5f5f5"/><path d="M25.82,307.86a3.62,3.62,0,0,1-2-.41,1,1,0,0,1-.44-.86c0-.51,1.4-51.68-3.78-66.27-3.05-8.6-1.35-13.14.46-17.94,1.33-3.55,2.71-7.22,1.89-12.94-1.83-12.84-3.39-26.23-2.4-37.14.72-7.91-3.49-28.67-8.83-55l0-.15c-1.64-8.1-3.34-16.48-5-25.16C-1.44,55.47.84,2.68.87,2.15A.85.85,0,0,1,1,1.8a1.07,1.07,0,0,1,0-.4,1,1,0,0,1,1-.9H2c.72.07,72.72,7,123.62,7,3.14,0,6.17,0,9-.08,14.26-.26,31.78-.4,52.08-.4,38,0,72.58.47,74,.49a1,1,0,0,1,1,.91,454,454,0,0,1,0,67.68c-2.63,32-41,61.19-47.67,66.06,4.68,3.58,21.55,20.11,23.23,73.33,1.89,60.33-1.43,78.66-1.46,78.84a1,1,0,0,1-.85.81,78.74,78.74,0,0,1-8.94.47c-11.07,0-30.79-2.12-38.57-16.32-8-14.69-11.5-20.71-12.8-22.92-3.92,3.28-19.82,15.31-45.16,18.63a78.51,78.51,0,0,1-10.11.65A94.58,94.58,0,0,1,77.5,265.34c.45,5-.74,18.26-21.93,30.19-19,10.72-26.82,12.32-29.75,12.33Zm-.4-2h.33c2.23,0,9.51-1.18,28.84-12.06,25.15-14.16,20.68-29.85,20.63-30a1,1,0,0,1,1-1.31,1,1,0,0,1,.52.15,92,92,0,0,0,42.72,11,76.39,76.39,0,0,0,9.85-.63c28.56-3.75,44.82-18.76,45-18.91a1,1,0,0,1,.68-.28h.13a1,1,0,0,1,.72.47s2.52,4.05,13.45,24c7.29,13.31,26.15,15.3,36.75,15.3a80.17,80.17,0,0,0,8-.38c.63-4.32,3-24.49,1.31-77.68-1.87-59.34-23.25-72.39-23.47-72.52a1,1,0,0,1-.5-.82,1,1,0,0,1,.43-.87c.45-.31,45.19-31.34,48-65.41a455.28,455.28,0,0,0,.07-66.44c-7.1-.1-38.63-.48-73.1-.48-20.28,0-37.79.14-52,.4-2.83.05-5.85.08-9,.08-47.44,0-113-6-122.85-6.92-.19,4.65-2,54.25,4.79,89.07q2.55,13,5.05,25.21c5.38,26.53,9.61,47.41,8.87,55.61-1,10.71.57,24,2.39,36.68.89,6.22-.58,10.14-2,13.92-1.67,4.46-3.25,8.66-.44,16.57C26.48,253.67,25.59,298.74,25.42,305.83Z" style="fill:#1b1b1b"/><path d="M1.9,1H2c.76.08,72.94,7,123.67,7,3.1,0,6.11,0,9-.08,16-.3,34.38-.4,52.07-.4,38.38,0,73.52.48,74,.49a.49.49,0,0,1,.49.46,452.79,452.79,0,0,1,0,67.59c-2.68,32.61-42.57,62.2-48,66.1,3.75,2.6,21.83,18,23.58,73.35,1.89,60.24-1.42,78.55-1.45,78.73a.5.5,0,0,1-.43.4,74.45,74.45,0,0,1-8.87.47c-11.38,0-30.54-2.19-38.13-16.06-8.87-16.19-12.17-21.87-13.11-23.44-2.86,2.47-19,15.44-45.36,18.9a76.93,76.93,0,0,1-10,.64,94.46,94.46,0,0,1-42.52-10.71c.62,4,.9,18-21.56,30.64-18.83,10.6-26.53,12.26-29.51,12.27a3.22,3.22,0,0,1-1.7-.32.5.5,0,0,1-.22-.43c0-.52,1.38-51.86-3.81-66.46-3-8.43-1.31-12.88.45-17.59,1.36-3.61,2.76-7.35,1.93-13.19-1.83-12.81-3.39-26.16-2.4-37,.72-8-3.5-28.77-8.84-55.09-1.65-8.14-3.36-16.57-5.06-25.31C-.95,55.39,1.34,2.71,1.37,2.18a.5.5,0,0,1,.16-.35.5.5,0,0,1-.12-.38A.49.49,0,0,1,1.9,1M25.75,306.34c2.47,0,9.89-1.32,29.09-12.12,25.65-14.44,20.91-30.43,20.86-30.59a.52.52,0,0,1,.16-.55.51.51,0,0,1,.31-.11.5.5,0,0,1,.26.08,92.81,92.81,0,0,0,43,11.11,76.69,76.69,0,0,0,9.91-.63c28.73-3.77,45.11-18.9,45.27-19a.49.49,0,0,1,.34-.14H175a.51.51,0,0,1,.36.23s2.53,4.08,13.43,24c7.35,13.42,26,15.56,37.19,15.56a77.17,77.17,0,0,0,8.44-.43c.45-2.81,3.12-22.6,1.38-78.15-1.89-59.91-23.5-72.81-23.72-72.93a.47.47,0,0,1-.25-.41.5.5,0,0,1,.21-.44c.46-.31,45.38-31.43,48.21-65.78a454.07,454.07,0,0,0,0-67c-4.25,0-37.47-.48-73.56-.48-17.68,0-36.06.1-52.05.4-2.9.06-5.9.08-9,.08C77.08,9,8.77,2.65,2.34,2a.57.57,0,0,1,0,.18c0,.53-2.31,53.1,4.78,89.53,1.7,8.73,3.41,17.16,5.06,25.31,5.36,26.4,9.59,47.25,8.85,55.37-1,10.77.57,24,2.4,36.8.87,6.1-.58,10-2,13.68-1.7,4.54-3.31,8.82-.44,16.91,5.07,14.29,4,61.43,3.87,66.45a4.65,4.65,0,0,0,.84.07M1.9,0A1.5,1.5,0,0,0,.41,1.36a1.91,1.91,0,0,0,0,.41,1.43,1.43,0,0,0-.06.36c0,.53-2.32,53.38,4.82,90,1.69,8.7,3.39,17.08,5,25.19l0,.13c5.33,26.24,9.53,47,8.82,54.8-1,11,.57,24.39,2.41,37.26.79,5.59-.56,9.2-1.87,12.69-1.76,4.68-3.57,9.52-.46,18.28,5.07,14.28,3.76,65.58,3.75,66.1a1.51,1.51,0,0,0,.67,1.29,4,4,0,0,0,2.25.49c3.64,0,11.8-2.16,30-12.4,20.29-11.42,22.45-24.1,22.23-29.78a95.31,95.31,0,0,0,41.36,10,79.33,79.33,0,0,0,10.17-.65c24.59-3.23,40.35-14.61,45-18.37,1.49,2.56,5,8.71,12.49,22.4,7.9,14.43,27.83,16.58,39,16.58a75.38,75.38,0,0,0,9-.48,1.49,1.49,0,0,0,1.28-1.21c0-.17,3.37-18.56,1.46-78.94-1.62-51.61-17.54-68.92-22.9-73.31,8-5.89,44.77-34.62,47.35-66a455.05,455.05,0,0,0,0-67.76A1.5,1.5,0,0,0,260.76,7c-1.46,0-36.16-.49-74-.49-20.3,0-37.82.14-52.09.4-2.83.06-5.86.08-9,.08C74.77,7,2.77.08,2.05,0Zm24,305.34c.2-8.51.94-52.06-3.95-65.86-2.75-7.74-1.27-11.67.44-16.22,1.44-3.85,2.93-7.82,2-14.17-1.82-12.69-3.36-25.91-2.39-36.57.75-8.27-3.49-29.18-8.86-55.66l0-.09q-2.48-12.18-5-25.21C1.56,57.83,3.06,10.17,3.33,3.14,14.76,4.21,79,10,125.7,10c3.13,0,6.15,0,9-.08,14.25-.26,31.75-.4,52-.4,33.76,0,64.72.37,72.64.47a455.52,455.52,0,0,1-.11,65.9c-2.78,33.84-47.32,64.74-47.77,65a1.5,1.5,0,0,0,.11,2.54c.2.12,21.35,13.23,23.21,72.09,1.63,51.93-.65,72.76-1.25,77.21-1.47.14-4.15.34-7.57.34-10.49,0-29.15-1.95-36.31-15-10.94-20-13.45-24-13.47-24a1.49,1.49,0,0,0-1.08-.68l-.19,0a1.52,1.52,0,0,0-1,.41c-.16.15-16.39,15.07-44.71,18.78a75.19,75.19,0,0,1-9.78.63,91.79,91.79,0,0,1-42.46-11,1.53,1.53,0,0,0-.78-.22,1.5,1.5,0,0,0-1.42,2c0,.14,4.31,15.5-20.4,29.42-18.74,10.54-26,11.92-28.42,12Z" style="fill:#f5f5f5"/><path d="M202.69,32.75c-20,0-39.2-.43-57.05-1.27C86.9,28.71,5,25.4,1.52,25.26l-.5,0L1,24.73,1,23.23l.5,0c3.51.14,85.38,3.45,144.21,6.22,17.82.84,37,1.27,56.95,1.27,34.38,0,58.87-1.26,59.12-1.27l.5,0,.1,2-.5,0C261.66,31.49,237,32.75,202.69,32.75Z" style="fill:#1b1b1b"/><path d="M1.51,23.75c.83,0,84,3.39,144.2,6.23,20.16.95,39.78,1.27,57,1.27,34.15,0,58.77-1.25,59.14-1.27l.05,1c-.36,0-25,1.27-59.19,1.27-17.22,0-36.85-.32-57-1.27C85.48,28.14,2.3,24.79,1.46,24.75l.05-1m-.92-1-.08,1,0,1,0,1,1,0H1.5c8.68.35,86.42,3.5,144.12,6.22,17.86.84,37.06,1.27,57.07,1.27,34.32,0,59-1.26,59.25-1.27l1-.05-.05-1-.05-1-.05-1-1,.05c-.24,0-24.69,1.27-59.09,1.27-20,0-39.11-.43-56.93-1.27C86.83,26.2,5.05,22.9,1.59,22.76l-1,0Z" style="fill:#f5f5f5"/><path d="M201.25,37.06c-20.3,0-39.59-.42-57.34-1.26-56.69-2.7-133.6-6-142.18-6.41l-.71,0,.09-2,.68,0c8.57.37,85.4,3.71,142.22,6.41,17.71.84,37,1.26,57.24,1.26,34.93,0,60.31-1.25,60.56-1.26l.5,0,.1,2-.5,0C261.65,35.81,236,37.06,201.25,37.06Z" style="fill:#1b1b1b"/><path d="M1.59,27.88c.82,0,82.59,3.58,142.4,6.42,20,1,39.8,1.26,57.26,1.26,34.65,0,60.2-1.24,60.58-1.26l.05,1c-.38,0-25.95,1.26-60.63,1.26-17.48,0-37.27-.31-57.31-1.26C84.13,32.45,2.36,28.92,1.54,28.88l.05-1m-1-1,0,1,0,1-.05,1,1,0h.19c8.57.37,85.42,3.71,142.2,6.4,17.75.85,37.05,1.27,57.36,1.27,34.8,0,60.43-1.25,60.68-1.27l1,0-.05-1-.05-1-.05-1-1,0c-.25,0-25.58,1.26-60.53,1.26-20.26,0-39.51-.42-57.22-1.26-56.79-2.7-133.64-6-142.21-6.41H1.63l-1,0Z" style="fill:#f5f5f5"/><path d="M199.8,41.38c-20.6,0-40-.43-57.61-1.27C82.26,37.25,2.3,33.54,1.6,33.51l-.5,0,.09-2,1.24.06C22,32.45,90,35.61,142.28,38.11c17.6.84,36.95,1.27,57.51,1.27,34.57,0,60.91-1.22,62-1.27l.5,0,0,.5.08,1.5-.5,0C261.64,40.12,235.15,41.38,199.8,41.38Z" style="fill:#1b1b1b"/><path d="M1.67,32c.8,0,81.16,3.76,140.59,6.6,19.9,1,39.82,1.27,57.53,1.27,35.17,0,61.65-1.25,62-1.27l.05,1c-.39,0-26.9,1.27-62.08,1.27-17.73,0-37.67-.32-57.59-1.27C82.78,36.77,2.43,33,1.62,33l0-1M.72,31l0,1,0,1L.58,34l1,0c.68,0,80.65,3.74,140.58,6.61,17.65.84,37,1.27,57.64,1.27,35.32,0,61.87-1.26,62.13-1.27l1,0-.05-1-.05-1,0-1-1,0c-1.11.06-27.42,1.27-62,1.27-20.55,0-39.89-.43-57.48-1.27C90,35.11,22.05,32,2.47,31l-.75,0L.72,31Z" style="fill:#f5f5f5"/><path d="M198.35,45.7c-20.9,0-40.38-.43-57.89-1.27C86.07,41.81,15.57,38.32,2,37.65l-.81,0,.1-2,.5,0c.6,0,79.54,3.95,138.78,6.8,17.49.84,36.93,1.27,57.79,1.27,35.92,0,63.19-1.26,63.46-1.27l.5,0,.09,2-.5,0C261.63,44.44,234.12,45.7,198.35,45.7Z" style="fill:#1b1b1b"/><path d="M1.75,36.13c.79,0,79.73,4,138.78,6.8,19.78,1,39.85,1.27,57.82,1.27,35.67,0,63.07-1.25,63.48-1.27l.05,1c-.41,0-27.84,1.27-63.53,1.27-18,0-38.07-.32-57.86-1.27-59.05-2.85-138-6.76-138.79-6.8l.05-1M.8,35.08l-.05,1-.05,1,0,1,1,.05.31,0c13.57.67,84.05,4.16,138.48,6.78,17.52.84,37,1.27,57.91,1.27,35.79,0,63.3-1.26,63.58-1.27l1,0-.05-1-.05-1,0-1-1,0c-.27,0-27.5,1.27-63.44,1.27-20.85,0-40.29-.43-57.77-1.27C81.21,39.07,2.4,35.16,1.8,35.13l-1-.05Z" style="fill:#f5f5f5"/><path d="M196.9,50c-21.19,0-40.76-.43-58.16-1.27C81.32,46,5,41.93,1.8,41.76l-.5,0,0-.5.08-1.5.5,0c.7,0,78.69,4.16,137,7,17.38.85,36.91,1.27,58.07,1.27,36,0,63.75-1.21,64.91-1.27l.5,0,.09,2-.5,0C261.62,48.75,233.24,50,196.9,50Z" style="fill:#1b1b1b"/><path d="M1.84,40.26c.77,0,78.3,4.14,137,7,19.64.95,39.87,1.27,58.09,1.27,36.18,0,64.51-1.25,64.94-1.27l0,1c-.42,0-28.78,1.27-65,1.27-18.24,0-38.47-.32-58.14-1.27-58.67-2.84-136.2-6.94-137-7l.06-1m-.95-1-.05,1-.06,1-.05,1,1,.06c3.27.17,79.55,4.2,137,7,17.42.84,37,1.27,58.19,1.27,36.31,0,64.74-1.26,65-1.27l1,0,0-1-.05-1,0-1-1,0c-1.16.06-28.94,1.27-64.89,1.27-21.15,0-40.68-.42-58-1.27-58.29-2.82-136.28-6.94-137-7l-1,0Z" style="fill:#f5f5f5"/><path d="M195.45,54.33c-21.49,0-41.15-.43-58.44-1.27C78.9,50.22,2.6,45.93,1.83,45.88l-.5,0,.12-2,.5,0c.76,0,76.65,4.31,135.16,7.17,17.26.84,36.89,1.27,58.35,1.27,36.92,0,66.06-1.26,66.35-1.27l.5,0,.09,2-.5,0C261.61,53.07,232.23,54.33,195.45,54.33Z" style="fill:#1b1b1b"/><path d="M1.92,44.39c.76,0,76.87,4.32,135.16,7.17,19.52.95,39.89,1.27,58.38,1.27,36.68,0,65.94-1.25,66.38-1.27l0,1c-.44,0-29.72,1.27-66.43,1.27-18.49,0-38.88-.32-58.42-1.27C78.74,49.71,2.62,45.43,1.86,45.38l.06-1M1,43.33l-.06,1-.06,1,0,1,1,.05c.75,0,76.64,4.32,135.18,7.18,17.3.84,37,1.27,58.46,1.27,36.79,0,66.18-1.26,66.47-1.27l1-.05,0-1,0-1,0-1-1,0c-.29,0-29.38,1.27-66.33,1.27-21.45,0-41.07-.43-58.33-1.27C78.67,47.71,2.73,43.43,2,43.39l-1-.06Z" style="fill:#f5f5f5"/><path d="M195.25,62.78c-21.49,0-41.15-.43-58.44-1.27C78.6,58.67,2.61,54.48,2,54.44l-.54,0,.28-2.11.59,0c7.93.44,79.07,4.46,134.6,7.17,17.27.84,36.9,1.27,58.36,1.27,37,0,66.06-1.26,66.35-1.27l.5,0,.09,2-.5,0C261.41,61.52,232,62.78,195.25,62.78Z" style="fill:#1b1b1b"/><path d="M2.14,52.83c.77,0,76.45,4.34,134.74,7.18,19.52,1,39.89,1.27,58.38,1.27,36.68,0,65.94-1.25,66.37-1.27l.05,1c-.44,0-29.72,1.27-66.43,1.27-18.5,0-38.88-.32-58.42-1.27C78.54,58.17,2.76,54,2,53.94l.14-1.11m-.87-1-.12.91L1,53.81.86,54.88l1.08.06c.65,0,76.69,4.23,134.84,7.07,17.3.84,37,1.27,58.47,1.27C232,63.28,261.43,62,261.72,62l1,0,0-1-.05-1,0-1-1,0c-.29,0-29.34,1.27-66.33,1.27-21.45,0-41.07-.43-58.33-1.27C81.4,56.3,10.26,52.29,2.33,51.84H2.2l-.93,0Z" style="fill:#f5f5f5"/><path d="M117.33,259.85c-43.78,0-65.09-28.51-67.38-31.76-5-7.09-7.7-8.37-12.63-10.7-1-.46-1.92-.91-3-1.44-7.54-3.77-7.27-12.67-7.26-12.76.23-3.73,3.79-6.41,7.92-9.5a64.75,64.75,0,0,0,7.07-5.87c1.83-1.83,3.25-5,5-9.1,4.26-9.62,10.1-22.79,27.44-32.92,15-8.74,30.88-12.81,50.12-12.81,6.49,0,12.69.43,17.9.85,19.12,1.54,34.79,15.13,44.16,23.24l1.48,1.29c6.57,5.66,7,8.84,7.34,11.17a4.45,4.45,0,0,0,.78,2.39c2.08,2.67,6.77,9.24,5.6,12.76a9,9,0,0,0,.21,2.7c.77,5.21,2.39,16-8.92,31.57l-.39.53c-1.24,1.68-2.43,3.34-3.6,5-12.8,17.79-22.9,31.84-63.6,35.06C122.84,259.74,120.05,259.85,117.33,259.85ZM124.7,135c-18.9,0-34.51,4-49.14,12.53-16.79,9.81-22.47,22.64-26.61,32-1.89,4.25-3.38,7.61-5.47,9.7a64.48,64.48,0,0,1-7.28,6.06c-3.88,2.91-7,5.21-7.13,8,0,.06-.16,7.71,6.16,10.87,1.06.53,2,1,2.92,1.41,5.09,2.41,8.14,3.85,13.43,11.37,2.23,3.17,23,30.91,65.76,30.91h0c2.67,0,5.4-.11,8.13-.33,39.78-3.14,49.64-16.86,62.12-34.22,1.3-1.81,2.63-3.65,4-5.52,10.82-14.87,9.28-25.15,8.55-30.09a8.46,8.46,0,0,1-.13-3.63c.66-2-2.17-6.91-5.27-10.9a6.26,6.26,0,0,1-1.19-3.34c-.3-2.13-.67-4.77-6.67-9.94l-1.48-1.29c-9.18-8-24.54-21.27-43-22.76C137.25,135.42,131.12,135,124.7,135Z" style="fill:#1b1b1b"/><path d="M124.67,133.49c6.07,0,12,.38,17.86.85,19,1.52,34.55,15,43.87,23.12l1.48,1.29c6.43,5.54,6.86,8.61,7.17,10.86a4.91,4.91,0,0,0,.89,2.63c1.58,2,6.64,8.91,5.51,12.29a8.81,8.81,0,0,0,.19,2.94c.77,5.16,2.36,15.83-8.83,31.2l-.38.52h0c-1.25,1.68-2.44,3.35-3.62,5-12.71,17.67-22.75,31.64-63.22,34.84-2.83.22-5.59.33-8.26.33-43.46,0-64.58-28.15-67-31.54-5.07-7.2-7.82-8.51-12.82-10.87-.91-.43-1.9-.9-3-1.44-7.23-3.62-7-12.2-7-12.29.22-3.49,3.7-6.1,7.73-9.12a63.36,63.36,0,0,0,7.12-5.92c1.9-1.89,3.33-5.14,5.15-9.25,4.23-9.55,10-22.64,27.23-32.69,17.41-10.17,34-12.74,49.87-12.74m-7.33,124.86q4,0,8.17-.33c40-3.16,49.93-17,62.49-34.43,1.3-1.81,2.62-3.65,4-5.52,10.94-15,9.39-25.43,8.64-30.46a8.27,8.27,0,0,1-.14-3.4c.77-2.31-2.41-7.56-5.36-11.36a5.88,5.88,0,0,1-1.09-3.1c-.31-2.21-.69-4.95-6.83-10.25l-1.49-1.28c-9.22-8-24.66-21.38-43.29-22.89-5.8-.47-11.72-.84-17.75-.84-15.71,0-32.18,2.54-49.39,12.6C58.38,157,52.66,169.9,48.49,179.33c-1.86,4.2-3.34,7.53-5.36,9.55a64.93,64.93,0,0,1-7.23,6c-4,3-7.14,5.35-7.33,8.37,0,.07-.21,8,6.44,11.35,1.07.53,2.05,1,3,1.42,5,2.36,8,3.79,13.2,11.2,2.36,3.35,23.22,31.12,66.17,31.12m7.33-125.86c-19.33,0-35.34,4.09-50.37,12.87-17.49,10.22-23.36,23.48-27.64,33.16-1.78,4-3.18,7.19-4.94,8.95a66.06,66.06,0,0,1-7,5.82c-4.23,3.17-7.88,5.9-8.12,9.86,0,.11-.28,9.34,7.54,13.25,1.06.53,2,1,2.92,1.41l.07,0c5,2.37,7.52,3.56,12.43,10.54,2.3,3.27,23.76,32,67.79,32,2.74,0,5.54-.11,8.34-.33,40.93-3.24,51.09-17.37,64-35.26,1.11-1.54,2.25-3.13,3.43-4.73l.18-.25a6.55,6.55,0,0,0,.39-.53c11.43-15.69,9.8-26.66,9-31.93a11.74,11.74,0,0,1-.23-2.47c1.21-3.61-3-9.84-5.67-13.22a4.13,4.13,0,0,1-.69-2.16c-.33-2.4-.79-5.69-7.5-11.48l-1.49-1.29c-9.41-8.15-25.15-21.81-44.44-23.36-5.22-.42-11.43-.85-17.94-.85Zm-7.33,124.86c-42.51,0-63.14-27.55-65.35-30.69-5.37-7.64-8.64-9.18-13.6-11.53-.94-.44-1.88-.89-2.93-1.42-6-3-5.89-10.35-5.89-10.42.16-2.53,3.15-4.77,6.93-7.6a67.25,67.25,0,0,0,7.34-6.1c2.15-2.16,3.66-5.56,5.56-9.86,4.12-9.3,9.76-22,26.41-31.78,19.12-11.17,37.06-12.46,48.89-12.46,6.4,0,12.52.42,17.67.84,18.31,1.48,33.59,14.73,42.72,22.64l1.48,1.29c5.86,5.05,6.22,7.59,6.5,9.62a6.88,6.88,0,0,0,1.29,3.59c3.52,4.52,5.7,8.91,5.2,10.43a8.63,8.63,0,0,0,.1,3.86c.73,4.88,2.24,15-8.46,29.73-1.39,1.87-2.72,3.72-4,5.52-12.41,17.25-22.21,30.89-61.76,34-2.72.22-5.44.33-8.09.33Z" style="fill:#f5f5f5"/><path d="M196.69,187.3a2.65,2.65,0,0,1-1.82-.72,4.18,4.18,0,0,1-1-3.58c.13-1.41-.36-1.95-1.25-2.91a11.61,11.61,0,0,1-2.86-4.67,27.83,27.83,0,0,1-1.65-8v-.5h2v.5a26.86,26.86,0,0,0,1.55,7.36,9.67,9.67,0,0,0,2.43,3.94,5.09,5.09,0,0,1,1.77,4.46,2.64,2.64,0,0,0,.34,1.94.66.66,0,0,0,.44.17h.43l.15.43.2,1.48-.5.07A1.83,1.83,0,0,1,196.69,187.3Z" style="fill:#1b1b1b"/><path d="M189.65,167.43a27.14,27.14,0,0,0,1.58,7.52,10.13,10.13,0,0,0,2.53,4.12,4.63,4.63,0,0,1,1.64,4.07,2.93,2.93,0,0,0,.49,2.34,1.15,1.15,0,0,0,.79.32h.08l.14,1h-.21a2.17,2.17,0,0,1-1.48-.58,3.78,3.78,0,0,1-.8-3.17c.15-1.64-.46-2.3-1.38-3.3a11.11,11.11,0,0,1-2.75-4.49,27.23,27.23,0,0,1-1.63-7.83h1m0-1h-2v1a28.32,28.32,0,0,0,1.68,8.15,12.26,12.26,0,0,0,3,4.85c.87.94,1.23,1.33,1.12,2.53a4.66,4.66,0,0,0,1.11,4,3.13,3.13,0,0,0,2.17.86,3.09,3.09,0,0,0,.34,0l1-.14-.13-1-.14-1-.13-.95-1,.09a.13.13,0,0,1-.08,0c-.11-.1-.28-.56-.19-1.54a5.59,5.59,0,0,0-1.9-4.84,9.24,9.24,0,0,1-2.33-3.76,26.8,26.8,0,0,1-1.52-7.2v-1Z" style="fill:#f5f5f5"/><path d="M211.66,142.93c-.06-.05-6-5.35-8.4-6.47l-1.62-.73c-3.4-1.5-5.49-2.51-5.79-3.88l-.11-.48,1.95-.44.11.49c.27.55,3.45,2,4.65,2.48l1.66.75c2.69,1.26,8.63,6.56,8.88,6.79l.37.33L212,143.26Z" style="fill:#1b1b1b"/><path d="M197.31,131.53c.16.72,3.15,2,4.93,2.83l1.66.74c2.62,1.22,8.51,6.49,8.76,6.71l-.67.75c-.06-.06-6-5.39-8.52-6.55-.5-.24-1.06-.48-1.63-.73-3.16-1.4-5.25-2.4-5.5-3.53l1-.22m.76-1.19-1,.21-1,.22-1,.22.22,1c.36,1.63,2.54,2.67,6.08,4.23.56.25,1.11.49,1.61.73,1.94.9,6.63,4.91,8.27,6.38l.75.67.67-.75.66-.74.67-.75-.74-.66c-.64-.57-6.29-5.61-9-6.87l-1.64-.74a24.81,24.81,0,0,1-4.42-2.28l-.19-.84Z" style="fill:#f5f5f5"/><path d="M176.23,255.07l-.84-1.35.69-.16a13,13,0,0,0,7.58-5.46,6.34,6.34,0,0,1,5.67-3.25,10.15,10.15,0,0,1,4.11,1l.45.23-.91,1.78-.45-.22a7.55,7.55,0,0,0-3.17-.76,4.38,4.38,0,0,0-4,2.3,13.68,13.68,0,0,1-8.6,6.16l-.34.07Z" style="fill:#1b1b1b"/><path d="M189.33,245.35a9.55,9.55,0,0,1,3.89.9l-.46.89a8.16,8.16,0,0,0-3.4-.81,4.89,4.89,0,0,0-4.41,2.54,13.11,13.11,0,0,1-8.3,5.94l-.46-.76a13.4,13.4,0,0,0,7.9-5.69,5.8,5.8,0,0,1,5.24-3m0-1a6.82,6.82,0,0,0-6.1,3.49,12.52,12.52,0,0,1-7.26,5.24l-1.37.3.74,1.2.46.75.37.6.69-.15a14.16,14.16,0,0,0,8.95-6.4,3.88,3.88,0,0,1,3.55-2,7.25,7.25,0,0,1,2.95.7l.89.45.45-.88.46-.89.46-.9-.9-.45a10.56,10.56,0,0,0-4.34-1Z" style="fill:#f5f5f5"/><path d="M75.31,264.4a3.61,3.61,0,0,1-.07-.48,4.6,4.6,0,0,0-3-4.12c-4.53-1.92-2.56-8.25-2.47-8.51l.15-.48,1.9.61-.15.47c0,.05-1.47,4.82,1.37,6.08a6.9,6.9,0,0,1,4.19,6.29v.47l-.48,0-1.33.05Z" style="fill:#1b1b1b"/><path d="M70.22,251.44l1,.3c0,.06-1.63,5.24,1.64,6.69a6.39,6.39,0,0,1,3.89,5.83l-.91,0c-.19-.84,0-3.54-3.39-5-4.11-1.75-2.27-7.65-2.19-7.9m-.64-1.26-.31.95c-.84,2.6-1.2,7.46,2.75,9.13A4.06,4.06,0,0,1,74.74,264c0,.21.05.39.08.52l.18.82.84,0,.91,0,1,0v-1a7.43,7.43,0,0,0-4.48-6.76c-2.43-1.08-1.11-5.42-1.1-5.47l.29-.94-.94-.31-1-.3-1-.31Z" style="fill:#f5f5f5"/><path d="M180.71,167.32h-.29l-.5-.05.22-2,.52,0a1.05,1.05,0,0,0,.3,0v-.41l.5,0H183v.5a1.86,1.86,0,0,1-.6,1.41A2.53,2.53,0,0,1,180.71,167.32Z" style="fill:#1b1b1b"/><path d="M182.46,165.36a1.35,1.35,0,0,1-.44,1,2,2,0,0,1-1.31.42h-.24l.11-1h.12a1.07,1.07,0,0,0,.66-.17.35.35,0,0,0,.1-.29h1m1-1h-3v.44l-.75-.08-.12,1-.11,1-.12,1,1,.11h.35a3,3,0,0,0,2-.68,2.34,2.34,0,0,0,.77-1.78v-1Z" style="fill:#f5f5f5"/><path d="M20,66.38a1.52,1.52,0,0,1-.15.69,1.54,1.54,0,0,1-.41.53,1.77,1.77,0,0,1-.6.34,1.85,1.85,0,0,1-.7.13,2.45,2.45,0,0,1-.78-.12,1.73,1.73,0,0,1-.63-.33,1.87,1.87,0,0,1-.45-.55,2.08,2.08,0,0,1-.2-.77l.58-.08a1.39,1.39,0,0,0,.46,1,1.56,1.56,0,0,0,1,.33,1.27,1.27,0,0,0,.48-.08,1.33,1.33,0,0,0,.68-.61,1.24,1.24,0,0,0,.09-.48,1.21,1.21,0,0,0-.11-.57.83.83,0,0,0-.32-.35,1.33,1.33,0,0,0-.52-.16,5.08,5.08,0,0,0-.72,0v-.51a3.68,3.68,0,0,0,.58,0,2,2,0,0,0,.5-.17,1,1,0,0,0,.35-.31.84.84,0,0,0,.14-.49,1,1,0,0,0-.32-.78,1.22,1.22,0,0,0-.83-.29,1.49,1.49,0,0,0-1,.34A1.3,1.3,0,0,0,16.72,64h-.57a2,2,0,0,1,.15-.8,1.71,1.71,0,0,1,.4-.6,2,2,0,0,1,.63-.38,2.55,2.55,0,0,1,.81-.12,2.15,2.15,0,0,1,.68.1,1.89,1.89,0,0,1,.56.31,1.45,1.45,0,0,1,.38.5,1.57,1.57,0,0,1,.13.67,1.2,1.2,0,0,1-.29.81,1.36,1.36,0,0,1-.83.4,1.44,1.44,0,0,1,.53.18,1,1,0,0,1,.39.33,1.56,1.56,0,0,1,.31.94Z" style="fill:#f5f5f5"/><path d="M25,66a1.89,1.89,0,0,1-.16.79,1.93,1.93,0,0,1-1.09,1.08,2.31,2.31,0,0,1-1.61,0,1.81,1.81,0,0,1-.62-.35,1.68,1.68,0,0,1-.42-.56,2,2,0,0,1-.2-.76l.58-.1a2,2,0,0,0,.14.56,1.55,1.55,0,0,0,.3.44,1.33,1.33,0,0,0,.44.28,1.38,1.38,0,0,0,.55.1,1.52,1.52,0,0,0,.62-.11,1.33,1.33,0,0,0,.47-.33,1.5,1.5,0,0,0,.3-.48,1.63,1.63,0,0,0,.1-.59,1.68,1.68,0,0,0-.1-.6A1.31,1.31,0,0,0,24,65a1.27,1.27,0,0,0-.46-.32,1.48,1.48,0,0,0-.61-.12,1.61,1.61,0,0,0-1.23.58h-.6V62.23h3.59v.52h-3v1.79a1.73,1.73,0,0,1,.6-.39A1.64,1.64,0,0,1,23,64a2.38,2.38,0,0,1,.81.14,2.1,2.1,0,0,1,.64.4,2,2,0,0,1,.41.64A2.34,2.34,0,0,1,25,66Z" style="fill:#f5f5f5"/><path d="M25.64,65.11A5.13,5.13,0,0,1,25.76,64a3,3,0,0,1,.38-.94,2.07,2.07,0,0,1,.68-.67,2.27,2.27,0,0,1,2,0,2,2,0,0,1,.68.67,2.62,2.62,0,0,1,.38.94,5.24,5.24,0,0,1,0,2.23,2.72,2.72,0,0,1-.37.94,2,2,0,0,1-3.41,0,2.72,2.72,0,0,1-.37-.94A5.1,5.1,0,0,1,25.64,65.11Zm.6,0a4.56,4.56,0,0,0,.15,1.19l2.69-2.83a1.67,1.67,0,0,0-.52-.61,1.27,1.27,0,0,0-.72-.21,1.31,1.31,0,0,0-1.19.66A3.38,3.38,0,0,0,26.24,65.11Zm.36,1.68a1.36,1.36,0,0,0,1.24.77A1.33,1.33,0,0,0,29,66.91a3.43,3.43,0,0,0,.41-1.8,3.86,3.86,0,0,0,0-.6,4.86,4.86,0,0,0-.1-.55Z" style="fill:#f5f5f5"/><path d="M34.79,68h-.6V65a1,1,0,0,0-.12-.55.39.39,0,0,0-.36-.19.54.54,0,0,0-.5.36,2.69,2.69,0,0,0-.16,1V68h-.61V65a1,1,0,0,0-.12-.55.41.41,0,0,0-.36-.19.46.46,0,0,0-.35.13.78.78,0,0,0-.19.32,1.89,1.89,0,0,0-.1.44c0,.16,0,.32,0,.48V68h-.6v-4.1h.6v.59a.8.8,0,0,1,.82-.69.83.83,0,0,1,.82.61,1,1,0,0,1,1.61-.3,1.53,1.53,0,0,1,.24.94Z" style="fill:#f5f5f5"/><path d="M38.88,68H36.43v-.52h.92v-4.7h-.92v-.52H38v5.22h.92Z" style="fill:#f5f5f5"/></g></g></svg>