<?xml version="1.0" encoding="UTF-8"?>
<svg id="o" data-name="Layer 15" xmlns="http://www.w3.org/2000/svg" viewBox="0 0 329.27 260.68">
  <path d="M159.29,29.88l120.48,69.81c11.53,6.68,18.63,19,18.63,32.33v35.1c0,4.41-2.35,8.49-6.16,10.7l-104.6,60.67c-4.07,2.36-9.09,2.36-13.16,0l-120.74-69.91c-11.66-6.75-18.84-19.2-18.84-32.67v-35.48c0-4.14,2.21-7.96,5.79-10.03l104.79-60.52c4.27-2.47,9.54-2.46,13.81,0Z" style="fill: #151515; stroke-width: 0px;"/>
  <g id="p" data-name="Layer 16">
    <g>
      <g>
        <path d="M181.06,241.25c-2.49,0-4.93-.66-7.08-1.9l-.17-.1c-.06-.02-.11-.04-.15-.06l-1.34-.71.04-.07-119.12-68.97c-11.93-6.91-19.34-19.76-19.34-33.54v-35.48c0-4.48,2.41-8.66,6.29-10.9l104.79-60.52c2.24-1.29,4.8-1.98,7.4-1.98s5.17.69,7.41,1.99l120.48,69.81c11.8,6.84,19.13,19.56,19.13,33.2v35.1c0,4.75-2.55,9.18-6.66,11.56l-104.6,60.67c-2.14,1.24-4.59,1.9-7.09,1.9ZM44.59,92.01c-1.51,0-3.01.41-4.35,1.18-2.72,1.57-4.34,4.38-4.34,7.52v35.2c0,13.07,7.03,25.26,18.34,31.81l120.53,69.79c1.3.65,2.7.99,4.16.99,1.67,0,3.31-.46,4.76-1.34,2.8-1.69,4.48-4.66,4.48-7.93v-36.51c0-9.38-5.88-22.74-16.78-29.02L48.93,93.19c-1.33-.77-2.83-1.17-4.33-1.17ZM44.59,90.01c1.85,0,3.69.5,5.33,1.44l122.48,70.51c11.55,6.65,17.78,20.81,17.78,30.75v36.51c0,3.73-1.79,7.13-4.82,9.24.62-.23,1.22-.52,1.79-.85l104.6-60.67c3.49-2.03,5.66-5.79,5.66-9.83v-35.1c0-12.93-6.95-24.98-18.13-31.46L158.79,30.75c-1.94-1.12-4.16-1.72-6.41-1.72s-4.46.59-6.4,1.71l-102.78,59.36c.46-.06.92-.09,1.39-.09Z" style="fill: #151515; stroke-width: 0px;"/>
        <path d="M152.38,27.53c2.48,0,4.95.64,7.16,1.92l120.48,69.81c11.65,6.75,18.88,19.3,18.88,32.76v35.1c0,4.57-2.46,8.84-6.41,11.13l-104.6,60.67c-2.11,1.22-4.47,1.83-6.84,1.83s-4.72-.61-6.83-1.83l-.17-.1c-.05-.03-.11-.05-.16-.07l-.9-.47.03-.05-119.53-69.21c-11.77-6.82-19.09-19.5-19.09-33.11v-35.48c0-4.3,2.32-8.31,6.04-10.47l104.79-60.52c2.2-1.27,4.68-1.91,7.15-1.91M39.31,92.02c.06-.04.12-.09.19-.12,1.6-.92,3.35-1.38,5.1-1.38,1.75,0,3.49.46,5.08,1.37l122.48,70.51c11.38,6.55,17.53,20.51,17.53,30.32v36.51c0,3.8-1.94,7.25-5.2,9.21-1.06.64-2.2,1.06-3.37,1.31,2.18,0,4.35-.57,6.29-1.7l104.6-60.67c3.65-2.12,5.91-6.05,5.91-10.26v-35.1c0-13.11-7.04-25.33-18.38-31.9L159.04,30.32c-2.05-1.19-4.36-1.79-6.66-1.79s-4.6.59-6.65,1.78l-104.79,60.52c-.59.34-1.13.75-1.64,1.19M178.94,239c1.73,0,3.46-.47,5.02-1.41,2.96-1.78,4.72-4.91,4.72-8.36v-36.51c0-9.52-5.97-23.08-17.03-29.45L49.17,92.75c-1.44-.83-3.01-1.24-4.58-1.24-1.58,0-3.16.42-4.6,1.25-2.87,1.66-4.59,4.63-4.59,7.95v35.2c0,13.25,7.12,25.6,18.59,32.24l120.53,69.79c1.4.71,2.9,1.06,4.41,1.06M152.38,26.53c-2.69,0-5.33.71-7.65,2.05l-104.78,60.52c-4.04,2.33-6.54,6.67-6.54,11.33v35.48c0,13.96,7.5,26.98,19.59,33.97l118.7,68.73-.05.09.89.47.9.47c.05.03.11.05.17.08l.14.08c2.22,1.28,4.75,1.96,7.33,1.96s5.12-.68,7.34-1.97l104.6-60.67c4.26-2.47,6.91-7.07,6.91-11.99v-35.1c0-13.82-7.43-26.7-19.38-33.63L160.05,28.59c-2.32-1.34-4.97-2.06-7.66-2.06h0ZM45.2,89.53l101.03-58.36c1.86-1.07,3.98-1.64,6.15-1.64s4.3.57,6.16,1.65l120.48,69.81c11.03,6.39,17.89,18.28,17.89,31.03v35.1c0,3.86-2.07,7.46-5.41,9.4l-103.24,59.89c1.56-2.02,2.42-4.51,2.42-7.17v-36.51c0-10.09-6.32-24.44-18.03-31.18L50.17,91.02c-1.53-.88-3.24-1.39-4.97-1.49h0ZM175.01,237.06l-120.51-69.77c-11.16-6.46-18.09-18.48-18.09-31.38v-35.2c0-2.96,1.53-5.61,4.09-7.09,1.26-.73,2.68-1.11,4.1-1.11,1.41,0,2.83.38,4.08,1.11l122.48,70.51c10.73,6.18,16.53,19.34,16.53,28.58v36.51c0,3.1-1.58,5.9-4.24,7.5-1.37.83-2.93,1.27-4.5,1.27-1.36,0-2.69-.32-3.93-.94h0Z" style="fill: #f5f5f5; stroke-width: 0px;"/>
      </g>
      <g>
        <path d="M176.1,226.18c-.58,0-1.18-.18-1.79-.53-.92-.53-1.78-1.43-2.41-2.52-.67-1.16-1.01-2.4-.98-3.5.04-1.19.52-2.1,1.34-2.58.37-.22.79-.33,1.24-.33,1.48,0,3.13,1.2,4.2,3.05.63,1.09.98,2.28.98,3.34,0,1.26-.48,2.24-1.34,2.74-.38.22-.8.33-1.25.33ZM173.5,218.73c-.1,0-.18.02-.24.05-.16.09-.35.42-.34,1.05,0,.71.26,1.52.71,2.29.46.79,1.05,1.43,1.68,1.79.29.17.57.26.79.26.1,0,.18-.02.25-.06.17-.1.34-.41.34-1,0-.72-.25-1.55-.71-2.35-.78-1.34-1.83-2.04-2.48-2.04Z" style="fill: #151515; stroke-width: 0px;"/>
        <path d="M173.51,217.22c1.27,0,2.76,1.06,3.77,2.8.59,1.02.91,2.12.91,3.09,0,1.08-.39,1.89-1.09,2.3-.3.17-.64.26-1,.26-.48,0-1.01-.16-1.54-.46-.84-.49-1.63-1.32-2.22-2.34-1.29-2.23-1.21-4.6.18-5.4.3-.18.64-.26.99-.26M176.1,224.67c.19,0,.36-.04.5-.12.38-.22.59-.74.59-1.43,0-.8-.28-1.73-.78-2.6-.86-1.5-2.08-2.29-2.91-2.29-.18,0-.35.04-.49.12-.76.44-.87,2.2.19,4.03.5.87,1.16,1.57,1.86,1.97.37.22.73.33,1.04.33M173.51,216.22c-.54,0-1.04.13-1.49.39-.98.57-1.54,1.63-1.59,3-.04,1.19.33,2.53,1.05,3.77.67,1.17,1.59,2.13,2.59,2.7.69.4,1.37.6,2.04.6.54,0,1.05-.13,1.5-.39,1.03-.59,1.59-1.72,1.59-3.17,0-1.15-.37-2.43-1.05-3.59-1.16-2-2.98-3.3-4.63-3.3h0ZM176.09,223.67c-.06,0-.24-.02-.53-.19-.54-.31-1.08-.9-1.49-1.61-.75-1.31-.7-2.36-.55-2.64.45.03,1.34.61,2.03,1.79.41.71.64,1.47.65,2.1,0,.31-.06.48-.1.56h0Z" style="fill: #f5f5f5; stroke-width: 0px;"/>
      </g>
      <g>
        <path d="M153.66,221.02c-2.52,0-5.23-.83-8.05-2.45-4.66-2.69-9.03-7.3-12.31-12.98-3.28-5.68-5.08-11.77-5.09-17.15,0-5.58,1.93-9.77,5.44-11.79l22.75-13.12.47-.28.08-.04.6-.34.02.04c1.28-.59,2.68-.9,4.19-.9,2.52,0,5.22.82,8.02,2.44,4.66,2.69,9.03,7.3,12.31,12.98,3.28,5.68,5.09,11.77,5.09,17.15,0,5.22-1.7,9.24-4.82,11.39v.02s-.42.27-.42.27l-23.08,13.3c-.1.07-.2.14-.31.21-1.45.84-3.09,1.26-4.89,1.26ZM138.55,177.38c-1.44,0-2.75.33-3.89.99-2.86,1.65-4.44,5.23-4.44,10.06,0,5.04,1.72,10.77,4.82,16.15,3.11,5.38,7.22,9.73,11.58,12.25,2.51,1.45,4.88,2.18,7.04,2.18,1.44,0,2.75-.33,3.89-.99,2.86-1.65,4.44-5.23,4.44-10.07,0-5.04-1.72-10.77-4.82-16.15-3.11-5.38-7.22-9.73-11.58-12.25-2.47-1.43-4.91-2.18-7.04-2.18ZM139.73,175.45c2.18.21,4.49,1.01,6.86,2.39,4.66,2.7,9.03,7.31,12.31,12.98,3.28,5.68,5.09,11.77,5.09,17.15,0,2.7-.46,5.11-1.35,7.11l18.14-10.46c2.84-1.66,4.4-5.23,4.4-10.04,0-5.04-1.71-10.77-4.82-16.15-3.11-5.38-7.22-9.73-11.58-12.25-2.5-1.45-4.87-2.18-7.03-2.18-1.41,0-2.69.32-3.81.95l-18.21,10.5Z" style="fill: #151515; stroke-width: 0px;"/>
        <path d="M161.76,162.5c2.39,0,5.03.79,7.77,2.37,4.58,2.65,8.89,7.2,12.12,12.8,3.23,5.6,5.02,11.6,5.02,16.9,0,5.29-1.77,9.26-5,11.23h0s-.18.12-.18.12c0,0-.01.01-.02.01h0s-22.66,13.06-22.66,13.06v-.02c-.19.12-.34.25-.52.35-1.38.8-2.95,1.2-4.64,1.2-2.4,0-5.05-.8-7.8-2.39-4.58-2.65-8.89-7.2-12.12-12.8-3.23-5.6-5.02-11.6-5.02-16.9,0-5.39,1.84-9.43,5.19-11.36l23.19-13.38h0s.07-.04.1-.06l.16-.1h0c1.32-.69,2.8-1.04,4.39-1.04M137.93,175.91c.21-.01.41-.02.62-.02,2.4,0,5.05.79,7.79,2.38,4.58,2.65,8.89,7.2,12.12,12.8,3.24,5.6,5.02,11.6,5.02,16.9,0,3.42-.74,6.28-2.13,8.42l19.67-11.34c3-1.76,4.65-5.47,4.65-10.47,0-5.12-1.74-10.95-4.89-16.4-3.15-5.45-7.32-9.87-11.76-12.43-2.58-1.49-5.06-2.25-7.28-2.25-1.48,0-2.85.33-4.05,1.01l-19.76,11.4M153.66,219.52c1.52,0,2.91-.35,4.14-1.06,3.02-1.75,4.69-5.47,4.69-10.5,0-5.12-1.74-10.95-4.89-16.4-3.15-5.45-7.32-9.87-11.76-12.43-2.58-1.5-5.07-2.25-7.29-2.25-1.52,0-2.91.35-4.14,1.06-3.02,1.75-4.69,5.47-4.69,10.5,0,5.12,1.74,10.95,4.89,16.4,3.15,5.45,7.32,9.87,11.76,12.43,2.59,1.5,5.07,2.25,7.29,2.25M161.76,161.5v1s0-1,0-1c-1.42,0-2.76.26-3.99.76l-.04-.07-.87.48-.13.07s-.09.04-.14.07l-.87.5h0s-22.32,12.89-22.32,12.89c-3.67,2.12-5.69,6.46-5.69,12.23,0,5.47,1.83,11.65,5.16,17.4,3.32,5.75,7.75,10.43,12.49,13.16,2.89,1.67,5.68,2.52,8.3,2.52,1.88,0,3.61-.45,5.14-1.33.13-.07.25-.16.37-.25l.16-.08,22.01-12.68.66-.38.06-.03h.02s.13-.08.13-.08l.87-.5-.05-.08c3.02-2.3,4.67-6.35,4.67-11.53,0-5.47-1.83-11.65-5.16-17.4-3.32-5.75-7.75-10.43-12.49-13.16-2.88-1.66-5.66-2.51-8.27-2.51h0ZM141.22,175.17l16.98-9.8c1.04-.58,2.23-.87,3.55-.87,2.05,0,4.39.73,6.78,2.11,4.28,2.48,8.33,6.76,11.39,12.07,3.06,5.3,4.75,10.95,4.75,15.9,0,4.63-1.47,8.04-4.15,9.61l-16.91,9.75c.58-1.76.88-3.78.88-5.97,0-5.47-1.84-11.65-5.16-17.4-3.32-5.75-7.75-10.42-12.49-13.16-1.93-1.11-3.81-1.86-5.63-2.23h0ZM153.66,218.52c-2.05,0-4.4-.73-6.79-2.12-4.28-2.48-8.33-6.76-11.39-12.07-3.06-5.3-4.75-10.95-4.75-15.9,0-4.65,1.48-8.07,4.19-9.63,1.06-.61,2.29-.93,3.64-.93,2.05,0,4.4.73,6.79,2.12,4.28,2.48,8.33,6.76,11.39,12.07,3.06,5.3,4.75,10.95,4.75,15.9,0,4.65-1.48,8.07-4.19,9.63-1.06.61-2.29.93-3.64.93h0Z" style="fill: #f5f5f5; stroke-width: 0px;"/>
      </g>
      <g>
        <path d="M180.09,159.04c-.35,0-.68-.19-.86-.49-.13-.23-.17-.5-.1-.76.07-.26.23-.47.46-.61l91.49-53.55c.16-.09.33-.14.5-.14.35,0,.68.19.86.49.14.23.17.5.11.76-.07.26-.23.47-.46.61l-91.49,53.55c-.16.09-.33.14-.51.14Z" style="fill: #151515; stroke-width: 0px;"/>
        <path d="M271.58,103.99c.17,0,.34.09.43.25.14.24.06.54-.18.68l-91.49,53.55c-.08.05-.17.07-.25.07-.17,0-.34-.09-.43-.25-.14-.24-.06-.54.18-.68l91.49-53.55c.08-.05.17-.07.25-.07M271.58,102.99c-.26,0-.52.07-.75.2l-91.5,53.56c-.35.2-.59.53-.69.92-.1.39-.05.79.16,1.14.27.46.76.74,1.29.74.26,0,.52-.07.75-.2l91.5-53.56c.35-.2.59-.53.69-.92.1-.39.05-.79-.16-1.14-.27-.46-.77-.74-1.3-.74h0Z" style="fill: #f5f5f5; stroke-width: 0px;"/>
      </g>
      <g>
        <path d="M198.65,190.75c-.35,0-.68-.19-.86-.49-.13-.23-.17-.5-.1-.76.07-.26.23-.47.46-.61l91.49-53.55c.16-.09.33-.14.51-.14.35,0,.68.19.86.49.13.23.17.5.1.76-.07.26-.23.47-.46.61l-91.49,53.55c-.16.09-.33.14-.51.14Z" style="fill: #151515; stroke-width: 0px;"/>
        <path d="M290.15,135.7c.17,0,.34.09.43.25.14.24.06.54-.18.68l-91.49,53.55c-.08.05-.17.07-.25.07-.17,0-.34-.09-.43-.25-.14-.24-.06-.54.18-.68l91.49-53.55c.08-.05.17-.07.25-.07M290.15,134.7c-.26,0-.52.07-.75.2l-91.5,53.56c-.35.2-.59.53-.69.92-.1.39-.05.79.16,1.14.27.46.76.74,1.29.74.26,0,.52-.07.75-.2l91.5-53.56c.35-.2.59-.53.69-.92.1-.39.05-.79-.16-1.14-.27-.46-.76-.74-1.29-.74h0Z" style="fill: #f5f5f5; stroke-width: 0px;"/>
      </g>
    </g>
  </g>
</svg>