<svg xmlns="http://www.w3.org/2000/svg" viewBox="0 0 238.561 238.561"><g id="Ebene_2" data-name="Ebene 2"><g id="Echo"><circle cx="119.28" cy="119.28" r="117.28" style="fill:#151515"/><path d="M119.28,238.061A118.781,118.781,0,1,1,238.061,119.28,118.915,118.915,0,0,1,119.28,238.061Zm0-235.561A116.781,116.781,0,1,0,236.061,119.28,116.912,116.912,0,0,0,119.28,2.5Z" style="fill:#151515"/><path d="M119.28,1A118.281,118.281,0,1,1,1,119.28,118.415,118.415,0,0,1,119.28,1m0,235.561A117.281,117.281,0,1,0,2,119.28,117.414,117.414,0,0,0,119.28,236.561M119.28,0A119.281,119.281,0,1,0,238.561,119.28,119.415,119.415,0,0,0,119.28,0Zm0,235.561A116.281,116.281,0,1,1,235.561,119.28,116.413,116.413,0,0,1,119.28,235.561Z" style="fill:#f5f5f5"/><path d="M113.349,115.022V121.8h1.883v.84H110.47v-.84h1.895v-6.776H110.47v-.84h4.762v.84Z" style="fill:#f5f5f5"/><path d="M119.769,114.063a3.6,3.6,0,0,1,3.825,3.381h-.983a2.63,2.63,0,0,0-2.842-2.542c-1.967,0-2.975,1.463-2.975,3.5s1.008,3.514,2.975,3.514a2.64,2.64,0,0,0,2.842-2.555h.983a3.606,3.606,0,0,1-3.825,3.395c-2.483,0-3.958-1.883-3.958-4.354S117.286,114.063,119.769,114.063Z" style="fill:#f5f5f5"/><path d="M131.935,114.182v8.456h-.972v-3.754h-4.989v3.754h-.984v-8.456h.984v3.862h4.989v-3.862Z" style="fill:#f5f5f5"/><line x1="133.561" y1="103.664" x2="135.348" y2="101.916" style="fill:none;stroke:#f5f5f5;stroke-miterlimit:10"/><line x1="138.796" y1="98.543" x2="199.136" y2="39.516" style="fill:none;stroke:#f5f5f5;stroke-miterlimit:10;stroke-dasharray:4.823432445526123,4.823432445526123"/><polyline points="200.86 37.83 202.647 36.082 201.103 38.048" style="fill:none;stroke:#f5f5f5;stroke-miterlimit:10"/><line x1="198.039" y1="41.952" x2="150.544" y2="102.453" style="fill:none;stroke:#f5f5f5;stroke-miterlimit:10;stroke-dasharray:4.962408542633057,4.962408542633057"/><line x1="149.012" y1="104.405" x2="147.468" y2="106.372" style="fill:none;stroke:#f5f5f5;stroke-miterlimit:10"/><polygon points="146.643 103.224 148.002 105.691 150.721 106.426 144.888 109.658 146.643 103.224" style="fill:#f5f5f5"/></g></g></svg>