<svg xmlns="http://www.w3.org/2000/svg" viewBox="0 0 231.82 336.02"><g id="Ebene_2" data-name="Ebene 2"><g id="Edicion_Black"><g id="Ebene_25" data-name="Ebene 25"><polygon points="50.5 159.85 50.5 212.62 153.55 212.62 153.55 235.95 47.51 235.95 47.51 136.52 153.55 136.52 153.55 159.85 50.5 159.85" style="fill:#151515"/><rect x="2.92" y="136.52" width="29.7" height="99.44" style="fill:#151515"/><rect x="167.79" y="136.52" width="61.52" height="99.44" style="fill:#151515"/><polygon points="78.15 101.15 78.15 124.48 2.63 124.48 2.63 2.5 78.02 2.5 78.02 25.84 5.62 25.84 5.62 48.83 40.69 48.83 40.69 72.17 5.62 72.17 5.62 101.15 78.15 101.15" style="fill:#151515"/><path d="M92.51,2.5v122H229.08V2.5Zm29.7,3.11c31.06,2.13,55.23,27.3,55.23,57.75S153.27,119,122.21,121.12ZM226.08,121.49H136.69c25.47-7.77,43.75-30.95,43.75-58.13,0-26.89-17.91-49.87-43-57.87h88.61Z" style="fill:#151515"/><path d="M2.5,248.67v84.85H25.84v-.07H54.69v.07H78V248.67Zm52.19,81.78H25.84V251.66H54.69Z" style="fill:#151515"/><polygon points="205.74 329.01 205.74 248.59 229.07 248.59 229.07 333.45 205.74 333.45 116.02 253.81 116.02 333.52 92.68 333.52 92.68 248.66 116.02 248.66 205.74 329.01" style="fill:#151515"/></g><path d="M153.55,136.52v23.33H50.5v52.77H153.55V236h-106V136.52h106m2-2h-110V238h110V210.62H52.5V161.85H155.55V134.52Z" style="fill:#f5f5f5;stroke:#151515;stroke-miterlimit:10"/><path d="M32.62,136.52V236H2.92V136.52h29.7m2-2H.92V238h33.7V134.52Z" style="fill:#f5f5f5;stroke:#151515;stroke-miterlimit:10"/><path d="M229.32,136.52V236H167.79V136.52h61.53m2-2H165.79V238h65.53V134.52Z" style="fill:#f5f5f5;stroke:#151515;stroke-miterlimit:10"/><path d="M78,2.5V25.84H5.62v23H40.69V72.17H5.62v29H78.15v23.33H2.63V2.5H78m2-2H.63v126H80.15V99.15H7.62v-25H42.69V46.83H7.62v-19H80V.5Z" style="fill:#f5f5f5;stroke:#151515;stroke-miterlimit:10"/><path d="M229.08,2.5v122H92.51V2.5H229.08m-92.39,119h89.39V5.49H137.47c25.06,8,43,31,43,57.87,0,27.18-18.28,50.36-43.75,58.13m-14.48-.37c31.06-2.13,55.23-27.3,55.23-57.76S153.27,7.74,122.21,5.61V121.12M231.08.5H90.51v126H231.08V.5Zm-83.43,7h76.43v112H147.16a63.74,63.74,0,0,0,22.54-18.57,61.46,61.46,0,0,0,12.74-37.56A62.57,62.57,0,0,0,147.65,7.49ZM124.21,118.94V7.79c28.89,3,51.23,27.06,51.23,55.57s-22.34,52.54-51.23,55.58Z" style="fill:#f5f5f5;stroke:#151515;stroke-miterlimit:10"/><path d="M78,248.67v84.85H54.69v-.07H25.84v.07H2.5V248.67H78M25.84,330.45H54.69V251.66H25.84v78.79M80,246.67H.5v88.85H27.84v-.07H52.69v.07H80V246.67Zm-52.18,7H52.69v74.79H27.84V253.66Z" style="fill:#f5f5f5;stroke:#151515;stroke-miterlimit:10"/><path d="M229.07,248.59v84.86H205.74L116,253.81v79.71H92.68V248.67H116L205.74,329V248.59h23.33m2-2H203.74v78l-86.39-77.36-.57-.51H90.68v88.85H118V258.26l86.39,76.68.57.51h26.09V246.59Z" style="fill:#f5f5f5;stroke:#151515;stroke-miterlimit:10"/><path d="M204,16.66h-3V14.48c2.17-.05,3.11-.68,3.66-2.1h2.25v13H204Z" style="fill:#151515"/><path d="M213.3,21.22a4.46,4.46,0,0,1-4.44-4.55c0-2.74,2.12-4.5,5.1-4.5,3.7,0,5.25,2.82,5.25,6.43,0,3.82-1.62,7-5.59,7-3,0-4.47-1.69-4.62-3.76h2.91a1.67,1.67,0,0,0,1.85,1.6c1.4,0,2.39-1,2.36-3.21A4,4,0,0,1,213.3,21.22Zm-1.4-4.55a2.09,2.09,0,1,0,4.16,0,2.09,2.09,0,1,0-4.16,0Z" style="fill:#151515"/></g></g></svg>