<svg xmlns="http://www.w3.org/2000/svg" viewBox="0 0 257.64 181.42"><g id="Ebene_2" data-name="Ebene 2"><g id="SurfaceScanner"><polygon points="56.03 15.74 98.71 1.5 158.92 1.5 201.78 15.74 256.11 41.22 256.14 154.98 181.41 179.92 76.24 179.79 1.6 154.98 1.5 41.32 56.03 15.74" style="fill:none;stroke:#151515;stroke-linecap:round;stroke-linejoin:round;stroke-width:3px"/><path d="M181.41,25.65V16.41H155.78V26.92H154.2V16.41H103.49V26.92h-1.58V16.41H76.29v9.24H86.8v3.53H76.29V84.06H86.8v3.52H76.29v7.66H181.41V87.58H170.89V84.06h10.52V29.18H170.89V25.65ZM128.85,52.12A13.14,13.14,0,1,1,142,39,13.14,13.14,0,0,1,128.85,52.12Z" style="fill:#151515;stroke:#f5f5f5;stroke-linejoin:round"/><polygon points="181.56 16.41 159.05 1.5 98.71 1.5 76.2 16.41 181.56 16.41" style="fill:#151515;stroke:#f5f5f5;stroke-linejoin:round"/><polygon points="1.71 41.22 56.03 15.74 98.71 1.5 76.2 16.41 1.71 41.22" style="fill:#151515;stroke:#f5f5f5;stroke-linejoin:round"/><polygon points="256.11 41.22 201.78 15.74 159.11 1.5 181.62 16.41 256.11 41.22" style="fill:#151515;stroke:#f5f5f5;stroke-linejoin:round"/><path d="M188.88,28.3v3.53l-7.47-2.5V84.21l7.47,2.49v3.53l-7.47-2.5V95.4l74.72,24.94v-7.67l-7.48-2.49v-3.53l7.48,2.5V54.27l-7.49-2.5V48.25l7.49,2.49V41.5l-18.23-6.08V45.93l-1.12-.37V35.05l-36-12V33.53l-1.12-.38V22.64l-18.21-6.1v9.27Zm20.43,20.18c0-7.25,4.19-11.74,9.36-10s9.37,9,9.37,16.26-4.2,11.74-9.37,10S209.31,55.74,209.31,48.48Z" style="fill:none;stroke:#151515;stroke-linejoin:round;stroke-width:3px"/><path d="M76.24,25.81V16.54L58,22.64V33.15l-1.12.38V23l-36,12V45.56l-1.12.37V35.42L1.5,41.5v9.24L9,48.25v3.52L1.5,54.27v54.88L9,106.65v3.53l-7.48,2.49v7.67L76.24,95.4V87.73l-7.48,2.5V86.7l7.48-2.49V29.33l-7.48,2.5V28.3ZM39,64.74c-5.17,1.72-9.37-2.76-9.37-10S33.8,40.18,39,38.46s9.36,2.77,9.36,10S44.14,63,39,64.74Z" style="fill:none;stroke:#151515;stroke-linejoin:round;stroke-width:3px"/><path d="M188.88,28.3v3.53l-7.47-2.5V84.21l7.47,2.49v3.53l-7.47-2.5V95.4l74.72,24.94v-7.67l-7.48-2.49v-3.53l7.48,2.5V54.27l-7.49-2.5V48.25l7.49,2.49V41.5l-18.23-6.08V45.93l-1.12-.37V35.05l-36-12V33.53l-1.12-.38V22.64l-18.21-6.1v9.27Zm20.43,20.18c0-7.25,4.19-11.74,9.36-10s9.37,9,9.37,16.26-4.2,11.74-9.37,10S209.31,55.74,209.31,48.48Z" style="fill:#151515;stroke:#f5f5f5;stroke-linejoin:round"/><path d="M76.24,25.81V16.54L58,22.64V33.15l-1.12.38V23l-36,12V45.56l-1.12.37V35.42L1.5,41.5v9.24L9,48.25v3.52L1.5,54.27v54.88L9,106.65v3.53l-7.48,2.49v7.67L76.24,95.4V87.73l-7.48,2.5V86.7l7.48-2.49V29.33l-7.48,2.5V28.3ZM39,64.74c-5.17,1.72-9.37-2.76-9.37-10S33.8,40.18,39,38.46s9.36,2.77,9.36,10S44.14,63,39,64.74Z" style="fill:#151515;stroke:#f5f5f5;stroke-linejoin:round"/><path d="M201.7,25.27V15.74L181.5,9l-7.44,2.47-2.23-.74,7.44-2.48L159.05,1.5h-28.6V5H127.3V1.5H98.71L78.49,8.23l7.43,2.48-2.23.74L76.26,9,56,15.71v9.52H66.55v1.05H56v9.53l20.22,6.73,7.43-2.47,2.23.74-7.43,2.47L98.71,50H127.3v-3.5h3.15V50l28.63,0,20.22-6.71-7.47-2.46,2.23-.74,7.41,2.45,20.25-6.71,0-9.49-10.5,0V25.23Zm-72.82,7.49c-7.82,0-14.64-1.42-18.26-3.53H97.79v-.52h11.27v-5.9H97.79v-.53h12.83c3.62-2.1,10.44-3.52,18.26-3.52,11.61,0,21,3.13,21,7S140.49,32.76,128.88,32.76Z" style="fill:none;stroke:#151515;stroke-linejoin:round;stroke-width:3px"/><path d="M201.7,25.27V15.74L181.5,9l-7.44,2.47-2.23-.74,7.44-2.48L159.05,1.5h-28.6V5H127.3V1.5H98.71L78.49,8.23l7.43,2.48-2.23.74L76.26,9,56,15.71v9.52H66.55v1.05H56v9.53l20.22,6.73,7.43-2.47,2.23.74-7.43,2.47L98.71,50H127.3v-3.5h3.15V50l28.63,0,20.22-6.71-7.47-2.46,2.23-.74,7.41,2.45,20.25-6.71,0-9.49-10.5,0V25.23Zm-72.82,7.49c-7.82,0-14.64-1.42-18.26-3.53H97.79v-.52h11.27v-5.9H97.79v-.53h12.83c3.62-2.1,10.44-3.52,18.26-3.52,11.61,0,21,3.13,21,7S140.49,32.76,128.88,32.76Z" style="fill:#151515;stroke:#f5f5f5;stroke-linejoin:round"/><polyline points="76.26 110.29 86.78 110.3 86.75 112.06" style="fill:#151515;stroke:#f5f5f5;stroke-linejoin:round"/><polygon points="130.44 55.22 127.29 55.22 127.29 49.98 98.66 49.98 76.29 101.08 181.41 101.08 159.08 49.98 130.44 49.98 130.44 55.22" style="fill:#151515;stroke:#f5f5f5;stroke-linejoin:round"/><polygon points="209.03 28.64 209.03 29.69 201.71 26.32 201.72 35.81 256.14 76.13 256.14 41.15 201.71 15.74 201.71 25.27 209.03 28.64" style="fill:#151515;stroke:#f5f5f5;stroke-linejoin:round"/><path d="M181.41,110.33v-9.25H155.78v10.51H154.2V101.08H103.49v10.51h-1.58V101.08H76.29v9.25H86.8v3.52H76.29v54.88H86.8v3.52H76.29v7.67H181.41v-7.67H170.89v-3.52h10.52V113.85H170.89v-3.52Zm-52.56,26.46A13.14,13.14,0,1,1,142,123.65,13.14,13.14,0,0,1,128.85,136.79Z" style="fill:none;stroke:#151515;stroke-linejoin:round;stroke-width:3px"/><path d="M181.41,110.33v-9.25H155.78v10.51H154.2V101.08H103.49v10.51h-1.58V101.08H76.29v9.25H86.8v3.52H76.29v54.88H86.8v3.52H76.29v7.67H181.41v-7.67H170.89v-3.52h10.52V113.85H170.89v-3.52Zm-52.56,26.46A13.14,13.14,0,1,1,142,123.65,13.14,13.14,0,0,1,128.85,136.79Z" style="fill:#151515;stroke:#f5f5f5;stroke-linejoin:round"/><path d="M256.14,85.39V76.13l-18.22,6.09V92.73l-1.12.38V82.6l-36,12v10.51l-1.13.37V95l-18.22,6.08v9.25l7.48-2.5v3.53l-7.48,2.49v54.88l7.48-2.5v3.53l-7.48,2.49v7.67L256.14,155v-7.66l-7.47,2.49v-3.53l7.47-2.49V88.91l-7.47,2.5V87.88Zm-37.27,38.93c-5.17,1.72-9.36-2.76-9.36-10S213.7,99.76,218.87,98s9.37,2.77,9.37,10S224,122.6,218.87,124.32Z" style="fill:none;stroke:#151515;stroke-linejoin:round;stroke-width:3px"/><path d="M256.14,85.39V76.13l-18.22,6.09V92.73l-1.12.38V82.6l-36,12v10.51l-1.13.37V95l-18.22,6.08v9.25l7.48-2.5v3.53l-7.48,2.49v54.88l7.48-2.5v3.53l-7.48,2.49v7.67L256.14,155v-7.66l-7.47,2.49v-3.53l7.47-2.49V88.91l-7.47,2.5V87.88Zm-37.27,38.93c-5.17,1.72-9.36-2.76-9.36-10S213.7,99.76,218.87,98s9.37,2.77,9.37,10S224,122.6,218.87,124.32Z" style="fill:#151515;stroke:#f5f5f5;stroke-linejoin:round"/><polygon points="201.72 35.81 181.47 42.52 184.53 47.44 182.58 48.41 179.3 43.27 159.08 49.98 181.41 101.08 256.14 76.13 201.72 35.81" style="fill:#151515;stroke:#f5f5f5;stroke-linejoin:round"/><polygon points="48.7 28.63 48.7 29.68 56.03 26.31 56.02 35.8 1.6 76.12 1.6 41.15 56.03 15.74 56.03 25.26 48.7 28.63" style="fill:#151515;stroke:#f5f5f5;stroke-linejoin:round"/><path d="M9.07,87.88V91.4L1.6,88.91v54.88l7.47,2.49v3.53l-7.47-2.5V155l74.73,24.93v-7.66l-7.48-2.5v-3.52l7.48,2.49V113.85l-7.48-2.5v-3.52l7.48,2.49v-9.24L58.11,95v10.51L57,105.13V94.62l-36-12V93.1l-1.12-.37V82.22L1.6,76.12v9.26ZM29.5,108.06c0-7.26,4.2-11.74,9.37-10s9.36,9,9.36,16.26S44,126,38.87,124.32,29.5,115.32,29.5,108.06Z" style="fill:none;stroke:#151515;stroke-linejoin:round;stroke-width:3px"/><path d="M9.07,87.88V91.4L1.6,88.91v54.88l7.47,2.49v3.53l-7.47-2.5V155l74.73,24.93v-7.66l-7.48-2.5v-3.52l7.48,2.49V113.85l-7.48-2.5v-3.52l7.48,2.49v-9.24L58.11,95v10.51L57,105.13V94.62l-36-12V93.1l-1.12-.37V82.22L1.6,76.12v9.26ZM29.5,108.06c0-7.26,4.2-11.74,9.37-10s9.36,9,9.36,16.26S44,126,38.87,124.32,29.5,115.32,29.5,108.06Z" style="fill:#151515;stroke:#f5f5f5;stroke-linejoin:round"/><polygon points="56.02 35.8 76.27 42.52 73.21 47.44 75.16 48.4 78.44 43.27 98.66 49.98 76.33 101.08 1.6 76.12 56.02 35.8" style="fill:#151515;stroke:#f5f5f5;stroke-linejoin:round"/></g></g></svg>