<svg xmlns="http://www.w3.org/2000/svg" viewBox="0 0 329.27 260.68"><g id="Ebene_2" data-name="Ebene 2"><g id="Migros_Black"><path d="M141.83,2C129,8.09,123.63,20.94,107.61,33S86.64,45.47,55,70.59s-53.4,36.2-52.22,45.89S9,131.32,15.83,137.85s21.56,15.82,24.72,14,71-54,71-54l1.78,1.19s-9.29,24.13-18.39,53.4-.2,48.46,41.14,31.65a706.87,706.87,0,0,1,73.58-25.52S186.53,181,166.35,205.3,159,231.6,159,231.6s1.86.08,4.81,2.54c4.09,3.42,5,10,9.2,11.44,7.28,2.47,10.43,7.3,15.16,8.54,9.2,2.41,9.63,7.19,16.95.46s67.61-92.4,67.61-92.4,17.94-23.61,24.53-28.88c21.84-17.48,34.37-24.27,27.82-40.09-.79-1.91-8.57-.46-8.57-.46l-3.63-5.16-8.37,1.27-10.26-4.35-3.65-4.09-7.91-1.32-11.87-7.91-15.69-.07s-68.18,24.4-77,26-8.57-.53-6.86-7,14.24-51.56,13-56.18-5.71-10.31-11.2-12-5-6.06-9.5-8.17-2.64-5.15-8-6.33a25.18,25.18,0,0,1-9.89-4.22C143.21,1.63,141.83,2,141.83,2Z" style="fill:#151515"/><path d="M197.66,260.18l-.45,0a5.08,5.08,0,0,1-4.23-3.1c-.88-1.76-1.36-2-1.72-2a3.55,3.55,0,0,0-1.06.29,7.24,7.24,0,0,1-2.65.57,7.61,7.61,0,0,1-4.23-1.48,19.48,19.48,0,0,1-4.7-4.22c-1.18-1.4-1.77-2.1-4.91-2.62-6.3-1-8.55-7.91-9.63-11.2l-.15-.48c-.36-1.06-.48-1.06-.92-1.06l-.6,0c-.31,0-.66,0-1,0a11.1,11.1,0,0,1-2.73-.34,7.7,7.7,0,0,1-5.23-4.07c-1.54-3.18-1-7.65,1.57-13.31,4.37-9.63,38-44.73,47.63-54.65a464,464,0,0,0-44.35,15c-6.06,2.42-11.61,4.84-16.51,7-12.52,5.44-22.38,9.73-30.72,9.73a21,21,0,0,1-5.4-.66c-7.47-2-12.68-5.8-15.5-11.39-3.61-7.16-3-16.9,1.83-28.95,9.38-23.45,16.37-44,18.94-51.79C94,114.75,45.78,152.66,42.12,153.58a13.41,13.41,0,0,1-3.24.42c-2.81,0-5-1.07-5.9-2.94-.66-1.33-1.86-1.45-5.1-1.45-3.62,0-4.88-2.52-5.9-4.55-.32-.64-.72-.77-1.84-1a10.91,10.91,0,0,1-3.82-1.58c-3.5-2.34-5.44-6.7-5.44-8.83A9.59,9.59,0,0,0,9.6,133c-2.1-.88-5.28-2.2-6.69-7.13-.23-.81-.48-1.62-.72-2.41-1.8-5.84-3.65-11.85,3.11-16.67,4.07-2.92,17.76-13.72,31-24.17,9.57-7.56,18.56-14.66,24-18.81,9.28-7.15,26.58-20.16,38.09-27.07,7.52-4.51,14.42-11.85,20.51-18.32,1.87-2,3.64-3.87,5.3-5.53C127.9,9.17,137.19.5,142.93.5a5,5,0,0,1,1.19.14c3.75.94,4.52,2.82,5.2,4.49.14.35.28.69.45,1h0A4.28,4.28,0,0,0,151,5.79,8,8,0,0,1,154,5a4.27,4.27,0,0,1,2.43.75,7.62,7.62,0,0,1,3.34,4.87c1.43.13,4.15.59,5.81,2.25s2.62,4.83,3,6.53a17.22,17.22,0,0,1,2.79-.26,6.58,6.58,0,0,1,2.9.54c1.63.82,2.64,3,3.17,4.51a9.89,9.89,0,0,1,3.46-.89,2.23,2.23,0,0,1,1.63.57c1.2,1.2,3.24,5.38,4.27,9.47.63,2.54-3.17,18.89-12.72,54.65-.67,2.49-1.13,4.22-1.28,4.83l-.21.81a7.28,7.28,0,0,0-.43,2.64h0a1.13,1.13,0,0,0,.59.09,16,16,0,0,0,3.8-.74c3.48-1,11.85-3.79,20.71-6.74s18.75-6.25,25.27-8.26c4.11-1.26,8.26-2.74,12.28-4.17,8.91-3.18,17.3-6.17,24.93-6.87,1.44-.13,2.81-.19,4.09-.19,8.51,0,13.08,2.86,17.7,7.48a7.48,7.48,0,0,0,5.9,2.46l1.36,0a4.14,4.14,0,0,1,3.87,1.71c.39.59.7,1.13,1,1.64,1.16,2,1.69,2.92,5.18,2.92,3.95,0,5.27,1.77,6,2.72l.18.23c.33-.11,1-.4,1.42-.57a15.73,15.73,0,0,1,5.4-1.58,3.25,3.25,0,0,1,1.46.3,5.86,5.86,0,0,1,2.45,3,4.18,4.18,0,0,0,1.55,2,2,2,0,0,0,.95.19,11.25,11.25,0,0,0,1.92-.25,15.13,15.13,0,0,1,2.79-.33,6.83,6.83,0,0,1,2.21.34c1.29.43,2.35,1.93,3,4.24a18.58,18.58,0,0,1-3.54,16.36c-2.75,3.2-7.09,6.78-12.12,10.92-6.25,5.15-13.34,11-19.91,18.11C282,152.78,234,219.16,218.19,241l-4.51,6.22c-6.08,8.37-11.77,13-16,13Zm-6.36-7.11c1.35,0,2.39.92,3.47,3.09a3.14,3.14,0,0,0,2.6,2l.31,0c3.47,0,8.85-4.55,14.39-12.16l4.47-6.18c15.81-21.85,63.91-88.32,74.6-99.91a196.44,196.44,0,0,1,20.11-18.29c4.95-4.08,9.23-7.61,11.87-10.68a16.73,16.73,0,0,0,3.13-14.53c-.49-1.76-1.2-2.71-1.69-2.87a4.94,4.94,0,0,0-1.58-.24,13.45,13.45,0,0,0-2.43.3,13.92,13.92,0,0,1-2.28.28,4,4,0,0,1-1.84-.4A5.88,5.88,0,0,1,314,90.56a4.21,4.21,0,0,0-1.55-2.06,1.48,1.48,0,0,0-.58-.1,15.38,15.38,0,0,0-4.59,1.42,7.37,7.37,0,0,1-2.38.79,2,2,0,0,1-1.62-1.09c-.61-.8-1.43-1.91-4.38-1.91-4.64,0-5.64-1.73-6.91-3.92-.27-.47-.56-1-.93-1.53s-.91-.82-2.24-.82l-1.27,0a9.56,9.56,0,0,1-7.36-3c-4.26-4.26-8.48-6.9-16.34-6.9-1.2,0-2.5.06-3.86.19-7.38.67-15.65,3.62-24.41,6.74-4.05,1.44-8.23,2.93-12.39,4.22-6.49,2-16.44,5.31-25.22,8.24s-17.28,5.76-20.8,6.76a17.09,17.09,0,0,1-4.33.82,2.72,2.72,0,0,1-2-.66c-1-1-.62-2.58-.11-4.57l.21-.8c.15-.61.61-2.35,1.28-4.86,9-33.52,13.24-51.57,12.72-53.65-1-3.83-2.87-7.65-3.73-8.52H181a10.72,10.72,0,0,0-3.67,1.18l-.55.28a.46.46,0,0,1-.23,0,.52.52,0,0,1-.21,0,.5.5,0,0,1-.27-.33l-.15-.61c-.29-1.16-1.28-3.75-2.48-4.35a4.67,4.67,0,0,0-2-.34,15.56,15.56,0,0,0-3.33.42l-.51.13h-.12a.53.53,0,0,1-.27-.08.52.52,0,0,1-.22-.32l-.1-.51s-1-4.74-2.73-6.49-5.26-1.71-5.3-1.71h-.49a.5.5,0,0,1-.5-.5v-.5a5.4,5.4,0,0,0-2.56-4.17A2.37,2.37,0,0,0,154,7a6.3,6.3,0,0,0-2.26.61,5.48,5.48,0,0,1-2,.55A1.88,1.88,0,0,1,148,7.06c-.19-.4-.36-.79-.51-1.18-.64-1.57-1.07-2.61-3.84-3.3a3.06,3.06,0,0,0-.7-.08c-3.41,0-10.06,4.53-17.35,11.82-1.63,1.63-3.37,3.48-5.22,5.45-6.21,6.6-13.21,14-21,18.7C88,45.32,70.74,58.29,61.49,65.4,56.1,69.55,47.11,76.64,37.6,84.15c-13.29,10.49-27,21.33-31.14,24.27-5.58,4-4.23,8.37-2.37,14.44.25.81.51,1.64.75,2.47,1.14,4,3.57,5,5.53,5.84,1.23.51,2.51,1.05,2.51,2.44,0,1.64,1.81,5.34,4.55,7.17a9.22,9.22,0,0,0,3.18,1.3,4.06,4.06,0,0,1,3.16,2.08c1,2,1.72,3.45,4.11,3.45,3.14,0,5.61,0,6.89,2.55.58,1.17,2.09,1.83,4.14,1.83a11,11,0,0,0,2.72-.35c2.77-.69,44.79-33.38,70.63-53.82l1.28-1a.51.51,0,0,1,.31-.11.52.52,0,0,1,.29.09.49.49,0,0,1,.19.56l-.5,1.56c-.08.26-8.19,25.49-20,55.07-4.6,11.5-5.24,20.68-1.9,27.31,2.54,5.06,7.33,8.54,14.22,10.35a18.78,18.78,0,0,0,4.89.6c7.93,0,17.61-4.21,29.87-9.54,4.94-2.15,10.51-4.58,16.62-7a458.29,458.29,0,0,1,48.11-16l1.75-.45.12,0a.5.5,0,0,1,.36.85l-1.26,1.29c-.45.46-45,46-49.8,56.71-2.32,5.1-2.85,9-1.59,11.62a5.72,5.72,0,0,0,3.92,3,9.1,9.1,0,0,0,2.24.28c.34,0,.65,0,.94,0l.66,0c1.27,0,2.19.41,2.87,2.43l.15.48c1,3.15,3,9,8.06,9.85,3.86.65,4.81,1.77,6.11,3.31a18,18,0,0,0,4.28,3.85,5.74,5.74,0,0,0,3.11,1.14h0a5.58,5.58,0,0,0,2-.45A5.35,5.35,0,0,1,191.3,253.07Z" style="fill:#151515"/><path d="M142.93,1a4.62,4.62,0,0,1,1.07.12c3.5.88,4.19,2.57,4.86,4.2.14.35.28.71.46,1.07a.47.47,0,0,0,.45.3,4.52,4.52,0,0,0,1.4-.44A7.7,7.7,0,0,1,154,5.53a3.82,3.82,0,0,1,2.15.66,7.07,7.07,0,0,1,3.19,4.93c1.15.07,4.16.41,5.89,2.14s2.71,5.41,3,6.75a17.11,17.11,0,0,1,3.16-.34,6.23,6.23,0,0,1,2.68.49c1.71.86,2.72,3.54,3.09,4.74A10.59,10.59,0,0,1,181,23.83a1.73,1.73,0,0,1,1.28.43c1.15,1.14,3.16,5.34,4.13,9.23.78,3.11-6.39,30.71-12.72,54.4l-1.28,4.84-.2.81c-.38,1.46-.71,2.72-.31,3.12a1.4,1.4,0,0,0,1,.23,16.26,16.26,0,0,0,3.94-.76c3.49-1,11.86-3.79,20.73-6.75s18.75-6.25,25.26-8.25c4.12-1.27,8.29-2.75,12.32-4.19,8.85-3.16,17.22-6.14,24.78-6.83,1.45-.13,2.79-.19,4.05-.19,8.25,0,12.77,2.76,17.35,7.34a7.92,7.92,0,0,0,6.25,2.6h1.36a3.64,3.64,0,0,1,3.45,1.49c.38.57.69,1.11,1,1.61,1.18,2,1.83,3.17,5.61,3.17s4.88,1.58,5.58,2.52a2.18,2.18,0,0,0,.42.48,10.32,10.32,0,0,0,1.79-.67,15.49,15.49,0,0,1,5.19-1.53,2.75,2.75,0,0,1,1.24.25,5.36,5.36,0,0,1,2.22,2.73,4.59,4.59,0,0,0,1.78,2.27,2.61,2.61,0,0,0,1.17.24,12.18,12.18,0,0,0,2-.26,15.47,15.47,0,0,1,2.7-.32,6.38,6.38,0,0,1,2,.31c1.11.37,2.08,1.79,2.67,3.9a18,18,0,0,1-3.44,15.9c-2.72,3.18-7.05,6.74-12.06,10.87a193.79,193.79,0,0,0-20,18.15c-10.63,11.52-58.69,77.94-74.48,99.77-2,2.82-3.58,4.95-4.48,6.18-5.93,8.16-11.59,12.78-15.62,12.78l-.41,0a4.6,4.6,0,0,1-3.82-2.83c-.88-1.76-1.48-2.27-2.17-2.27a4,4,0,0,0-1.23.32,6.89,6.89,0,0,1-2.48.54,7.11,7.11,0,0,1-4-1.39,19.43,19.43,0,0,1-4.6-4.13c-1.22-1.45-1.89-2.24-5.21-2.8-6-1-8.18-7.66-9.23-10.86l-.16-.47c-.39-1.19-.64-1.41-1.39-1.41l-.63,0c-.3,0-.64,0-1,0a10.1,10.1,0,0,1-2.6-.33,7.15,7.15,0,0,1-4.91-3.8c-1.47-3-.94-7.37,1.57-12.89,4.57-10,41.31-48.11,48.82-55.83a463.39,463.39,0,0,0-46.18,15.5c-6.08,2.44-11.64,4.86-16.55,7-12.55,5.46-22.25,9.68-30.49,9.68a20.4,20.4,0,0,1-5.27-.65c-7.32-1.92-12.43-5.67-15.18-11.13-3.54-7-2.92-16.63,1.84-28.54C102.57,128,109.94,106,111.89,100c-9.62,7.59-66.1,52.12-69.89,53.06a12.69,12.69,0,0,1-3.12.41c-2.58,0-4.59-.94-5.45-2.67s-2.39-1.72-5.55-1.72-4.45-2.27-5.45-4.28c-.44-.87-1.09-1-2.17-1.3A10.51,10.51,0,0,1,16.6,142c-3.24-2.16-5.22-6.36-5.22-8.42,0-.38-.58-.63-1.59-1.06a9.58,9.58,0,0,1-6.39-6.8c-.24-.83-.49-1.65-.74-2.45-1.82-5.9-3.54-11.48,2.93-16.1C9.68,104.28,23.4,93.45,36.67,83c9.52-7.52,18.52-14.63,23.9-18.77,9.28-7.13,26.56-20.14,38.05-27,7.58-4.55,14.5-11.91,20.61-18.41,1.87-2,3.64-3.86,5.29-5.51,3-3,12.72-12.26,18.41-12.26m-104,151.5a12,12,0,0,0,2.85-.38c3.19-.8,52.19-39.18,70.81-53.9l1.28-1-.5,1.56c-.08.25-8.14,25.36-20,55-4.65,11.64-5.29,21-1.88,27.72,2.62,5.2,7.51,8.77,14.54,10.62a19.78,19.78,0,0,0,5,.61c8,0,17.64-4.18,30.09-9.59,4.91-2.14,10.49-4.57,16.58-7a459.38,459.38,0,0,1,48.06-16l1.74-.46L206.23,161c-.45.46-45,46.06-49.9,56.86-2.38,5.23-2.91,9.28-1.58,12a6.17,6.17,0,0,0,4.25,3.27,9.36,9.36,0,0,0,2.36.3c.35,0,.67,0,1,0l.63,0c1.09,0,1.8.32,2.39,2.09l.16.48c1.06,3.25,3.05,9.29,8.45,10.19,3.68.61,4.53,1.61,5.81,3.14a18.11,18.11,0,0,0,4.38,3.93,5.2,5.2,0,0,0,5.54.75,4.89,4.89,0,0,1,1.61-.37c1,0,1.94.64,3,2.82a3.66,3.66,0,0,0,3,2.27l.35,0c3.64,0,9.13-4.58,14.79-12.36l4.48-6.19c15.8-21.84,63.88-88.3,74.56-99.86,6.64-7.2,13.77-13.07,20.06-18.25,5-4.09,9.26-7.63,11.93-10.74a17.24,17.24,0,0,0,3.23-15c-.48-1.73-1.25-3-2-3.22a5.52,5.52,0,0,0-1.74-.26,14.22,14.22,0,0,0-2.52.3,12.51,12.51,0,0,1-2.19.28,3.6,3.6,0,0,1-1.62-.34,5.41,5.41,0,0,1-2.22-2.73,4.59,4.59,0,0,0-1.78-2.27,1.78,1.78,0,0,0-.8-.16,15.5,15.5,0,0,0-4.79,1.46,7.48,7.48,0,0,1-2.18.75c-.56,0-.88-.43-1.22-.88-.63-.85-1.58-2.12-4.78-2.12-4.35,0-5.24-1.54-6.48-3.67-.27-.48-.57-1-.94-1.55-.6-.91-1.36-1-2.66-1h-1.27a9,9,0,0,1-7-2.9c-4.39-4.39-8.74-7-16.69-7-1.21,0-2.51.06-3.91.19-7.44.67-15.74,3.63-24.53,6.77-4,1.44-8.22,2.93-12.37,4.21-6.49,2-16.45,5.31-25.24,8.24S180.52,96.09,177,97.09a16.49,16.49,0,0,1-4.19.8,2.23,2.23,0,0,1-1.66-.52c-.82-.8-.47-2.18,0-4.09l.2-.79c.16-.62.62-2.35,1.29-4.86C176,75.11,186.21,37,185.39,33.73c-1-4-3-7.86-3.87-8.77a.75.75,0,0,0-.53-.14,11,11,0,0,0-3.89,1.24l-.56.27-.15-.6c-.26-1.05-1.27-3.94-2.74-4.67a5,5,0,0,0-2.2-.4,17.06,17.06,0,0,0-3.45.43l-.51.13-.1-.51c0-.05-1-4.88-2.87-6.75s-5.61-1.85-5.64-1.85h-.5v-.5A5.9,5.9,0,0,0,155.6,7a2.84,2.84,0,0,0-1.61-.5,6.65,6.65,0,0,0-2.44.65,5.37,5.37,0,0,1-1.82.51,1.37,1.37,0,0,1-1.3-.86c-.19-.38-.35-.76-.5-1.14-.65-1.59-1.16-2.84-4.17-3.6a3.7,3.7,0,0,0-.83-.09c-3.56,0-10.19,4.45-17.7,12-1.65,1.65-3.41,3.52-5.27,5.5C113.81,26,106.83,33.42,99.13,38,87.69,44.91,70.44,57.88,61.18,65,55.8,69.14,46.81,76.24,37.29,83.76,24,94.24,10.28,105.08,6.17,108c-5.88,4.19-4.41,9-2.55,15,.25.8.5,1.63.74,2.46,1.21,4.23,3.87,5.35,5.82,6.16,1.18.49,2.2.92,2.2,2,0,1.79,1.86,5.64,4.77,7.58a9.45,9.45,0,0,0,3.35,1.37c1.17.29,2.18.54,2.82,1.83,1,2,1.87,3.72,4.56,3.72,3.08,0,5.31,0,6.44,2.28.69,1.36,2.4,2.11,4.59,2.11m74.94-55.3h0m93.63,62.47h0M142.93,0C137,0,127.59,8.78,123.82,12.55c-1.67,1.66-3.43,3.54-5.3,5.53-6.08,6.46-13,13.77-20.42,18.24-11.53,6.92-28.84,20-38.14,27.1-5.4,4.16-14.39,11.25-23.91,18.77l0,0C22.76,92.68,9.07,103.48,5,106.39c-7,5-5.14,11.22-3.29,17.21.24.8.49,1.61.72,2.42a10.62,10.62,0,0,0,7,7.45c.28.12.74.31,1,.45.17,2.62,2.44,6.8,5.65,8.94a11.5,11.5,0,0,0,4,1.64c1.09.27,1.3.35,1.51.78,1,2,2.42,4.83,6.35,4.83,3.25,0,4.14.14,4.65,1.17,1,2.05,3.34,3.22,6.35,3.22a13.92,13.92,0,0,0,3.36-.44c3.59-.89,46.58-34.56,67.65-51.18-2.91,8.72-9.61,28.19-18.41,50.17-4.87,12.19-5.48,22.07-1.81,29.36,2.89,5.73,8.21,9.65,15.83,11.65a21.46,21.46,0,0,0,5.52.68c8.45,0,18.35-4.3,30.89-9.76,4.92-2.14,10.47-4.56,16.52-7C176,171,192.8,165.87,201,163.54c-11,11.42-42.21,44.14-46.44,53.45-2.64,5.8-3.16,10.42-1.57,13.73a8.14,8.14,0,0,0,5.57,4.34,11.6,11.6,0,0,0,2.85.36c.4,0,.76,0,1.08,0l.57,0h.15a3.51,3.51,0,0,1,.29.72l.16.47c1.11,3.39,3.42,10.44,10,11.54,3,.49,3.44,1.07,4.61,2.45a20.35,20.35,0,0,0,4.8,4.32,8.15,8.15,0,0,0,4.51,1.56,7.84,7.84,0,0,0,2.83-.6,3.47,3.47,0,0,1,.88-.26c.13,0,.5.17,1.27,1.72a5.64,5.64,0,0,0,4.63,3.38l.5,0c4.41,0,10.25-4.69,16.43-13.19.9-1.23,2.44-3.36,4.48-6.18,15.8-21.85,63.82-88.21,74.41-99.68,6.55-7.1,13.62-12.92,19.86-18.06,5-4.16,9.4-7.75,12.18-11a19.11,19.11,0,0,0,3.64-16.83c-.68-2.46-1.86-4.09-3.31-4.57a7.27,7.27,0,0,0-2.37-.37,15.57,15.57,0,0,0-2.87.34,11.94,11.94,0,0,1-1.84.24,1.57,1.57,0,0,1-.72-.13,4,4,0,0,1-1.33-1.83,6.29,6.29,0,0,0-2.67-3.17,3.76,3.76,0,0,0-1.69-.36,16,16,0,0,0-5.58,1.61c-.29.13-.73.31-1.07.44-.77-1-2.22-2.85-6.33-2.85-3.2,0-3.62-.73-4.74-2.67-.29-.5-.62-1.06-1-1.66a4.58,4.58,0,0,0-4.28-1.94h-1.36a7,7,0,0,1-5.54-2.31c-4.72-4.71-9.38-7.63-18.06-7.63-1.29,0-2.68.06-4.14.2-7.69.69-16.11,3.7-25,6.88-4,1.44-8.19,2.92-12.28,4.18-6.53,2-16.5,5.33-25.29,8.26s-17.21,5.73-20.69,6.73a14.66,14.66,0,0,1-3.66.72h-.13a16.74,16.74,0,0,1,.45-2.1l.21-.81c.16-.64.68-2.58,1.28-4.83,9.7-36.33,13.39-52.23,12.72-54.9-.94-3.77-3-8.3-4.39-9.7a2.7,2.7,0,0,0-2-.72,9.31,9.31,0,0,0-3.16.74c-.61-1.55-1.64-3.5-3.24-4.3a7,7,0,0,0-3.13-.6,17.61,17.61,0,0,0-2.42.19c-.5-1.81-1.49-4.73-3.06-6.31a10,10,0,0,0-5.76-2.36,8.22,8.22,0,0,0-3.47-4.83A4.83,4.83,0,0,0,154,4.53a8.27,8.27,0,0,0-3.2.8l-.74.28L149.79,5c-.7-1.71-1.55-3.81-5.55-4.81A5.53,5.53,0,0,0,142.93,0Zm-104,151.5c-1.82,0-3.2-.59-3.69-1.56-1.42-2.83-4.16-2.83-7.34-2.83-2,0-2.59-1-3.66-3.17a4.51,4.51,0,0,0-3.49-2.35,8.53,8.53,0,0,1-3-1.23c-2.69-1.79-4.33-5.39-4.33-6.75,0-1.73-1.56-2.38-2.82-2.9-1.85-.78-4.17-1.75-5.24-5.51-.24-.84-.5-1.67-.75-2.49-1.87-6.08-3.11-10.1,2.18-13.88,4.13-3,17.87-13.79,31.15-24.28C47.42,77,56.4,70,61.79,65.8,71,58.69,88.24,45.74,99.65,38.9c7.82-4.7,14.84-12.17,21-18.76l0,0c1.85-2,3.59-3.81,5.22-5.44C134.54,6.06,140.36,3,142.93,3a2.58,2.58,0,0,1,.58.06c2.52.63,2.89,1.53,3.49,3,.15.37.32.79.53,1.21a2.39,2.39,0,0,0,2.2,1.41,6,6,0,0,0,2.19-.58A5.84,5.84,0,0,1,154,7.53a1.81,1.81,0,0,1,1,.33,4.9,4.9,0,0,1,2.34,3.76v.5a1,1,0,0,0,1,1h.49c.95,0,3.68.3,4.95,1.56s2.33,5,2.59,6.24l.1.51a1,1,0,0,0,.44.65,1,1,0,0,0,.54.15,1,1,0,0,0,.24,0l.51-.13a16.2,16.2,0,0,1,3.21-.4,4.09,4.09,0,0,1,1.76.29c.89.45,1.86,2.63,2.21,4l.15.61a1,1,0,0,0,.56.66,1,1,0,0,0,.41.09,1,1,0,0,0,.45-.1l.56-.28a10.38,10.38,0,0,1,3.4-1.13A26.77,26.77,0,0,1,184.42,34c.33,1.44-1.62,11.88-12.71,53.4-.66,2.47-1.13,4.24-1.29,4.88l-.2.79c-.54,2.06-1,3.84.24,5a3.21,3.21,0,0,0,2.36.8,17.32,17.32,0,0,0,4.47-.84c3.52-1,11.9-3.8,20.77-6.75S216.83,85,223.32,83c4.17-1.28,8.35-2.77,12.4-4.22,8.73-3.11,17-6,24.29-6.72,1.35-.12,2.64-.18,3.82-.18,7.69,0,11.82,2.58,16,6.75a10,10,0,0,0,7.71,3.19h1.27c1.23,0,1.52.15,1.83.6s.63,1,.91,1.5c1.29,2.24,2.41,4.17,7.34,4.17,2.7,0,3.41,1,4,1.71a2.52,2.52,0,0,0,2,1.29,7.36,7.36,0,0,0,2.57-.83,15.1,15.1,0,0,1,4.4-1.38.89.89,0,0,1,.36,0,3.93,3.93,0,0,1,1.32,1.83A6.26,6.26,0,0,0,316.21,94a4.5,4.5,0,0,0,2.06.45,13.58,13.58,0,0,0,2.37-.29,13.6,13.6,0,0,1,2.34-.29,4.51,4.51,0,0,1,1.42.21c.23.08.89.82,1.37,2.54a16.2,16.2,0,0,1-3,14.06c-2.61,3-6.87,6.56-11.81,10.62a197.27,197.27,0,0,0-20.16,18.34c-10.71,11.61-58.82,78.11-74.63,100l-.29.39-4.19,5.79c-5.36,7.37-10.72,12-14,12h-.27a2.71,2.71,0,0,1-2.19-1.73c-.79-1.57-1.94-3.37-3.92-3.37a5.7,5.7,0,0,0-2,.43,5,5,0,0,1-1.8.42,5.2,5.2,0,0,1-2.83-1.06,17.81,17.81,0,0,1-4.18-3.75c-1.32-1.57-2.36-2.81-6.41-3.48-4.8-.8-6.66-6.47-7.66-9.51l-.16-.48c-.66-2-1.62-2.78-3.34-2.78l-.69,0c-.28,0-.58,0-.91,0a8.17,8.17,0,0,1-2.12-.27,5.23,5.23,0,0,1-3.59-2.73c-1.2-2.47-.66-6.24,1.59-11.19,4.81-10.58,49.26-56.11,49.71-56.57l1.23-1.26a1,1,0,0,0,.32-.73,1,1,0,0,0-1-1h-.11l-.18,0-1.72.45a457.27,457.27,0,0,0-48.18,16.06c-6.11,2.44-11.69,4.87-16.61,7-12.22,5.32-21.87,9.51-29.69,9.51a18.64,18.64,0,0,1-4.76-.58c-6.75-1.77-11.43-5.17-13.91-10.1-3.27-6.49-2.62-15.54,1.92-26.89,11.84-29.59,20-54.85,20-55.1l.48-1.5a.94.94,0,0,0,.07-.37,1,1,0,0,0-1-1h0a1,1,0,0,0-.6.22l-1.28,1c-27.5,21.75-67.53,52.8-70.45,53.73a10.91,10.91,0,0,1-2.59.34Zm74.94-53.3h0Z" style="fill:#f5f5f5"/><path d="M11.38,134.07a.38.38,0,0,1-.37-.32,81.62,81.62,0,0,1-1-11.14c0-4.76,1.05-5.57,4.53-8.27.55-.42,1.14-.88,1.8-1.41,1.51-1.21,4.24-3,8-5.4C33,101.94,47.54,92.6,62.31,80,74,69.89,85.56,62.76,95.72,56.47c7.91-4.89,14.74-9.12,19.57-13.51C126.05,33.18,148,6.32,148.2,6.06a.35.35,0,0,1,.25-.14h0a.43.43,0,0,1,.24.08l.77.63a.4.4,0,0,1,.14.26.33.33,0,0,1-.09.27c-.22.27-22.24,27.24-33.08,37.1-5,4.49-11.84,8.76-19.83,13.7C86.53,64.22,75.07,71.31,63.45,81.27,48.59,94,34,103.38,25.32,109c-3.76,2.42-6.46,4.15-7.9,5.3-.63.51-1.2,1-1.72,1.35l-.09.08c-3.34,2.59-3.86,3-3.86,6.89a78.92,78.92,0,0,0,1,10.85.38.38,0,0,1-.31.44l-1,.16Z" style="fill:#151515"/><path d="M148.49,6.29l.77.64c-.22.27-22.15,27.14-33,37.05-4.92,4.47-11.8,8.73-19.76,13.66C86.32,63.91,74.85,71,63.2,81c-14.84,12.72-29.39,22.09-38.09,27.68-3.75,2.42-6.47,4.17-7.92,5.33l-1.81,1.42c-3.39,2.63-4,3.11-4,7.19a80,80,0,0,0,1,10.92l-1,.16a81.39,81.39,0,0,1-1-11.08c0-4.57.93-5.3,4.38-8,.54-.41,1.13-.88,1.8-1.41,1.5-1.2,4.23-3,8-5.39,8.68-5.58,23.19-14.93,38-27.6,11.71-10,23.21-17.16,33.37-23.44,7.92-4.91,14.77-9.14,19.62-13.55,10.85-9.86,32.73-36.68,33-36.95m0-.75h-.08a.73.73,0,0,0-.5.27c-.22.27-22.13,27.1-32.87,36.86-4.81,4.37-11.62,8.59-19.52,13.47-10.17,6.3-21.71,13.44-33.46,23.51-14.75,12.64-29.24,22-37.89,27.54-3.81,2.45-6.55,4.22-8.07,5.43L14.31,114c-3.5,2.72-4.68,3.64-4.68,8.58a83.06,83.06,0,0,0,1,11.21.76.76,0,0,0,.74.62h.13l1-.16a.75.75,0,0,0,.62-.86,79.48,79.48,0,0,1-1-10.8c0-3.72.35-4,3.71-6.6l.09-.07c.52-.4,1.09-.84,1.73-1.35,1.42-1.14,4.11-2.87,7.84-5.27,8.73-5.62,23.31-15,38.19-27.76,11.6-10,23-17,33.15-23.28,8-5,14.91-9.23,19.88-13.75,10.87-9.88,32.9-36.86,33.13-37.13a.77.77,0,0,0-.11-1.06L149,5.71a.73.73,0,0,0-.47-.17Z" style="fill:#f5f5f5"/><path d="M22.4,145.13a.37.37,0,0,1-.18,0,.33.33,0,0,1-.18-.22c-.31-1-3-10.26-3-14.25,0-4.74,3.84-9,12.45-13.77S60.93,97,89.36,75.91c14.82-11,21.85-14.47,27-17A42.86,42.86,0,0,0,128.29,51C139.1,41.13,158,11.44,158.14,11.14a.35.35,0,0,1,.23-.16h.08a.46.46,0,0,1,.2,0l.85.54a.38.38,0,0,1,.16.23.37.37,0,0,1,0,.29c-.2.3-19.25,30.26-30.15,40.18a45,45,0,0,1-12.35,8.21c-5.07,2.51-12,6-26.72,16.84-28.48,21.1-49.26,36.16-58.1,41.06-8,4.44-11.55,8.22-11.55,12.24,0,3.8,2.93,13.65,3,13.75a.36.36,0,0,1-.25.46l-1,.29Z" style="fill:#151515"/><path d="M158.45,11.34l.85.54c-.19.3-19.16,30.17-30.09,40.1A44.11,44.11,0,0,1,117,60.13c-5.08,2.52-12,6-26.78,16.88-28.46,21.09-49.23,36.14-58,41-8.12,4.51-11.74,8.38-11.74,12.56,0,3.88,2.95,13.76,3,13.86l-1,.28c-.13-.41-3-10.11-3-14.14,0-4.58,3.78-8.73,12.25-13.44,8.78-4.87,29.51-19.9,58-41,14.8-11,21.81-14.44,26.93-17a43.39,43.39,0,0,0,12-8c10.82-9.84,29.72-39.6,29.91-39.9m0-.75-.16,0a.75.75,0,0,0-.47.33c-.19.3-19,30-29.78,39.74a42.43,42.43,0,0,1-11.86,7.88c-5.15,2.55-12.19,6-27.05,17C60.72,96.65,40,111.66,31.27,116.52s-12.64,9.2-12.64,14.09c0,4,2.74,13.31,3.05,14.36a.75.75,0,0,0,.36.44.74.74,0,0,0,.36.09.76.76,0,0,0,.21,0l1-.29a.74.74,0,0,0,.5-.93c0-.1-2.94-9.9-2.94-13.64s3.5-7.54,11.35-11.91c8.86-4.92,29.65-20,58.14-41.09,14.68-10.87,21.61-14.3,26.67-16.8a45.51,45.51,0,0,0,12.43-8.28c10.94-10,30-39.95,30.21-40.25a.76.76,0,0,0,.1-.57.75.75,0,0,0-.33-.47l-.84-.53a.78.78,0,0,0-.41-.12Z" style="fill:#f5f5f5"/><path d="M31.56,149.43a.38.38,0,0,1-.37-.29c0-.09-2.18-9.41-3.18-15.39-1.12-6.73,4.7-10,11.43-13.9,3.1-1.77,7.63-5.36,12.87-9.53,6.53-5.17,13.92-11,21.11-15.46,13-8,29-18,40-25S141.22,49,150.2,38.06A165.76,165.76,0,0,1,167.3,20a.38.38,0,0,1,.25-.09.35.35,0,0,1,.28.13l.66.75a.38.38,0,0,1,0,.53,167.5,167.5,0,0,0-16.9,17.89c-9.08,11.11-26.05,25.09-37.2,32.19-11,7-27.06,17-40,25-7.1,4.37-14.44,10.2-20.92,15.34-5.31,4.21-9.89,7.84-13.1,9.68-7.13,4.07-11.45,6.83-10.57,12.1,1,5.84,3.07,14.89,3.15,15.27a.36.36,0,0,1-.28.45l-1,.23Z" style="fill:#151515"/><path d="M167.55,20.23l.66.76a166.08,166.08,0,0,0-17,17.94C142.2,50,125.27,64,114.14,71c-11,7-27,17-40,25-7.12,4.39-14.48,10.22-21,15.37-5.29,4.2-9.86,7.82-13.05,9.64-7.26,4.16-11.67,7-10.75,12.49,1,5.91,3.14,15.21,3.16,15.3l-1,.23c0-.1-2.19-9.42-3.18-15.37C27.3,127.22,33,124,39.63,120.18c3.12-1.79,7.66-5.39,12.92-9.57,6.51-5.16,13.89-11,21.06-15.43,13-8,29-18,40-25s27.88-20.9,36.88-31.9a167.76,167.76,0,0,1,17.06-18.06m0-.75a.75.75,0,0,0-.5.19,166.52,166.52,0,0,0-17.14,18.15c-8.95,10.94-25.69,24.73-36.7,31.73s-27,17-40,25C66,99,58.61,104.85,52.09,110c-5.24,4.15-9.76,7.74-12.83,9.49-6.58,3.76-12.78,7.31-11.62,14.29,1,6,3.16,15.33,3.19,15.42a.75.75,0,0,0,.73.58l.17,0,1-.23a.75.75,0,0,0,.56-.9c-.09-.38-2.18-9.45-3.15-15.26-.84-5,3.19-7.59,10.39-11.71,3.23-1.84,7.82-5.49,13.14-9.7,6.47-5.14,13.81-11,20.89-15.32,13-8,29-18,40-25,11.18-7.11,28.18-21.12,37.29-32.26A167.93,167.93,0,0,1,168.7,21.55a.76.76,0,0,0,.07-1.06l-.66-.75a.74.74,0,0,0-.56-.26Z" style="fill:#f5f5f5"/><path d="M113.35,99.13l-.1,0-1-.29a.36.36,0,0,1-.25-.46c.31-1,3-10.23,4-14.92a25.2,25.2,0,0,0,.41-5.57A6.65,6.65,0,0,1,121,71.34c5.87-2,16.32-5.73,20.42-8.46,3.89-2.59,9.06-8.18,14.54-14.11,2.78-3,5.62-6.07,8.33-8.78a80.23,80.23,0,0,0,11.86-14.81.35.35,0,0,1,.32-.19.32.32,0,0,1,.19.05l.87.49a.36.36,0,0,1,.17.23.34.34,0,0,1,0,.28,82,82,0,0,1-12.15,15.19c-2.68,2.68-5.51,5.74-8.25,8.7-5.58,6-10.82,11.7-14.88,14.41C138.09,67.18,127.48,71,121.53,73a4.9,4.9,0,0,0-3.35,4.82,25.74,25.74,0,0,1-.45,6c-1,4.77-3.7,14-4,15.07a.46.46,0,0,1-.18.23A.45.45,0,0,1,113.35,99.13Z" style="fill:#151515"/><path d="M176.44,25.36l.87.5A80.81,80.81,0,0,1,165.23,41c-2.7,2.7-5.54,5.77-8.29,8.75-5.54,6-10.77,11.63-14.79,14.32-4.23,2.82-14.81,6.61-20.74,8.61a5.27,5.27,0,0,0-3.6,5.19,26.78,26.78,0,0,1-.44,5.88c-1,5-4,14.94-4,15l-1-.28c0-.1,3-10,4-15a25.31,25.31,0,0,0,.42-5.65,6.25,6.25,0,0,1,4.28-6.16c5.88-2,16.37-5.75,20.51-8.51,3.92-2.61,9.11-8.22,14.61-14.16,2.75-3,5.6-6.06,8.31-8.77a80.4,80.4,0,0,0,11.92-14.9m0-.75a.76.76,0,0,0-.65.38A79.52,79.52,0,0,1,164,39.73c-2.71,2.71-5.56,5.78-8.31,8.76C150.19,54.42,145,60,141.18,62.57,137.12,65.28,126.7,69,120.85,71a7,7,0,0,0-4.79,6.9,24.29,24.29,0,0,1-.41,5.47c-.93,4.68-3.66,13.85-4,14.88a.75.75,0,0,0,.5.94l1,.29a.78.78,0,0,0,.22,0,.73.73,0,0,0,.35-.09.69.69,0,0,0,.36-.44c.32-1.06,3.07-10.33,4-15.12a27,27,0,0,0,.46-6,4.53,4.53,0,0,1,3.09-4.46c6-2,16.62-5.83,20.92-8.7,4.1-2.73,9.35-8.42,14.92-14.44,2.76-3,5.59-6,8.27-8.72A81.9,81.9,0,0,0,178,26.23a.71.71,0,0,0,.07-.57.69.69,0,0,0-.35-.45l-.87-.5a.69.69,0,0,0-.37-.1Z" style="fill:#f5f5f5"/><path d="M170.09,98.14c-3.51,0-6.12-.62-7.74-1.83-3.61-2.71-.68-12.24,2.42-22.32.79-2.56,1.61-5.21,2.26-7.61a195.91,195.91,0,0,1,11.06-30.16A29.38,29.38,0,0,0,181,24.61a.38.38,0,0,1,.38-.38h1a.38.38,0,0,1,.37.38A30.44,30.44,0,0,1,179.66,37a193.32,193.32,0,0,0-10.94,29.84c-.66,2.42-1.48,5.09-2.27,7.66-2.53,8.21-5.68,18.44-3,20.41,1.31,1,3.54,1.48,6.63,1.48a38.24,38.24,0,0,0,6.67-.64h.08a.44.44,0,0,1,.21.07.37.37,0,0,1,.16.24l.19,1a.38.38,0,0,1-.29.44A40.57,40.57,0,0,1,170.09,98.14Z" style="fill:#151515"/><path d="M182.38,24.61h0m0,0a30.11,30.11,0,0,1-3.06,12.22,195,195,0,0,0-11,29.91c-.66,2.42-1.48,5.08-2.27,7.65-2.7,8.76-5.76,18.69-2.91,20.82,1.6,1.21,4.29,1.55,6.85,1.55a39.91,39.91,0,0,0,6.75-.64l.19,1a38.39,38.39,0,0,1-6.88.67c-2.75,0-5.69-.39-7.51-1.76-3.41-2.55-.51-12,2.55-21.91.79-2.57,1.61-5.22,2.26-7.62a194.93,194.93,0,0,1,11-30.09,29.67,29.67,0,0,0,2.95-11.78h1m0-.75h-1a.74.74,0,0,0-.75.75,29.09,29.09,0,0,1-2.87,11.44,195.73,195.73,0,0,0-11.09,30.23c-.65,2.39-1.47,5-2.25,7.6-3.29,10.65-6.12,19.86-2.29,22.73,1.68,1.26,4.36,1.91,8,1.91a39.27,39.27,0,0,0,7-.69.74.74,0,0,0,.59-.88l-.2-1a.74.74,0,0,0-.73-.6h-.15A38.52,38.52,0,0,1,170,96c-3,0-5.18-.48-6.4-1.4-2.42-1.82.81-12.32,3.17-20,.8-2.58,1.62-5.24,2.28-7.67A193.5,193.5,0,0,1,180,37.17a31,31,0,0,0,3.14-12.49v-.07a.74.74,0,0,0-.75-.75Zm0,1.5Z" style="fill:#f5f5f5"/><path d="M158.6,120.08a8.11,8.11,0,0,1-5.79-2c-5-4.57-3.11-15.67-1.33-26.4.67-4.07,1.31-7.89,1.52-11.11,1-14.83,4-32.57,4-32.74a.38.38,0,0,1,.37-.31h.06l1,.17a.41.41,0,0,1,.25.15.36.36,0,0,1,.06.28c0,.18-3,17.74-4,32.57-.22,3.31-.86,7.17-1.54,11.26-1.63,9.81-3.48,20.91.78,24.84a6.49,6.49,0,0,0,4.61,1.56,16.87,16.87,0,0,0,4.06-.57c13.81-3.45,37.58-7.76,56.69-11.23,8.44-1.53,15.69-2.85,20.35-3.78a156.21,156.21,0,0,1,27.18-3,.38.38,0,0,1,.37.38v1a.37.37,0,0,1-.37.37,153.89,153.89,0,0,0-26.83,3c-4.68.93-11.94,2.25-20.36,3.78-19.09,3.46-42.84,7.77-56.6,11.21A18.89,18.89,0,0,1,158.6,120.08Z" style="fill:#151515"/><path d="M157.39,47.87l1,.17c0,.18-3,17.8-4,32.6-.22,3.3-.87,7.16-1.54,11.25-1.65,9.88-3.51,21.09.9,25.16a6.9,6.9,0,0,0,4.86,1.66,17.24,17.24,0,0,0,4.16-.59c13.8-3.45,37.58-7.76,56.69-11.23,8.41-1.52,15.67-2.84,20.33-3.77a154.61,154.61,0,0,1,27.1-3v1a153.6,153.6,0,0,0-26.91,3c-4.66.93-11.93,2.25-20.34,3.78-19.1,3.46-42.86,7.77-56.63,11.21a18.28,18.28,0,0,1-4.4.62,7.79,7.79,0,0,1-5.54-1.93c-4.8-4.43-3-15.43-1.21-26.06.67-4.06,1.31-7.9,1.53-11.14,1-14.86,4-32.53,4-32.71m0-.75a.75.75,0,0,0-.73.63c0,.17-3,17.93-4,32.78-.21,3.2-.85,7-1.52,11-1.8,10.86-3.66,22.06,1.44,26.76a8.61,8.61,0,0,0,6,2.13,19.18,19.18,0,0,0,4.58-.64c13.75-3.43,37.5-7.74,56.58-11.2,8.41-1.53,15.68-2.85,20.36-3.79a154.12,154.12,0,0,1,26.76-3,.76.76,0,0,0,.75-.75v-1a.75.75,0,0,0-.75-.75,155.77,155.77,0,0,0-27.25,3c-4.66.93-11.91,2.25-20.32,3.78-19.14,3.47-42.92,7.78-56.74,11.24a16.71,16.71,0,0,1-4,.56,6.12,6.12,0,0,1-4.35-1.46c-4.11-3.8-2.29-14.79-.67-24.49.68-4.12,1.32-8,1.54-11.32,1-14.81,4-32.35,4-32.52a.74.74,0,0,0-.13-.56.71.71,0,0,0-.48-.31l-1-.17Z" style="fill:#f5f5f5"/><path d="M142.05,142.66a8.5,8.5,0,0,1-5.48-1.65c-3.8-3.11-2.85-9.57-2-15.28.17-1.17.33-2.24.44-3.22.45-4.06,1.3-8.09,2.28-12.76,1.23-5.84,2.62-12.44,3.72-21.25,2-15.75,3.37-27.57,3.38-27.67a.35.35,0,0,1,.14-.25.41.41,0,0,1,.24-.08l1,.12a.35.35,0,0,1,.25.14.4.4,0,0,1,.08.28c-.26,2.19-1.6,13.36-3.39,27.68-1.11,8.88-2.5,15.52-3.73,21.37-1,4.64-1.82,8.64-2.26,12.62-.12,1-.28,2.11-.45,3.25-.78,5.27-1.66,11.21,1.38,13.69a6.75,6.75,0,0,0,4.37,1.25,29.5,29.5,0,0,0,9.53-2.11,432.77,432.77,0,0,1,68.15-18c17.72-3,33.11-4.46,33.26-4.47h0a.41.41,0,0,1,.24.08.43.43,0,0,1,.13.26l.1,1a.37.37,0,0,1-.34.41c-.15,0-15.48,1.51-33.14,4.45a432.68,432.68,0,0,0-67.84,18A30.78,30.78,0,0,1,142.05,142.66Z" style="fill:#151515"/><path d="M144.77,60.88l1,.11c0,.12-1.41,11.86-3.39,27.68-1.11,8.87-2.5,15.5-3.73,21.34-1,4.65-1.82,8.65-2.27,12.65-.11,1-.27,2.12-.44,3.27-.79,5.34-1.69,11.4,1.51,14a7.11,7.11,0,0,0,4.61,1.33,29.78,29.78,0,0,0,9.66-2.13,433,433,0,0,1,68.08-18c17.82-3,33.09-4.45,33.24-4.47l.09,1c-.15,0-15.39,1.49-33.16,4.45a432.49,432.49,0,0,0-67.91,18,30.65,30.65,0,0,1-10,2.2,8.06,8.06,0,0,1-5.24-1.56c-3.64-3-2.7-9.33-1.87-14.93.17-1.14.33-2.23.44-3.24.45-4,1.3-8.07,2.28-12.74,1.23-5.83,2.62-12.44,3.72-21.26,2-15.82,3.37-27.56,3.39-27.67m0-.75a.72.72,0,0,0-.47.16.71.71,0,0,0-.28.5c0,.1-1.4,11.77-3.38,27.66-1.1,8.8-2.49,15.39-3.71,21.2-1,4.7-1.84,8.74-2.3,12.82-.1,1-.26,2-.42,3.14v.07c-.86,5.8-1.84,12.38,2.14,15.62a8.8,8.8,0,0,0,5.71,1.73,30.92,30.92,0,0,0,10.25-2.25,431.84,431.84,0,0,1,67.78-17.94c17.65-2.94,33-4.43,33.12-4.45a.74.74,0,0,0,.67-.81l-.09-1a.75.75,0,0,0-.75-.68H253c-.16,0-15.56,1.51-33.29,4.47a435.2,435.2,0,0,0-68.22,18.05,29,29,0,0,1-9.4,2.09,6.41,6.41,0,0,1-4.13-1.16c-2.88-2.34-2-8.17-1.25-13.32.17-1.18.34-2.27.45-3.29.44-4,1.28-8,2.25-12.57,1.24-5.87,2.63-12.52,3.75-21.42,1.74-13.94,3-24.63,3.37-27.57v-.1a.74.74,0,0,0-.65-.84l-1-.12Z" style="fill:#f5f5f5"/><path d="M131.78,151.86c-4.34,0-7.59-.94-9.94-2.88-3.54-2.92-4.8-8-3.83-15.48,3-23.66,6.16-38.86,7.83-47,.52-2.57.94-4.59,1.17-6a80,80,0,0,0,1-11,.34.34,0,0,1,.12-.26.36.36,0,0,1,.26-.11h1a.37.37,0,0,1,.37.38,83,83,0,0,1-1.07,11.3c-.24,1.43-.65,3.44-1.17,6-1.68,8.22-4.78,23.37-7.83,47-.88,6.85.17,11.4,3.21,13.91,2,1.65,4.87,2.44,8.78,2.44,9,0,21.9-4.26,35.54-8.77,5.68-1.88,11.55-3.82,17.36-5.53,10.59-3.11,20-4.69,27.93-4.69,12.33,0,16.94,3.76,17.42,4.19a.38.38,0,0,1,0,.53l-.66.75a.39.39,0,0,1-.28.12.38.38,0,0,1-.25-.09s-4.51-3.7-16.45-3.7c-7.78,0-16.95,1.54-27.26,4.57-5.77,1.7-11.62,3.63-17.29,5.51C154,147.54,140.93,151.86,131.78,151.86Z" style="fill:#151515"/><path d="M128.44,69.43l1,0a84.38,84.38,0,0,1-1.07,11.24c-.24,1.44-.66,3.47-1.18,6-1.67,8.15-4.77,23.31-7.82,46.93-.9,7,.19,11.65,3.35,14.25,2.16,1.79,5.25,2.53,9,2.53,9.08,0,22.1-4.31,35.66-8.79,5.68-1.88,11.55-3.83,17.35-5.53,12-3.53,21.06-4.68,27.82-4.68,12.33,0,16.89,3.85,17.18,4.1l-.66.75c-.07-.06-4.57-3.79-16.7-3.79-6.65,0-15.59,1.12-27.36,4.58-5.78,1.7-11.65,3.64-17.32,5.52-14.08,4.66-26.83,8.87-35.92,8.87-4,0-7.31-.82-9.7-2.79-3.44-2.83-4.65-7.79-3.7-15.14,3.05-23.66,6.16-38.85,7.83-47,.52-2.57.94-4.6,1.17-6a83,83,0,0,0,1.06-11.1m0-.75a.76.76,0,0,0-.75.75,80.44,80.44,0,0,1-1,11c-.23,1.42-.65,3.44-1.17,6-1.67,8.18-4.78,23.39-7.83,47.06-1,7.63.31,12.81,4,15.82,2.42,2,5.75,3,10.18,3,9.21,0,22.3-4.33,36.16-8.91,5.67-1.88,11.52-3.82,17.29-5.51,10.27-3,19.4-4.55,27.15-4.55,11.74,0,16.17,3.57,16.21,3.61a.73.73,0,0,0,.49.17.75.75,0,0,0,.56-.25l.66-.75a.74.74,0,0,0-.07-1c-.49-.44-5.2-4.29-17.67-4.29-8,0-17.42,1.59-28,4.71-5.81,1.71-11.69,3.65-17.37,5.53-13.61,4.51-26.46,8.76-35.42,8.76-3.82,0-6.62-.77-8.54-2.36-2.93-2.42-3.94-6.86-3.07-13.57,3-23.6,6.14-38.74,7.8-46.88l0-.07c.52-2.56.93-4.57,1.17-6a84.79,84.79,0,0,0,1.08-11.36.75.75,0,0,0-.74-.75l-1,0Z" style="fill:#f5f5f5"/><path d="M191.28,254.55a.37.37,0,0,1-.37-.34c0-.1-.91-10.6-.91-14.6,0-3.25,4.78-8.81,13.45-18.9,3.14-3.65,6.69-7.78,10.75-12.66,18-21.58,49.43-59.62,58-71.94C281.11,123.18,316,92.26,316.3,92a.36.36,0,0,1,.24-.09h0a.38.38,0,0,1,.26.13l.66.75a.37.37,0,0,1,0,.52c-.35.31-35,31.06-43.86,43.85-8.56,12.36-40,50.45-58.05,72.06-4.06,4.87-7.62,9-10.76,12.67-7.85,9.14-13,15.17-13,17.77,0,3.73.81,13.35.9,14.43a.39.39,0,0,1-.34.43Z" style="fill:#151515"/><path d="M316.54,92.23l.67.75c-.35.31-35.06,31.11-43.92,43.91-8.56,12.36-40,50.44-58,72-4,4.85-7.61,9-10.76,12.67-8.18,9.52-13.12,15.27-13.12,18,0,3.93.89,14.38.9,14.48l-1,.09c0-.11-.91-10.6-.91-14.57,0-3.11,4.74-8.63,13.36-18.67,3.15-3.66,6.72-7.81,10.75-12.65,18-21.59,49.44-59.64,58-72,8.93-12.9,43.72-43.77,44.07-44.09m0-.75a.75.75,0,0,0-.49.19c-.35.31-35.22,31.26-44.2,44.23-8.52,12.31-40,50.34-57.93,71.91-4.07,4.88-7.62,9-10.75,12.65-9,10.5-13.54,15.76-13.54,19.15,0,4,.9,14.53.91,14.63a.74.74,0,0,0,.74.69h.07l1-.09A.75.75,0,0,0,193,254c-.1-1.1-.9-10.7-.9-14.42,0-2.46,5.15-8.45,12.94-17.52,3.14-3.66,6.71-7.81,10.77-12.68,18-21.61,49.5-59.72,58.06-72.09,8.83-12.75,43.46-43.47,43.81-43.77a.76.76,0,0,0,.06-1.06l-.66-.75a.76.76,0,0,0-.52-.25Z" style="fill:#f5f5f5"/><path d="M197.38,259.11a.38.38,0,0,1-.38-.38V246.61c0-4.08,2.86-7.19,7.18-11.9a135,135,0,0,0,9-10.63c4.9-6.54,13.34-16.9,23.1-28.89,8.12-10,17.27-21.21,25.91-32.12,8.8-11.12,15.23-19.65,20.4-26.51,6-7.95,10.32-13.68,14.63-18.53,6.8-7.65,15.83-13.21,20.17-15.89.88-.55,1.54-1,2-1.26,2.22-1.48,4.95-4.71,5.14-6.67a1.14,1.14,0,0,0-.27-1,.37.37,0,0,1,0-.53L325,92a.4.4,0,0,1,.27-.11.36.36,0,0,1,.26.11,2.83,2.83,0,0,1,.78,2.4c-.28,2.8-3.61,6.41-5.91,8-.49.32-1.19.76-2.05,1.29-4.27,2.63-13.16,8.11-19.78,15.56C294.26,124,290,129.71,284,137.61c-5.18,6.87-11.62,15.42-20.43,26.54-8.68,11-17.83,22.21-25.91,32.13-9.76,12-18.19,22.34-23.07,28.85a133.46,133.46,0,0,1-9.11,10.76c-4.05,4.41-6.72,7.32-6.72,10.72v12.12a.38.38,0,0,1-.37.38Z" style="fill:#151515"/><path d="M325.23,92.26a2.51,2.51,0,0,1,.67,2.09c-.27,2.69-3.51,6.18-5.75,7.68-.48.32-1.18.75-2,1.28-4.28,2.64-13.2,8.14-19.86,15.63-4.28,4.82-8.59,10.53-14.56,18.45-5.17,6.86-11.62,15.41-20.42,26.53-8.66,10.94-17.83,22.19-25.91,32.12-9.76,12-18.19,22.35-23.08,28.87a136.22,136.22,0,0,1-9.09,10.73c-4.1,4.47-6.81,7.42-6.81,11v12.12h-1V246.61c0-3.93,2.81-7,7.07-11.65a133.45,133.45,0,0,0,9-10.65c4.9-6.54,13.34-16.9,23.1-28.9,8.09-9.92,17.25-21.17,25.9-32.11,8.8-11.11,15.24-19.65,20.41-26.51,6-7.94,10.31-13.67,14.61-18.51,6.76-7.61,15.76-13.15,20.08-15.82.85-.52,1.54-.95,2-1.27,2.33-1.55,5.1-4.85,5.3-6.94a1.49,1.49,0,0,0-.38-1.29l.71-.7m0-.75a.71.71,0,0,0-.53.22l-.71.7a.75.75,0,0,0,0,1.06.77.77,0,0,1,.17.69c-.17,1.69-2.59,4.8-5,6.39-.45.3-1.09.7-1.91,1.2l-.08,0c-4.35,2.69-13.42,8.27-20.25,16-4.32,4.86-8.65,10.6-14.64,18.54-5.17,6.87-11.61,15.4-20.4,26.51-8.64,10.92-17.79,22.15-25.85,32.06l-.05.05c-9.78,12-18.21,22.37-23.12,28.92a133.81,133.81,0,0,1-9,10.6c-4.38,4.77-7.27,7.92-7.27,12.15v12.12a.74.74,0,0,0,.75.75h1a.75.75,0,0,0,.75-.75V246.61c0-3.25,2.63-6.12,6.61-10.46a135.94,135.94,0,0,0,9.14-10.79c4.88-6.51,13.31-16.86,23.06-28.84,8.08-9.92,17.23-21.17,25.92-32.13,8.81-11.14,15.25-19.68,20.43-26.55,6-7.9,10.26-13.6,14.52-18.4C305.4,112,314.25,106.57,318.5,104c.8-.49,1.56-1,2.07-1.3,2.27-1.51,5.77-5.18,6.07-8.23a3.18,3.18,0,0,0-.88-2.69.71.71,0,0,0-.53-.22Z" style="fill:#f5f5f5"/><path d="M177.14,248.3a.37.37,0,0,1-.37-.33,124.44,124.44,0,0,1-.77-13.36c0-5.94,2.77-8.58,8.85-14.37,1.57-1.5,3.36-3.2,5.41-5.25,2.84-2.85,7.12-7,12.08-11.9,12.14-11.92,28.75-28.22,35.89-36.07,8.43-9.27,29.94-35.24,39.13-46.33,1.76-2.13,3.07-3.72,3.84-4.64,4.91-5.89,21.61-27.92,21.78-28.14a.35.35,0,0,1,.25-.14h0a.4.4,0,0,1,.23.08l.79.61a.37.37,0,0,1,.08.52c-.17.22-16.84,22.2-21.83,28.2-.78.93-2.11,2.54-3.84,4.63-9.19,11.09-30.72,37.09-39.19,46.4-7.17,7.88-23.8,24.2-35.94,36.12-5,4.85-9.22,9-12.09,11.91-2.05,2.05-3.84,3.76-5.42,5.26-5.89,5.62-8.32,7.93-8.32,13.12a120.91,120.91,0,0,0,.76,13.15.39.39,0,0,1-.33.42Z" style="fill:#151515"/><path d="M303.28,88.14l.8.6c-.17.23-16.87,22.25-21.82,28.19-.78.93-2.11,2.54-3.84,4.63-9.19,11.09-30.72,37.08-39.17,46.39-7.17,7.87-23.79,24.19-35.94,36.1-4.95,4.87-9.23,9.07-12.08,11.91-2.06,2.06-3.85,3.77-5.43,5.28-6,5.67-8.42,8-8.42,13.37a127.66,127.66,0,0,0,.75,13.19l-1,.13a125.73,125.73,0,0,1-.76-13.32c0-5.78,2.73-8.38,8.73-14.1,1.57-1.5,3.36-3.2,5.41-5.25,2.85-2.85,7.13-7.06,12.09-11.92,12.14-11.91,28.75-28.21,35.9-36.07C247,158,268.46,132,277.65,120.92l3.84-4.63c4.94-5.92,21.62-27.93,21.79-28.15m0-.75h-.1a.72.72,0,0,0-.5.29c-.16.22-16.85,22.22-21.76,28.12l-3.8,4.57,0,.06c-9.19,11.09-30.7,37.06-39.13,46.33-7.13,7.84-23.74,24.14-35.86,36-5,4.87-9.25,9.08-12.1,11.93-2.05,2-3.83,3.74-5.4,5.24-6,5.69-9,8.54-9,14.64A125.74,125.74,0,0,0,176.4,248a.75.75,0,0,0,.74.66h.09l1-.12a.75.75,0,0,0,.66-.83,125.12,125.12,0,0,1-.75-13.11c0-5,2.23-7.15,8.18-12.83,1.6-1.52,3.39-3.23,5.45-5.29,2.86-2.86,7.13-7.05,12.08-11.9,12.15-11.92,28.78-28.25,36-36.14,8.47-9.32,30-35.31,39.2-46.41,1.73-2.09,3.06-3.7,3.84-4.63,4.93-5.91,21.67-28,21.83-28.21a.75.75,0,0,0-.14-1l-.8-.61a.74.74,0,0,0-.45-.15Z" style="fill:#f5f5f5"/><path d="M163,234a30,30,0,0,1,1-6.64c.12-.49.23-1,.33-1.42.77-3.4,1.48-6.57,6.9-12,5.93-5.94,17-17,30-31a181.78,181.78,0,0,1,20.11-18.2A204.72,204.72,0,0,0,238.26,150c15.31-15.32,29.54-32.33,34.94-38.93,8.71-10.65,19.65-25.93,20.11-26.58l.22-.3.31.21,1.12.8-.22.3c-.47.66-11.44,16-20.19,26.67-5.42,6.63-19.69,23.7-35.06,39.07a207,207,0,0,1-17,14.94,180.85,180.85,0,0,0-19.94,18c-13,14-24.08,25.08-30,31-5.06,5.06-5.69,7.85-6.42,11.09-.13.54-.23,1-.36,1.5a28.83,28.83,0,0,0-1,6.22v.37H163Z" style="fill:#151515"/><path d="M293.62,84.7l.81.58c-.11.15-11.26,15.76-20.17,26.65-5.41,6.62-19.67,23.67-35,39a206.73,206.73,0,0,1-17,14.92,180.42,180.42,0,0,0-20,18.07c-13,14-24.07,25.07-30,31-5.14,5.14-5.78,8-6.52,11.28-.11.48-.22,1-.35,1.49a29.11,29.11,0,0,0-1,6.31h-1a29.71,29.71,0,0,1,1-6.55c.13-.51.24-1,.35-1.47.74-3.31,1.44-6.42,6.78-11.76,5.94-5.94,17-17,30-31a182.19,182.19,0,0,1,20.08-18.17,206.92,206.92,0,0,0,16.93-14.84c15.33-15.33,29.56-32.36,35-39,8.89-10.86,20-26.44,20.13-26.59m-.17-1-.44.61h0c-.47.64-11.4,15.91-20.1,26.55-5.4,6.6-19.61,23.6-34.92,38.91a205.76,205.76,0,0,1-16.87,14.79A180.6,180.6,0,0,0,201,182.76c-13,14-24,25-30,31-5.49,5.49-6.22,8.71-7,12.12-.11.5-.22,1-.34,1.46a30.1,30.1,0,0,0-1,6.73v.75h2.5V234a28.78,28.78,0,0,1,1-6.13c.12-.49.23-1,.33-1.43l0-.08c.72-3.18,1.34-5.92,6.32-10.91,6-5.94,17-17,30-31a178.17,178.17,0,0,1,19.9-18,206.48,206.48,0,0,0,17.07-15c15.38-15.38,29.66-32.46,35.08-39.09,8.75-10.69,19.74-26,20.2-26.68l.44-.61-.61-.44-.81-.59-.61-.43Z" style="fill:#f5f5f5"/><path d="M206.24,161.32a.35.35,0,0,1-.25-.1l-.74-.67a.42.42,0,0,1-.12-.26.38.38,0,0,1,.1-.27l22.07-24.08a.38.38,0,0,1,.13-.09l.1,0c.14-.05,13.88-6,18.67-11.75,4.94-5.93,20-24,26-32,5.43-7.25,9.25-12.42,10-13.38a.41.41,0,0,1,.34-.17.36.36,0,0,1,.2.06l.81.59a.38.38,0,0,1,.08.52s-4.06,5.53-10,13.43-21.08,26.1-26,32c-4.83,5.79-17.39,11.4-19.15,12.17L206.52,161.2A.36.36,0,0,1,206.24,161.32Z" style="fill:#151515"/><path d="M282.46,78.89l.8.59c0,.06-4.05,5.52-10,13.43s-21.07,26.08-26,32-17.72,11.5-19.09,12.1L206.24,161l-.73-.68,22.07-24.08.1,0c.14-.06,13.95-6,18.81-11.86s20-24,26-32,9.94-13.36,10-13.42m0-.75a.77.77,0,0,0-.61.31l0,0c-.71,1-4.52,6.14-9.95,13.39-6,8-21,26-26,32-4.74,5.68-18.4,11.59-18.54,11.65l-.1,0a.76.76,0,0,0-.25.19L205,159.76a.78.78,0,0,0-.19.54.73.73,0,0,0,.24.52l.74.68a.74.74,0,0,0,1.06-.05l21.82-23.8c2-.89,14.4-6.46,19.22-12.24,4.95-5.94,20-24,26-32s10-13.39,10-13.43a.76.76,0,0,0-.16-1.05l-.81-.59a.73.73,0,0,0-.44-.15Z" style="fill:#f5f5f5"/></g></g></svg>