<?xml version="1.0" encoding="UTF-8"?>
<svg id="a" data-name="Layer 1" xmlns="http://www.w3.org/2000/svg" viewBox="0 0 329.27 260.68">
  <defs>
    <style>
      .n {
        fill: #f5f5f5;
      }

      .n, .o {
        stroke-width: 0px;
      }

      .o {
        fill: #151515;
      }
    </style>
  </defs>
  <g id="b" data-name="Ebene 2">
    <g id="c" data-name="Migros Black">
      <path class="o" d="m141.83,2c-12.83,6.09-18.2,18.94-34.22,31-16.02,12.06-20.97,12.47-52.61,37.59S1.6,106.79,2.78,116.48s6.22,14.84,13.05,21.37,21.56,15.82,24.72,14,71-54,71-54l1.78,1.19s-9.29,24.13-18.39,53.4c-9.1,29.27-.2,48.46,41.14,31.65,24.04-9.85,48.6-18.37,73.58-25.52,0,0-23.13,22.43-43.31,46.73s-7.35,26.3-7.35,26.3c0,0,1.86.08,4.81,2.54,4.09,3.42,5,10,9.2,11.44,7.28,2.47,10.43,7.3,15.16,8.54,9.2,2.41,9.63,7.19,16.95.46s67.61-92.4,67.61-92.4c0,0,17.94-23.61,24.53-28.88,21.84-17.48,34.37-24.27,27.82-40.09-.79-1.91-8.57-.46-8.57-.46l-3.63-5.16-8.37,1.27-10.26-4.35-3.65-4.09-7.91-1.32-11.87-7.91-15.69-.07s-68.18,24.4-77,26-8.57-.53-6.86-7,14.24-51.56,13-56.18-5.71-10.31-11.2-12-5-6.06-9.5-8.17-2.64-5.15-8-6.33c-3.56-.68-6.94-2.12-9.89-4.22-2.47-1.59-3.85-1.22-3.85-1.22Z"/>
      <path class="o" d="m197.66,260.18h-.45c-1.88-.17-3.5-1.36-4.23-3.1-.88-1.76-1.36-2-1.72-2-.37.04-.72.14-1.06.29-.84.36-1.74.55-2.65.57-1.53-.06-3-.57-4.23-1.48-1.79-1.14-3.37-2.57-4.7-4.22-1.18-1.4-1.77-2.1-4.91-2.62-6.3-1-8.55-7.91-9.63-11.2l-.15-.48c-.36-1.06-.48-1.06-.92-1.06h-1.6c-.92,0-1.84-.11-2.73-.34-2.27-.5-4.19-1.99-5.23-4.07-1.54-3.18-1-7.65,1.57-13.31,4.37-9.63,38-44.73,47.63-54.65-15.03,4.25-29.83,9.26-44.35,15-6.06,2.42-11.61,4.84-16.51,7-12.52,5.44-22.38,9.73-30.72,9.73-1.82.02-3.64-.21-5.4-.66-7.47-2-12.68-5.8-15.5-11.39-3.61-7.16-3-16.9,1.83-28.95,9.38-23.45,16.37-44,18.94-51.79-16.94,13.3-65.16,51.21-68.82,52.13-1.06.27-2.15.41-3.24.42-2.81,0-5-1.07-5.9-2.94-.66-1.33-1.86-1.45-5.1-1.45-3.62,0-4.88-2.52-5.9-4.55-.32-.64-.72-.77-1.84-1-1.36-.28-2.66-.81-3.82-1.58-3.5-2.34-5.44-6.7-5.44-8.83-.41-.25-.84-.47-1.28-.65-2.1-.88-5.28-2.2-6.69-7.13-.23-.81-.48-1.62-.72-2.41-1.8-5.84-3.65-11.85,3.11-16.67,4.07-2.92,17.76-13.72,31-24.17,9.57-7.56,18.56-14.66,24-18.81,9.28-7.15,26.58-20.16,38.09-27.07,7.52-4.51,14.42-11.85,20.51-18.32,1.87-2,3.64-3.87,5.3-5.53,3.7-3.72,12.99-12.39,18.73-12.39.4,0,.8.05,1.19.14,3.75.94,4.52,2.82,5.2,4.49.14.35.28.69.45,1h0c.42-.05.84-.17,1.23-.34.94-.46,1.96-.72,3-.79.87,0,1.71.26,2.43.75,1.72,1.11,2.93,2.86,3.34,4.87,1.43.13,4.15.59,5.81,2.25s2.62,4.83,3,6.53c.92-.16,1.85-.25,2.79-.26,1-.04,1.99.14,2.9.54,1.63.82,2.64,3,3.17,4.51,1.09-.5,2.26-.81,3.46-.89.6-.04,1.19.17,1.63.57,1.2,1.2,3.24,5.38,4.27,9.47.63,2.54-3.17,18.89-12.72,54.65-.67,2.49-1.13,4.22-1.28,4.83l-.21.81c-.31.85-.45,1.74-.43,2.64h0c.19.08.39.11.59.09,1.29-.09,2.57-.34,3.8-.74,3.48-1,11.85-3.79,20.71-6.74s18.75-6.25,25.27-8.26c4.11-1.26,8.26-2.74,12.28-4.17,8.91-3.18,17.3-6.17,24.93-6.87,1.44-.13,2.81-.19,4.09-.19,8.51,0,13.08,2.86,17.7,7.48,1.5,1.66,3.66,2.56,5.9,2.46h1.36c1.51-.18,2.99.47,3.87,1.71.39.59.7,1.13,1,1.64,1.16,2,1.69,2.92,5.18,2.92,3.95,0,5.27,1.77,6,2.72l.18.23c.33-.11,1-.4,1.42-.57,1.69-.85,3.52-1.38,5.4-1.58.5-.01,1,.09,1.46.3,1.13.69,2,1.75,2.45,3,.3.81.84,1.51,1.55,2,.3.14.62.21.95.19.65-.03,1.29-.11,1.92-.25.92-.2,1.85-.31,2.79-.33.75,0,1.5.11,2.21.34,1.29.43,2.35,1.93,3,4.24,1.48,5.71.17,11.78-3.54,16.36-2.75,3.2-7.09,6.78-12.12,10.92-6.25,5.15-13.34,11-19.91,18.11-10.6,11.5-58.6,77.88-74.41,99.72l-4.51,6.22c-6.08,8.37-11.77,13-16,13l-.02-.04Zm-6.36-7.11c1.35,0,2.39.92,3.47,3.09.42,1.1,1.43,1.88,2.6,2h.31c3.47,0,8.85-4.55,14.39-12.16l4.47-6.18c15.81-21.85,63.91-88.32,74.6-99.91,6.27-6.55,12.99-12.67,20.11-18.29,4.95-4.08,9.23-7.61,11.87-10.68,3.26-4.09,4.41-9.46,3.13-14.53-.49-1.76-1.2-2.71-1.69-2.87-.51-.17-1.04-.25-1.58-.24-.82.03-1.63.13-2.43.3-.75.16-1.51.25-2.28.28-.64.01-1.27-.12-1.84-.4-1.11-.68-1.97-1.7-2.43-2.92-.29-.83-.83-1.55-1.55-2.06-.18-.07-.38-.11-.58-.1-1.59.23-3.14.71-4.59,1.42-.74.4-1.55.66-2.38.79-.69-.06-1.31-.47-1.62-1.09-.61-.8-1.43-1.91-4.38-1.91-4.64,0-5.64-1.73-6.91-3.92-.27-.47-.56-1-.93-1.53s-.91-.82-2.24-.82h-1.27c-2.77.12-5.46-.98-7.36-3-4.26-4.26-8.48-6.9-16.34-6.9-1.2,0-2.5.06-3.86.19-7.38.67-15.65,3.62-24.41,6.74-4.05,1.44-8.23,2.93-12.39,4.22-6.49,2-16.44,5.31-25.22,8.24s-17.28,5.76-20.8,6.76c-1.4.46-2.86.73-4.33.82-.73.06-1.45-.18-2-.66-1-1-.62-2.58-.11-4.57l.21-.8c.15-.61.61-2.35,1.28-4.86,9-33.52,13.24-51.57,12.72-53.65-1-3.83-2.87-7.65-3.73-8.52h-.21c-1.28.17-2.53.57-3.67,1.18l-.55.28c-.08.02-.15.02-.23,0-.07.01-.14.01-.21,0-.13-.06-.23-.19-.27-.33l-.15-.61c-.29-1.16-1.28-3.75-2.48-4.35-.63-.26-1.32-.37-2-.34-1.12.02-2.24.16-3.33.42l-.51.13h-.12c-.1,0-.19-.03-.27-.08-.11-.07-.19-.19-.22-.32l-.1-.51s-1-4.74-2.73-6.49-5.26-1.71-5.3-1.71h-.49c-.28,0-.5-.22-.5-.5v-.5c-.14-1.72-1.09-3.27-2.56-4.17-.38-.28-.84-.43-1.31-.45-.78.06-1.55.27-2.26.61-.63.31-1.3.5-2,.55-.75.01-1.43-.42-1.74-1.1-.19-.4-.36-.79-.51-1.18-.64-1.57-1.07-2.61-3.84-3.3-.23-.05-.46-.08-.7-.08-3.41,0-10.06,4.53-17.35,11.82-1.63,1.63-3.37,3.48-5.22,5.45-6.21,6.6-13.21,14-21,18.7-11.38,6.85-28.64,19.82-37.89,26.93-5.39,4.15-14.38,11.24-23.89,18.75-13.29,10.49-27,21.33-31.14,24.27-5.58,4-4.23,8.37-2.37,14.44.25.81.51,1.64.75,2.47,1.14,4,3.57,5,5.53,5.84,1.23.51,2.51,1.05,2.51,2.44,0,1.64,1.81,5.34,4.55,7.17.97.63,2.05,1.07,3.18,1.3,1.33.13,2.51.91,3.16,2.08,1,2,1.72,3.45,4.11,3.45,3.14,0,5.61,0,6.89,2.55.58,1.17,2.09,1.83,4.14,1.83.92,0,1.83-.12,2.72-.35,2.77-.69,44.79-33.38,70.63-53.82l1.28-1c.09-.07.2-.11.31-.11.1,0,.2.03.29.09.18.12.26.35.19.56l-.5,1.56c-.08.26-8.19,25.49-20,55.07-4.6,11.5-5.24,20.68-1.9,27.31,2.54,5.06,7.33,8.54,14.22,10.35,1.6.41,3.24.62,4.89.6,7.93,0,17.61-4.21,29.87-9.54,4.94-2.15,10.51-4.58,16.62-7,15.73-6.22,31.79-11.56,48.11-16l1.75-.45h.12c.28,0,.5.22.5.5,0,.13-.05.26-.14.35l-1.26,1.29c-.45.46-45,46-49.8,56.71-2.32,5.1-2.85,9-1.59,11.62.79,1.54,2.23,2.64,3.92,3,.73.19,1.48.28,2.24.28h1.6c1.27,0,2.19.41,2.87,2.43l.15.48c1,3.15,3,9,8.06,9.85,3.86.65,4.81,1.77,6.11,3.31,1.21,1.5,2.66,2.8,4.28,3.85.9.68,1.98,1.07,3.11,1.14h0c.69-.03,1.37-.18,2-.45.54-.28,1.13-.47,1.74-.55h0Z"/>
      <path class="n" d="m142.93,1c.36,0,.72.04,1.07.12,3.5.88,4.19,2.57,4.86,4.2.14.35.28.71.46,1.07.07.18.25.3.45.3.49-.07.96-.22,1.4-.44.89-.42,1.85-.66,2.83-.72.77,0,1.52.23,2.15.66,1.73,1.1,2.89,2.9,3.19,4.93,1.15.07,4.16.41,5.89,2.14s2.71,5.41,3,6.75c1.04-.21,2.1-.32,3.16-.34.92-.04,1.83.13,2.68.49,1.71.86,2.72,3.54,3.09,4.74,1.2-.6,2.5-.96,3.84-1.07.47-.04.93.12,1.28.43,1.15,1.14,3.16,5.34,4.13,9.23.78,3.11-6.39,30.71-12.72,54.4l-1.28,4.84-.2.81c-.38,1.46-.71,2.72-.31,3.12.29.2.65.28,1,.23,1.34-.09,2.66-.34,3.94-.76,3.49-1,11.86-3.79,20.73-6.75s18.75-6.25,25.26-8.25c4.12-1.27,8.29-2.75,12.32-4.19,8.85-3.16,17.22-6.14,24.78-6.83,1.45-.13,2.79-.19,4.05-.19,8.25,0,12.77,2.76,17.35,7.34,1.59,1.76,3.88,2.71,6.25,2.6h1.36c1.34-.18,2.67.39,3.45,1.49.38.57.69,1.11,1,1.61,1.18,2,1.83,3.17,5.61,3.17s4.88,1.58,5.58,2.52c.12.18.26.34.42.48.62-.17,1.22-.39,1.79-.67,1.63-.81,3.38-1.33,5.19-1.53.43-.01.85.07,1.24.25,1.03.63,1.81,1.6,2.22,2.73.33.93.96,1.72,1.78,2.27.37.17.77.25,1.17.24.67-.03,1.34-.12,2-.26.89-.19,1.79-.29,2.7-.32.68,0,1.35.1,2,.31,1.11.37,2.08,1.79,2.67,3.9,1.45,5.55.17,11.45-3.44,15.9-2.72,3.18-7.05,6.74-12.06,10.87-7.08,5.58-13.76,11.64-20,18.15-10.63,11.52-58.69,77.94-74.48,99.77-2,2.82-3.58,4.95-4.48,6.18-5.93,8.16-11.59,12.78-15.62,12.78h-.41c-1.7-.16-3.17-1.25-3.82-2.83-.88-1.76-1.48-2.27-2.17-2.27-.42.04-.84.15-1.23.32-.79.33-1.63.52-2.48.54-1.44-.05-2.84-.53-4-1.39-1.74-1.12-3.3-2.52-4.6-4.13-1.22-1.45-1.89-2.24-5.21-2.8-6-1-8.18-7.66-9.23-10.86l-.16-.47c-.39-1.19-.64-1.41-1.39-1.41h-1.63c-.88,0-1.75-.11-2.6-.33-2.13-.45-3.94-1.85-4.91-3.8-1.47-3-.94-7.37,1.57-12.89,4.57-10,41.31-48.11,48.82-55.83-15.65,4.35-31.07,9.53-46.18,15.5-6.08,2.44-11.64,4.86-16.55,7-12.55,5.46-22.25,9.68-30.49,9.68-1.78.01-3.55-.2-5.27-.65-7.32-1.92-12.43-5.67-15.18-11.13-3.54-7-2.92-16.63,1.84-28.54,10.17-25.41,17.54-47.41,19.49-53.41-9.62,7.59-66.1,52.12-69.89,53.06-1.02.27-2.07.4-3.12.41-2.58,0-4.59-.94-5.45-2.67s-2.39-1.72-5.55-1.72-4.45-2.27-5.45-4.28c-.44-.87-1.09-1-2.17-1.3-1.3-.26-2.55-.77-3.66-1.5-3.24-2.16-5.22-6.36-5.22-8.42,0-.38-.58-.63-1.59-1.06-3.16-1.01-5.58-3.58-6.39-6.8-.24-.83-.49-1.65-.74-2.45-1.82-5.9-3.54-11.48,2.93-16.1,4.09-2.89,17.81-13.72,31.08-24.17,9.52-7.52,18.52-14.63,23.9-18.77,9.28-7.13,26.56-20.14,38.05-27,7.58-4.55,14.5-11.91,20.61-18.41,1.87-2,3.64-3.86,5.29-5.51,3-3,12.72-12.26,18.41-12.26M38.93,152.55c.96-.01,1.92-.14,2.85-.38,3.19-.8,52.19-39.18,70.81-53.9l1.28-1-.5,1.56c-.08.25-8.14,25.36-20,55-4.65,11.64-5.29,21-1.88,27.72,2.62,5.2,7.51,8.77,14.54,10.62,1.63.42,3.31.62,5,.61,8,0,17.64-4.18,30.09-9.59,4.91-2.14,10.49-4.57,16.58-7,15.71-6.21,31.76-11.55,48.06-16l1.74-.46-1.27,1.27c-.45.46-45,46.06-49.9,56.86-2.38,5.23-2.91,9.28-1.58,12,.84,1.68,2.41,2.88,4.25,3.27.77.2,1.56.3,2.36.3h1.63c1.09,0,1.8.32,2.39,2.09l.16.48c1.06,3.25,3.05,9.29,8.45,10.19,3.68.61,4.53,1.61,5.81,3.14,1.24,1.54,2.72,2.87,4.38,3.93,1.54,1.31,3.7,1.6,5.54.75.51-.21,1.06-.34,1.61-.37,1,0,1.94.64,3,2.82.5,1.25,1.66,2.12,3,2.27h.35c3.64,0,9.13-4.58,14.79-12.36l4.48-6.19c15.8-21.84,63.88-88.3,74.56-99.86,6.64-7.2,13.77-13.07,20.06-18.25,5-4.09,9.26-7.63,11.93-10.74,3.36-4.22,4.56-9.77,3.23-15-.48-1.73-1.25-3-2-3.22-.56-.18-1.15-.27-1.74-.26-.85.02-1.69.13-2.52.3-.72.16-1.45.25-2.19.28-.56.01-1.11-.1-1.62-.34-1.02-.64-1.8-1.6-2.22-2.73-.33-.93-.96-1.72-1.78-2.27-.25-.11-.52-.17-.8-.16-1.67.22-3.28.72-4.79,1.46-.68.36-1.42.61-2.18.75-.56,0-.88-.43-1.22-.88-.63-.85-1.58-2.12-4.78-2.12-4.35,0-5.24-1.54-6.48-3.67-.27-.48-.57-1-.94-1.55-.6-.91-1.36-1-2.66-1h-1.27c-2.65.11-5.21-.95-7-2.9-4.39-4.39-8.74-7-16.69-7-1.21,0-2.51.06-3.91.19-7.44.67-15.74,3.63-24.53,6.77-4,1.44-8.22,2.93-12.37,4.21-6.49,2-16.45,5.31-25.24,8.24s-17.28,5.66-20.8,6.66c-1.36.45-2.76.72-4.19.8-.6.06-1.2-.13-1.66-.52-.82-.8-.47-2.18,0-4.09l.2-.79c.16-.62.62-2.35,1.29-4.86,3.36-12.52,13.57-50.63,12.75-53.9-1-4-3-7.86-3.87-8.77-.15-.11-.34-.16-.53-.14-1.36.17-2.68.59-3.89,1.24l-.56.27-.15-.6c-.26-1.05-1.27-3.94-2.74-4.67-.69-.3-1.45-.43-2.2-.4-1.16.03-2.32.17-3.45.43l-.51.13-.1-.51s-1-4.88-2.87-6.75-5.61-1.85-5.64-1.85h-.5v-.5c-.13-1.89-1.17-3.61-2.78-4.61-.47-.33-1.04-.5-1.61-.5-.85.06-1.68.28-2.44.65-.57.28-1.19.45-1.82.51-.57.01-1.09-.33-1.3-.86-.19-.38-.35-.76-.5-1.14-.65-1.59-1.16-2.84-4.17-3.6-.27-.06-.55-.09-.83-.09-3.56,0-10.19,4.45-17.7,12-1.65,1.65-3.41,3.52-5.27,5.5-6.15,6.53-13.13,13.95-20.83,18.53-11.44,6.91-28.69,19.88-37.95,27-5.38,4.14-14.37,11.24-23.89,18.76-13.29,10.48-27.01,21.32-31.12,24.24-5.88,4.19-4.41,9-2.55,15,.25.8.5,1.63.74,2.46,1.21,4.23,3.87,5.35,5.82,6.16,1.18.49,2.2.92,2.2,2,0,1.79,1.86,5.64,4.77,7.58,1.02.67,2.16,1.13,3.35,1.37,1.17.29,2.18.54,2.82,1.83,1,2,1.87,3.72,4.56,3.72,3.08,0,5.31,0,6.44,2.28.69,1.36,2.4,2.11,4.59,2.11m74.94-55.3h0m93.63,62.47h0M142.93,0c-5.93,0-15.34,8.78-19.11,12.55-1.67,1.66-3.43,3.54-5.3,5.53-6.08,6.46-13,13.77-20.42,18.24-11.53,6.92-28.84,20-38.14,27.1-5.4,4.16-14.39,11.25-23.91,18.77h0c-13.29,10.49-26.98,21.29-31.05,24.2-7,5-5.14,11.22-3.29,17.21.24.8.49,1.61.72,2.42.91,3.52,3.55,6.33,7,7.45.28.12.74.31,1,.45.17,2.62,2.44,6.8,5.65,8.94,1.22.79,2.57,1.35,4,1.64,1.09.27,1.3.35,1.51.78,1,2,2.42,4.83,6.35,4.83,3.25,0,4.14.14,4.65,1.17,1,2.05,3.34,3.22,6.35,3.22,1.13,0,2.26-.16,3.36-.44,3.59-.89,46.58-34.56,67.65-51.18-2.91,8.72-9.61,28.19-18.41,50.17-4.87,12.19-5.48,22.07-1.81,29.36,2.89,5.73,8.21,9.65,15.83,11.65,1.8.47,3.66.69,5.52.68,8.45,0,18.35-4.3,30.89-9.76,4.92-2.14,10.47-4.56,16.52-7,17.51-6.98,34.31-12.11,42.51-14.44-11,11.42-42.21,44.14-46.44,53.45-2.64,5.8-3.16,10.42-1.57,13.73,1.1,2.22,3.15,3.82,5.57,4.34.93.24,1.89.36,2.85.36h1.8c.12.23.22.47.29.72l.16.47c1.11,3.39,3.42,10.44,10,11.54,3,.49,3.44,1.07,4.61,2.45,1.36,1.69,2.98,3.14,4.8,4.32,1.31.96,2.88,1.5,4.51,1.56.97-.02,1.93-.23,2.83-.6.28-.13.58-.21.88-.26.13,0,.5.17,1.27,1.72.81,1.89,2.59,3.18,4.63,3.38h.5c4.41,0,10.25-4.69,16.43-13.19.9-1.23,2.44-3.36,4.48-6.18,15.8-21.85,63.82-88.21,74.41-99.68,6.55-7.1,13.62-12.92,19.86-18.06,5-4.16,9.4-7.75,12.18-11,3.82-4.71,5.17-10.96,3.64-16.83-.68-2.46-1.86-4.09-3.31-4.57-.76-.25-1.56-.38-2.37-.37-.97.02-1.93.14-2.87.34-.61.13-1.22.21-1.84.24-.25.01-.49-.03-.72-.13-.61-.47-1.07-1.1-1.33-1.83-.51-1.33-1.45-2.45-2.67-3.17-.53-.25-1.11-.37-1.69-.36-1.94.19-3.83.74-5.58,1.61-.29.13-.73.31-1.07.44-.77-1-2.22-2.85-6.33-2.85-3.2,0-3.62-.73-4.74-2.67-.29-.5-.62-1.06-1-1.66-.96-1.39-2.61-2.13-4.28-1.94h-1.36c-2.1.1-4.13-.75-5.54-2.31-4.72-4.71-9.38-7.63-18.06-7.63-1.29,0-2.68.06-4.14.2-7.69.69-16.11,3.7-25,6.88-4,1.44-8.19,2.92-12.28,4.18-6.53,2-16.5,5.33-25.29,8.26s-17.21,5.73-20.69,6.73c-1.18.39-2.41.64-3.66.72h-.13c.1-.71.26-1.41.45-2.1l.21-.81c.16-.64.68-2.58,1.28-4.83,9.7-36.33,13.39-52.23,12.72-54.9-.94-3.77-3-8.3-4.39-9.7-.54-.5-1.26-.76-2-.72-1.09.06-2.16.31-3.16.74-.61-1.55-1.64-3.5-3.24-4.3-.98-.44-2.05-.64-3.13-.6-.81,0-1.62.07-2.42.19-.5-1.81-1.49-4.73-3.06-6.31-1.62-1.38-3.64-2.21-5.76-2.36-.51-1.99-1.75-3.71-3.47-4.83-.82-.55-1.78-.84-2.77-.83-1.11.05-2.2.32-3.2.8l-.74.28-.27-.61c-.7-1.71-1.55-3.81-5.55-4.81-.43-.12-.87-.18-1.31-.19ZM38.93,151.5c-1.82,0-3.2-.59-3.69-1.56-1.42-2.83-4.16-2.83-7.34-2.83-2,0-2.59-1-3.66-3.17-.7-1.31-2.01-2.19-3.49-2.35-1.07-.21-2.09-.63-3-1.23-2.69-1.79-4.33-5.39-4.33-6.75,0-1.73-1.56-2.38-2.82-2.9-1.85-.78-4.17-1.75-5.24-5.51-.24-.84-.5-1.67-.75-2.49-1.87-6.08-3.11-10.1,2.18-13.88,4.13-3,17.87-13.79,31.15-24.28,9.48-7.55,18.46-14.55,23.85-18.75,9.21-7.11,26.45-20.06,37.86-26.9,7.82-4.7,14.84-12.17,21-18.76h0c1.85-2,3.59-3.81,5.22-5.44,8.67-8.64,14.49-11.7,17.06-11.7.19,0,.39.02.58.06,2.52.63,2.89,1.53,3.49,3,.15.37.32.79.53,1.21.39.86,1.25,1.42,2.2,1.41.76-.05,1.5-.25,2.19-.58.65-.32,1.36-.51,2.08-.57.36,0,.71.12,1,.33,1.33.81,2.2,2.21,2.34,3.76v.5c0,.55.45,1,1,1h.49c.95,0,3.68.3,4.95,1.56s2.33,5,2.59,6.24l.1.51c.05.27.21.5.44.65.16.1.35.15.54.15.08,0,.16,0,.24,0l.51-.13c1.05-.24,2.13-.37,3.21-.4.6-.03,1.2.07,1.76.29.89.45,1.86,2.63,2.21,4l.15.61c.08.29.28.54.56.66.13.06.27.09.41.09.16,0,.31-.03.45-.1l.56-.28c1.06-.57,2.21-.95,3.4-1.13,1.62,2.51,2.8,5.26,3.51,8.16.33,1.44-1.62,11.88-12.71,53.4-.66,2.47-1.13,4.24-1.29,4.88l-.2.79c-.54,2.06-1,3.84.24,5,.65.57,1.5.86,2.36.8,1.52-.08,3.02-.36,4.47-.84,3.52-1,11.9-3.8,20.77-6.75s18.77-6.28,25.26-8.28c4.17-1.28,8.35-2.77,12.4-4.22,8.73-3.11,17-6,24.29-6.72,1.35-.12,2.64-.18,3.82-.18,7.69,0,11.82,2.58,16,6.75,1.98,2.14,4.8,3.3,7.71,3.19h1.27c1.23,0,1.52.15,1.83.6s.63,1,.91,1.5c1.29,2.24,2.41,4.17,7.34,4.17,2.7,0,3.41,1,4,1.71.41.74,1.16,1.22,2,1.29.9-.12,1.77-.4,2.57-.83,1.39-.68,2.87-1.15,4.4-1.38.12-.02.24-.02.36,0,.61.47,1.07,1.1,1.32,1.83.48,1.37,1.42,2.54,2.67,3.29.64.31,1.35.47,2.06.45.8-.03,1.59-.12,2.37-.29.77-.16,1.55-.26,2.34-.29.48,0,.96.06,1.42.21.23.08.89.82,1.37,2.54,1.25,4.9.14,10.1-3,14.06-2.61,3-6.87,6.56-11.81,10.62-7.13,5.64-13.87,11.77-20.16,18.34-10.71,11.61-58.82,78.11-74.63,100l-.29.39-4.19,5.79c-5.36,7.37-10.72,12-14,12h-.27c-.99-.13-1.84-.79-2.19-1.73-.79-1.57-1.94-3.37-3.92-3.37-.69.02-1.36.17-2,.43-.57.25-1.18.39-1.8.42-1.03-.07-2.01-.43-2.83-1.06-1.58-1.02-2.99-2.29-4.18-3.75-1.32-1.57-2.36-2.81-6.41-3.48-4.8-.8-6.66-6.47-7.66-9.51l-.16-.48c-.66-2-1.62-2.78-3.34-2.78h-1.6c-.72,0-1.43-.09-2.12-.27-1.55-.32-2.87-1.32-3.59-2.73-1.2-2.47-.66-6.24,1.59-11.19,4.81-10.58,49.26-56.11,49.71-56.57l1.23-1.26c.2-.19.32-.45.32-.73,0-.55-.45-1-1-1h-.29l-1.72.45c-16.35,4.46-32.43,9.82-48.18,16.06-6.11,2.44-11.69,4.87-16.61,7-12.22,5.32-21.87,9.51-29.69,9.51-1.61.01-3.2-.18-4.76-.58-6.75-1.77-11.43-5.17-13.91-10.1-3.27-6.49-2.62-15.54,1.92-26.89,11.84-29.59,20-54.85,20-55.1l.48-1.5c.05-.12.07-.24.07-.37,0-.55-.45-1-1-1h0c-.22,0-.43.08-.6.22l-1.28,1c-27.5,21.75-67.53,52.8-70.45,53.73-.85.22-1.72.33-2.59.34l.07-.03Zm74.94-53.3h0Z"/>
      <path class="o" d="m11.38,134.07c-.18,0-.34-.14-.37-.32-.59-3.69-.92-7.41-1-11.14,0-4.76,1.05-5.57,4.53-8.27.55-.42,1.14-.88,1.8-1.41,1.51-1.21,4.24-3,8-5.4,8.66-5.59,23.2-14.93,37.97-27.53,11.69-10.11,23.25-17.24,33.41-23.53,7.91-4.89,14.74-9.12,19.57-13.51,10.76-9.78,32.71-36.64,32.91-36.9.06-.08.15-.13.25-.14h0c.09,0,.17.03.24.08l.77.63c.08.07.13.16.14.26.01.1-.02.2-.09.27-.22.27-22.24,27.24-33.08,37.1-5,4.49-11.84,8.76-19.83,13.7-10.07,6.26-21.53,13.35-33.15,23.31-14.86,12.73-29.45,22.11-38.13,27.73-3.76,2.42-6.46,4.15-7.9,5.3-.63.51-1.2,1-1.72,1.35l-.09.08c-3.34,2.59-3.86,3-3.86,6.89.08,3.64.42,7.26,1,10.85.04.21-.1.4-.31.44,0,0,0,0,0,0l-1,.16h-.06Z"/>
      <path class="n" d="m148.49,6.29l.77.64c-.22.27-22.15,27.14-33,37.05-4.92,4.47-11.8,8.73-19.76,13.66-10.18,6.27-21.65,13.36-33.3,23.36-14.84,12.72-29.39,22.09-38.09,27.68-3.75,2.42-6.47,4.17-7.92,5.33l-1.81,1.42c-3.39,2.63-4,3.11-4,7.19.08,3.66.42,7.31,1,10.92l-1,.16c-.59-3.67-.92-7.37-1-11.08,0-4.57.93-5.3,4.38-8,.54-.41,1.13-.88,1.8-1.41,1.5-1.2,4.23-3,8-5.39,8.68-5.58,23.19-14.93,38-27.6,11.71-10,23.21-17.16,33.37-23.44,7.92-4.91,14.77-9.14,19.62-13.55,10.85-9.86,32.73-36.68,33-36.95m0-.75h-.08c-.2.02-.38.12-.5.27-.22.27-22.13,27.1-32.87,36.86-4.81,4.37-11.62,8.59-19.52,13.47-10.17,6.3-21.71,13.44-33.46,23.51-14.75,12.64-29.24,22-37.89,27.54-3.81,2.45-6.55,4.22-8.07,5.43l-1.85,1.39c-3.5,2.72-4.68,3.64-4.68,8.58.08,3.75.41,7.5,1,11.21.07.36.38.62.74.62h.13l1-.16c.41-.07.69-.45.62-.86-.58-3.57-.91-7.18-1-10.8,0-3.72.35-4,3.71-6.6l.09-.07c.52-.4,1.09-.84,1.73-1.35,1.42-1.14,4.11-2.87,7.84-5.27,8.73-5.62,23.31-15,38.19-27.76,11.6-10,23-17,33.15-23.28,8-5,14.91-9.23,19.88-13.75,10.87-9.88,32.9-36.86,33.13-37.13.25-.33.2-.79-.11-1.06l-.73-.61c-.13-.11-.3-.17-.47-.17h.02Z"/>
      <path class="o" d="m22.4,145.13c-.06.01-.12.01-.18,0-.09-.04-.16-.12-.18-.22-.31-1-3-10.26-3-14.25,0-4.74,3.84-9,12.45-13.77,8.61-4.77,29.44-19.89,57.87-40.98,14.82-11,21.85-14.47,27-17,4.39-1.95,8.42-4.62,11.93-7.91,10.81-9.87,29.71-39.56,29.85-39.86.05-.08.13-.14.23-.16h.08c.07-.01.13-.01.2,0l.85.54c.08.05.14.14.16.23.04.09.04.2,0,.29-.2.3-19.25,30.26-30.15,40.18-3.63,3.4-7.81,6.18-12.35,8.21-5.07,2.51-12,6-26.72,16.84-28.48,21.1-49.26,36.16-58.1,41.06-8,4.44-11.55,8.22-11.55,12.24,0,3.8,2.93,13.65,3,13.75.06.19-.04.39-.23.45,0,0-.01,0-.02,0l-1,.29-.14.06Z"/>
      <path class="n" d="m158.45,11.34l.85.54c-.19.3-19.16,30.17-30.09,40.1-3.59,3.38-7.71,6.13-12.21,8.15-5.08,2.52-12,6-26.78,16.88-28.46,21.09-49.23,36.14-58,41-8.12,4.51-11.74,8.38-11.74,12.56,0,3.88,2.95,13.76,3,13.86l-1,.28c-.13-.41-3-10.11-3-14.14,0-4.58,3.78-8.73,12.25-13.44,8.78-4.87,29.51-19.9,58-41,14.8-11,21.81-14.44,26.93-17,4.42-1.98,8.47-4.68,12-8,10.82-9.84,29.72-39.6,29.91-39.9m0-.75h-.16c-.19.04-.36.16-.47.33-.19.3-19,30-29.78,39.74-3.48,3.28-7.49,5.94-11.86,7.88-5.15,2.55-12.19,6-27.05,17-28.53,21.22-49.25,36.23-57.98,41.09s-12.64,9.2-12.64,14.09c0,4,2.74,13.31,3.05,14.36.06.19.19.35.36.44.11.06.23.09.36.09.07,0,.14,0,.21,0l1-.29c.39-.11.62-.52.5-.92,0,0,0,0,0-.01,0-.1-2.94-9.9-2.94-13.64s3.5-7.54,11.35-11.91c8.86-4.92,29.65-20,58.14-41.09,14.68-10.87,21.61-14.3,26.67-16.8,4.57-2.06,8.77-4.85,12.43-8.28,10.94-10,30-39.95,30.21-40.25.11-.17.14-.37.1-.57-.04-.19-.16-.36-.33-.47l-.84-.53c-.12-.08-.26-.12-.41-.12l.08-.14Z"/>
      <path class="o" d="m31.56,149.43c-.18,0-.33-.12-.37-.29,0-.09-2.18-9.41-3.18-15.39-1.12-6.73,4.7-10,11.43-13.9,3.1-1.77,7.63-5.36,12.87-9.53,6.53-5.17,13.92-11,21.11-15.46,13-8,29-18,40-25s27.8-20.86,36.78-31.8c5.24-6.44,10.96-12.48,17.1-18.06.07-.06.16-.09.25-.09.11,0,.21.05.28.13l.66.75c.14.15.14.38,0,.53-6.06,5.54-11.71,11.52-16.9,17.89-9.08,11.11-26.05,25.09-37.2,32.19-11,7-27.06,17-40,25-7.1,4.37-14.44,10.2-20.92,15.34-5.31,4.21-9.89,7.84-13.1,9.68-7.13,4.07-11.45,6.83-10.57,12.1,1,5.84,3.07,14.89,3.15,15.27.05.19-.06.39-.25.44,0,0-.02,0-.03,0l-1,.23-.11-.04Z"/>
      <path class="n" d="m167.55,20.23l.66.76c-6.1,5.55-11.79,11.55-17,17.94-9.01,11.07-25.94,25.07-37.07,32.07-11,7-27,17-40,25-7.12,4.39-14.48,10.22-21,15.37-5.29,4.2-9.86,7.82-13.05,9.64-7.26,4.16-11.67,7-10.75,12.49,1,5.91,3.14,15.21,3.16,15.3l-1,.23c0-.1-2.19-9.42-3.18-15.37-1.02-6.44,4.68-9.66,11.31-13.48,3.12-1.79,7.66-5.39,12.92-9.57,6.51-5.16,13.89-11,21.06-15.43,13-8,29-18,40-25s27.88-20.9,36.88-31.9c5.23-6.43,10.93-12.47,17.06-18.06m0-.75c-.18,0-.36.07-.5.19-6.16,5.61-11.89,11.68-17.14,18.15-8.95,10.94-25.69,24.73-36.7,31.73-11.01,7-27,17-40,25-7.21,4.46-14.6,10.31-21.12,15.46-5.24,4.15-9.76,7.74-12.83,9.49-6.58,3.76-12.78,7.31-11.62,14.29,1,6,3.16,15.33,3.19,15.42.08.34.38.58.73.58h.17l1-.23c.4-.09.65-.5.56-.9-.09-.38-2.18-9.45-3.15-15.26-.84-5,3.19-7.59,10.39-11.71,3.23-1.84,7.82-5.49,13.14-9.7,6.47-5.14,13.81-11,20.89-15.32,13-8,29-18,40-25,11.18-7.11,28.18-21.12,37.29-32.26,5.17-6.35,10.81-12.32,16.85-17.85.31-.28.34-.75.07-1.06l-.66-.75c-.14-.16-.34-.26-.56-.26h0Z"/>
      <path class="o" d="m113.35,99.13h-.1l-1-.29c-.19-.05-.31-.25-.26-.44,0,0,0-.01,0-.02.31-1,3-10.23,4-14.92.34-1.84.48-3.7.41-5.57-.1-2.96,1.77-5.63,4.59-6.55,5.87-2,16.32-5.73,20.42-8.46,3.89-2.59,9.06-8.18,14.54-14.11,2.78-3,5.62-6.07,8.33-8.78,4.53-4.45,8.51-9.42,11.86-14.81.06-.12.19-.19.32-.19.07,0,.13.01.19.05l.87.49c.09.05.15.13.17.23.04.09.04.19,0,.28-3.43,5.53-7.51,10.63-12.15,15.19-2.68,2.68-5.51,5.74-8.25,8.7-5.58,6-10.82,11.7-14.88,14.41-4.33,2.84-14.94,6.66-20.89,8.66-2.06.69-3.43,2.65-3.35,4.82.09,2.01-.07,4.02-.45,6-1,4.77-3.7,14-4,15.07-.03.09-.1.17-.18.23-.07.02-.13.02-.2,0Z"/>
      <path class="n" d="m176.44,25.36l.87.5c-3.41,5.51-7.46,10.6-12.08,15.14-2.7,2.7-5.54,5.77-8.29,8.75-5.54,6-10.77,11.63-14.79,14.32-4.23,2.82-14.81,6.61-20.74,8.61-2.22.74-3.68,2.85-3.6,5.19.07,1.97-.08,3.94-.44,5.88-1,5-4,14.94-4,15l-1-.28c0-.1,3-10,4-15,.35-1.86.49-3.76.42-5.65-.1-2.78,1.64-5.29,4.28-6.16,5.88-2,16.37-5.75,20.51-8.51,3.92-2.61,9.11-8.22,14.61-14.16,2.75-3,5.6-6.06,8.31-8.77,4.55-4.48,8.55-9.48,11.92-14.9m0-.75c-.27,0-.52.15-.65.38-3.32,5.38-7.27,10.34-11.77,14.78-2.71,2.71-5.56,5.78-8.31,8.76-5.5,5.93-10.69,11.51-14.51,14.08-4.06,2.71-14.48,6.43-20.33,8.43-2.95.98-4.9,3.79-4.79,6.9.07,1.83-.07,3.67-.41,5.47-.93,4.68-3.66,13.85-4,14.88-.12.4.1.82.49.94,0,0,0,0,0,0l1,.29c.07.01.15.01.22,0,.12,0,.24-.03.35-.09.18-.09.31-.25.36-.44.32-1.06,3.07-10.33,4-15.12.38-1.98.53-3.99.46-6-.07-2.01,1.19-3.82,3.09-4.46,6-2,16.62-5.83,20.92-8.7,4.1-2.73,9.35-8.42,14.92-14.44,2.76-3,5.59-6,8.27-8.72,4.68-4.58,8.8-9.71,12.26-15.28.1-.17.13-.38.07-.57-.05-.19-.17-.36-.35-.45l-.87-.5c-.11-.07-.24-.1-.37-.1l-.06-.04Z"/>
      <path class="o" d="m170.09,98.14c-3.51,0-6.12-.62-7.74-1.83-3.61-2.71-.68-12.24,2.42-22.32.79-2.56,1.61-5.21,2.26-7.61,2.85-10.34,6.55-20.43,11.06-30.16,1.76-3.63,2.75-7.58,2.91-11.61,0-.21.17-.38.38-.38h1c.21,0,.37.17.37.38-.14,4.3-1.2,8.52-3.09,12.39-4.46,9.63-8.12,19.61-10.94,29.84-.66,2.42-1.48,5.09-2.27,7.66-2.53,8.21-5.68,18.44-3,20.41,1.31,1,3.54,1.48,6.63,1.48,2.24-.02,4.47-.23,6.67-.64h.08c.07,0,.15.03.21.07.08.06.14.14.16.24l.19,1c.04.2-.09.4-.29.44-2.31.42-4.66.63-7.01.64Z"/>
      <path class="n" d="m182.38,24.61h0m0,0c-.15,4.24-1.19,8.41-3.06,12.22-4.48,9.65-8.16,19.66-11,29.91-.66,2.42-1.48,5.08-2.27,7.65-2.7,8.76-5.76,18.69-2.91,20.82,1.6,1.21,4.29,1.55,6.85,1.55,2.26-.02,4.52-.24,6.75-.64l.19,1c-2.27.43-4.57.65-6.88.67-2.75,0-5.69-.39-7.51-1.76-3.41-2.55-.51-12,2.55-21.91.79-2.57,1.61-5.22,2.26-7.62,2.83-10.31,6.51-20.38,11-30.09,1.78-3.68,2.79-7.69,2.95-11.78h1m0-.75h-1c-.41,0-.74.32-.75.73,0,0,0,.01,0,.02-.17,3.97-1.14,7.86-2.87,11.44-4.52,9.75-8.23,19.87-11.09,30.23-.65,2.39-1.47,5-2.25,7.6-3.29,10.65-6.12,19.86-2.29,22.73,1.68,1.26,4.36,1.91,8,1.91,2.35-.02,4.69-.25,7-.69.4-.07.67-.46.59-.86,0,0,0-.01,0-.02l-.2-1c-.07-.35-.37-.6-.73-.6h-.15c-2.16.4-4.36.61-6.56.63-3,0-5.18-.48-6.4-1.4-2.42-1.82.81-12.32,3.17-20,.8-2.58,1.62-5.24,2.28-7.67,2.83-10.2,6.49-20.16,10.95-29.76,1.91-3.9,2.98-8.15,3.14-12.49v-.07c0-.41-.32-.74-.73-.75,0,0-.01,0-.02,0l-.09.02Z"/>
      <path class="o" d="m158.6,120.08c-2.12.12-4.2-.6-5.79-2-5-4.57-3.11-15.67-1.33-26.4.67-4.07,1.31-7.89,1.52-11.11,1-14.83,4-32.57,4-32.74.03-.18.19-.31.37-.31h.06l1,.17c.1.02.19.07.25.15.06.08.08.18.06.28,0,.18-3,17.74-4,32.57-.22,3.31-.86,7.17-1.54,11.26-1.63,9.81-3.48,20.91.78,24.84,1.28,1.1,2.93,1.66,4.61,1.56,1.37-.02,2.73-.22,4.06-.57,13.81-3.45,37.58-7.76,56.69-11.23,8.44-1.53,15.69-2.85,20.35-3.78,8.95-1.79,18.05-2.8,27.18-3,.21,0,.37.17.37.38v1c0,.2-.17.37-.37.37-9.01.21-17.99,1.22-26.83,3-4.68.93-11.94,2.25-20.36,3.78-19.09,3.46-42.84,7.77-56.6,11.21-1.47.37-2.97.56-4.48.57Z"/>
      <path class="n" d="m157.39,47.87l1,.17c0,.18-3,17.8-4,32.6-.22,3.3-.87,7.16-1.54,11.25-1.65,9.88-3.51,21.09.9,25.16,1.35,1.16,3.09,1.75,4.86,1.66,1.41-.03,2.8-.22,4.16-.59,13.8-3.45,37.58-7.76,56.69-11.23,8.41-1.52,15.67-2.84,20.33-3.77,8.93-1.8,18-2.8,27.1-3v1c-9.04.21-18.05,1.21-26.91,3-4.66.93-11.93,2.25-20.34,3.78-19.1,3.46-42.86,7.77-56.63,11.21-1.44.38-2.91.59-4.4.62-2.03.1-4.02-.59-5.54-1.93-4.8-4.43-3-15.43-1.21-26.06.67-4.06,1.31-7.9,1.53-11.14,1-14.86,4-32.53,4-32.71m0-.75c-.36,0-.67.27-.73.63,0,.17-3,17.93-4,32.78-.21,3.2-.85,7-1.52,11-1.8,10.86-3.66,22.06,1.44,26.76,1.65,1.45,3.8,2.21,6,2.13,1.55-.03,3.08-.24,4.58-.64,13.75-3.43,37.5-7.74,56.58-11.2,8.41-1.53,15.68-2.85,20.36-3.79,8.82-1.78,17.77-2.78,26.76-3,.41,0,.74-.34.75-.75v-1c0-.41-.34-.75-.75-.75-9.15.2-18.27,1.2-27.25,3-4.66.93-11.91,2.25-20.32,3.78-19.14,3.47-42.92,7.78-56.74,11.24-1.31.35-2.65.54-4,.56-1.58.1-3.14-.43-4.35-1.46-4.11-3.8-2.29-14.79-.67-24.49.68-4.12,1.32-8,1.54-11.32,1-14.81,4-32.35,4-32.52.03-.2-.01-.4-.13-.56-.11-.17-.28-.28-.48-.31l-1-.17-.07.08Z"/>
      <path class="o" d="m142.05,142.66c-1.96.1-3.9-.48-5.48-1.65-3.8-3.11-2.85-9.57-2-15.28.17-1.17.33-2.24.44-3.22.45-4.06,1.3-8.09,2.28-12.76,1.23-5.84,2.62-12.44,3.72-21.25,2-15.75,3.37-27.57,3.38-27.67,0-.1.06-.19.14-.25.07-.05.15-.08.24-.08l1,.12c.1,0,.19.06.25.14.06.08.09.18.08.28-.26,2.19-1.6,13.36-3.39,27.68-1.11,8.88-2.5,15.52-3.73,21.37-1,4.64-1.82,8.64-2.26,12.62-.12,1-.28,2.11-.45,3.25-.78,5.27-1.66,11.21,1.38,13.69,1.27.91,2.81,1.35,4.37,1.25,3.27-.17,6.49-.88,9.53-2.11,22.19-7.84,44.98-13.86,68.15-18,17.72-3,33.11-4.46,33.26-4.47h0c.09,0,.17.03.24.08.07.07.12.16.13.26l.1,1c.02.2-.12.39-.33.41,0,0,0,0-.01,0-.15,0-15.48,1.51-33.14,4.45-23.06,4.15-45.75,10.17-67.84,18-3.21,1.27-6.61,2-10.06,2.14Z"/>
      <path class="n" d="m144.77,60.88l1,.11c0,.12-1.41,11.86-3.39,27.68-1.11,8.87-2.5,15.5-3.73,21.34-1,4.65-1.82,8.65-2.27,12.65-.11,1-.27,2.12-.44,3.27-.79,5.34-1.69,11.4,1.51,14,1.34.96,2.97,1.43,4.61,1.33,3.32-.17,6.58-.89,9.66-2.13,22.17-7.84,44.94-13.86,68.08-18,17.82-3,33.09-4.45,33.24-4.47l.09,1c-.15,0-15.39,1.49-33.16,4.45-23.09,4.15-45.8,10.17-67.91,18-3.19,1.29-6.57,2.03-10,2.2-1.88.11-3.73-.45-5.24-1.56-3.64-3-2.7-9.33-1.87-14.93.17-1.14.33-2.23.44-3.24.45-4,1.3-8.07,2.28-12.74,1.23-5.83,2.62-12.44,3.72-21.26,2-15.82,3.37-27.56,3.39-27.67m0-.75c-.17,0-.34.05-.47.16-.16.12-.26.3-.28.5,0,.1-1.4,11.77-3.38,27.66-1.1,8.8-2.49,15.39-3.71,21.2-1,4.7-1.84,8.74-2.3,12.82-.1,1-.26,2-.42,3.14v.07c-.86,5.8-1.84,12.38,2.14,15.62,1.64,1.22,3.66,1.84,5.71,1.73,3.52-.16,6.99-.92,10.25-2.25,22.07-7.81,44.74-13.81,67.78-17.94,17.65-2.94,33-4.43,33.12-4.45.41-.04.71-.4.67-.8,0,0,0,0,0,0l-.09-1c-.04-.39-.36-.68-.75-.68h-.05c-.16,0-15.56,1.51-33.29,4.47-23.19,4.16-46.01,10.2-68.22,18.05-2.99,1.22-6.17,1.92-9.4,2.09-1.47.1-2.93-.31-4.13-1.16-2.88-2.34-2-8.17-1.25-13.32.17-1.18.34-2.27.45-3.29.44-4,1.28-8,2.25-12.57,1.24-5.87,2.63-12.52,3.75-21.42,1.74-13.94,3-24.63,3.37-27.57v-.1c.06-.4-.22-.78-.63-.84,0,0-.01,0-.02,0l-1-.12h-.1Z"/>
      <path class="o" d="m131.78,151.86c-4.34,0-7.59-.94-9.94-2.88-3.54-2.92-4.8-8-3.83-15.48,3-23.66,6.16-38.86,7.83-47,.52-2.57.94-4.59,1.17-6,.59-3.64.92-7.31,1-11,0-.1.04-.2.12-.26.07-.07.16-.11.26-.11h1c.2,0,.37.17.37.37,0,0,0,0,0,.01-.1,3.79-.46,7.56-1.07,11.3-.24,1.43-.65,3.44-1.17,6-1.68,8.22-4.78,23.37-7.83,47-.88,6.85.17,11.4,3.21,13.91,2,1.65,4.87,2.44,8.78,2.44,9,0,21.9-4.26,35.54-8.77,5.68-1.88,11.55-3.82,17.36-5.53,10.59-3.11,20-4.69,27.93-4.69,12.33,0,16.94,3.76,17.42,4.19.14.15.14.38,0,.53l-.66.75c-.07.08-.17.12-.28.12-.09,0-.18-.03-.25-.09,0,0-4.51-3.7-16.45-3.7-7.78,0-16.95,1.54-27.26,4.57-5.77,1.7-11.62,3.63-17.29,5.51-13.74,4.49-26.81,8.81-35.96,8.81Z"/>
      <path class="n" d="m128.44,69.43h1c-.11,3.77-.46,7.52-1.07,11.24-.24,1.44-.66,3.47-1.18,6-1.67,8.15-4.77,23.31-7.82,46.93-.9,7,.19,11.65,3.35,14.25,2.16,1.79,5.25,2.53,9,2.53,9.08,0,22.1-4.31,35.66-8.79,5.68-1.88,11.55-3.83,17.35-5.53,12-3.53,21.06-4.68,27.82-4.68,12.33,0,16.89,3.85,17.18,4.1l-.66.75c-.07-.06-4.57-3.79-16.7-3.79-6.65,0-15.59,1.12-27.36,4.58-5.78,1.7-11.65,3.64-17.32,5.52-14.08,4.66-26.83,8.87-35.92,8.87-4,0-7.31-.82-9.7-2.79-3.44-2.83-4.65-7.79-3.7-15.14,3.05-23.66,6.16-38.85,7.83-47,.52-2.57.94-4.6,1.17-6,.6-3.67.96-7.38,1.06-11.1m0-.75c-.41,0-.74.34-.75.75-.08,3.69-.42,7.36-1,11-.23,1.42-.65,3.44-1.17,6-1.67,8.18-4.78,23.39-7.83,47.06-1,7.63.31,12.81,4,15.82,2.42,2,5.75,3,10.18,3,9.21,0,22.3-4.33,36.16-8.91,5.67-1.88,11.52-3.82,17.29-5.51,10.27-3,19.4-4.55,27.15-4.55,11.74,0,16.17,3.57,16.21,3.61.14.11.31.18.49.17.21,0,.42-.09.56-.25l.66-.75c.24-.3.21-.74-.07-1-.49-.44-5.2-4.29-17.67-4.29-8,0-17.42,1.59-28,4.71-5.81,1.71-11.69,3.65-17.37,5.53-13.61,4.51-26.46,8.76-35.42,8.76-3.82,0-6.62-.77-8.54-2.36-2.93-2.42-3.94-6.86-3.07-13.57,3-23.6,6.14-38.74,7.8-46.88v-.07c.52-2.56.93-4.57,1.17-6,.61-3.76.98-7.55,1.08-11.36,0-.41-.33-.74-.74-.75h-1l-.12-.16Z"/>
      <path class="o" d="m191.28,254.55c-.19,0-.35-.15-.37-.34,0-.1-.91-10.6-.91-14.6,0-3.25,4.78-8.81,13.45-18.9,3.14-3.65,6.69-7.78,10.75-12.66,18-21.58,49.43-59.62,58-71.94,8.91-12.93,43.8-43.85,44.1-44.11.07-.06.15-.09.24-.09h0c.1,0,.19.05.26.13l.66.75c.14.14.14.38,0,.52-.35.31-35,31.06-43.86,43.85-8.56,12.36-40,50.45-58.05,72.06-4.06,4.87-7.62,9-10.76,12.67-7.85,9.14-13,15.17-13,17.77,0,3.73.81,13.35.9,14.43.02.21-.13.4-.34.43l-1.07.03Z"/>
      <path class="n" d="m316.54,92.23l.67.75c-.35.31-35.06,31.11-43.92,43.91-8.56,12.36-40,50.44-58,72-4,4.85-7.61,9-10.76,12.67-8.18,9.52-13.12,15.27-13.12,18,0,3.93.89,14.38.9,14.48l-1,.09c0-.11-.91-10.6-.91-14.57,0-3.11,4.74-8.63,13.36-18.67,3.15-3.66,6.72-7.81,10.75-12.65,18-21.59,49.44-59.64,58-72,8.93-12.9,43.72-43.77,44.07-44.09m0-.75c-.18,0-.35.07-.49.19-.35.31-35.22,31.26-44.2,44.23-8.52,12.31-40,50.34-57.93,71.91-4.07,4.88-7.62,9-10.75,12.65-9,10.5-13.54,15.76-13.54,19.15,0,4,.9,14.53.91,14.63.03.39.35.69.74.69h.07l1-.09c.36-.07.62-.39.61-.76-.1-1.1-.9-10.7-.9-14.42,0-2.46,5.15-8.45,12.94-17.52,3.14-3.66,6.71-7.81,10.77-12.68,18-21.61,49.5-59.72,58.06-72.09,8.83-12.75,43.46-43.47,43.81-43.77.3-.28.33-.75.06-1.06l-.66-.75c-.13-.15-.32-.24-.52-.25l.02-.06Z"/>
      <path class="o" d="m197.38,259.11c-.21,0-.38-.17-.38-.38h0v-12.12c0-4.08,2.86-7.19,7.18-11.9,3.18-3.39,6.18-6.93,9-10.63,4.9-6.54,13.34-16.9,23.1-28.89,8.12-10,17.27-21.21,25.91-32.12,8.8-11.12,15.23-19.65,20.4-26.51,6-7.95,10.32-13.68,14.63-18.53,6.8-7.65,15.83-13.21,20.17-15.89.88-.55,1.54-1,2-1.26,2.22-1.48,4.95-4.71,5.14-6.67.08-.36-.03-.73-.27-1-.15-.14-.15-.38,0-.52,0,0,0,0,0,0l.74-.68c.07-.07.17-.11.27-.11.1,0,.19.04.26.11.62.63.91,1.52.78,2.4-.28,2.8-3.61,6.41-5.91,8-.49.32-1.19.76-2.05,1.29-4.27,2.63-13.16,8.11-19.78,15.56-4.31,4.75-8.57,10.46-14.57,18.36-5.18,6.87-11.62,15.42-20.43,26.54-8.68,11-17.83,22.21-25.91,32.13-9.76,12-18.19,22.34-23.07,28.85-2.84,3.74-5.89,7.34-9.11,10.76-4.05,4.41-6.72,7.32-6.72,10.72v12.12c0,.21-.16.37-.37.38h-1.01Z"/>
      <path class="n" d="m325.23,92.26c.53.56.78,1.33.67,2.09-.27,2.69-3.51,6.18-5.75,7.68-.48.32-1.18.75-2,1.28-4.28,2.64-13.2,8.14-19.86,15.63-4.28,4.82-8.59,10.53-14.56,18.45-5.17,6.86-11.62,15.41-20.42,26.53-8.66,10.94-17.83,22.19-25.91,32.12-9.76,12-18.19,22.35-23.08,28.87-2.84,3.73-5.88,7.31-9.09,10.73-4.1,4.47-6.81,7.42-6.81,11v12.12h-1v-12.15c0-3.93,2.81-7,7.07-11.65,3.18-3.39,6.19-6.95,9-10.65,4.9-6.54,13.34-16.9,23.1-28.9,8.09-9.92,17.25-21.17,25.9-32.11,8.8-11.11,15.24-19.65,20.41-26.51,6-7.94,10.31-13.67,14.61-18.51,6.76-7.61,15.76-13.15,20.08-15.82.85-.52,1.54-.95,2-1.27,2.33-1.55,5.1-4.85,5.3-6.94.09-.47-.06-.94-.38-1.29l.71-.7m0-.75c-.2,0-.39.08-.53.22l-.71.7c-.29.29-.29.77,0,1.06.17.19.23.45.17.69-.17,1.69-2.59,4.8-5,6.39-.45.3-1.09.7-1.91,1.2h-.08c-4.35,2.69-13.42,8.27-20.25,16-4.32,4.86-8.65,10.6-14.64,18.54-5.17,6.87-11.61,15.4-20.4,26.51-8.64,10.92-17.79,22.15-25.85,32.06l-.05.05c-9.78,12-18.21,22.37-23.12,28.92-2.81,3.69-5.82,7.23-9,10.6-4.38,4.77-7.27,7.92-7.27,12.15v12.12c0,.41.32.74.73.75,0,0,.01,0,.02,0h1c.41,0,.75-.34.75-.75v-12.11c0-3.25,2.63-6.12,6.61-10.46,3.23-3.44,6.28-7.04,9.14-10.79,4.88-6.51,13.31-16.86,23.06-28.84,8.08-9.92,17.23-21.17,25.92-32.13,8.81-11.14,15.25-19.68,20.43-26.55,6-7.9,10.26-13.6,14.52-18.4,6.64-7.44,15.49-12.87,19.74-15.44.8-.49,1.56-1,2.07-1.3,2.27-1.51,5.77-5.18,6.07-8.23.14-.98-.18-1.98-.88-2.69-.14-.14-.33-.22-.53-.22v-.05Z"/>
      <path class="o" d="m177.14,248.3c-.19,0-.35-.14-.37-.33-.5-4.44-.75-8.9-.77-13.36,0-5.94,2.77-8.58,8.85-14.37,1.57-1.5,3.36-3.2,5.41-5.25,2.84-2.85,7.12-7,12.08-11.9,12.14-11.92,28.75-28.22,35.89-36.07,8.43-9.27,29.94-35.24,39.13-46.33,1.76-2.13,3.07-3.72,3.84-4.64,4.91-5.89,21.61-27.92,21.78-28.14.06-.08.15-.13.25-.14h0c.08,0,.16.03.23.08l.79.61c.17.12.2.35.08.52,0,0,0,0,0,0-.17.22-16.84,22.2-21.83,28.2-.78.93-2.11,2.54-3.84,4.63-9.19,11.09-30.72,37.09-39.19,46.4-7.17,7.88-23.8,24.2-35.94,36.12-5,4.85-9.22,9-12.09,11.91-2.05,2.05-3.84,3.76-5.42,5.26-5.89,5.62-8.32,7.93-8.32,13.12.01,4.39.27,8.78.76,13.15.02.21-.13.39-.33.42l-.99.11Z"/>
      <path class="n" d="m303.28,88.14l.8.6c-.17.23-16.87,22.25-21.82,28.19-.78.93-2.11,2.54-3.84,4.63-9.19,11.09-30.72,37.08-39.17,46.39-7.17,7.87-23.79,24.19-35.94,36.1-4.95,4.87-9.23,9.07-12.08,11.91-2.06,2.06-3.85,3.77-5.43,5.28-6,5.67-8.42,8-8.42,13.37.02,4.41.27,8.81.75,13.19l-1,.13c-.49-4.42-.74-8.87-.76-13.32,0-5.78,2.73-8.38,8.73-14.1,1.57-1.5,3.36-3.2,5.41-5.25,2.85-2.85,7.13-7.06,12.09-11.92,12.14-11.91,28.75-28.21,35.9-36.07,8.5-9.27,29.96-35.27,39.15-46.35l3.84-4.63c4.94-5.92,21.62-27.93,21.79-28.15m0-.75h-.1c-.2.02-.38.13-.5.29-.16.22-16.85,22.22-21.76,28.12l-3.8,4.57v.06c-9.19,11.09-30.7,37.06-39.13,46.33-7.13,7.84-23.74,24.14-35.86,36-5,4.87-9.25,9.08-12.1,11.93-2.05,2-3.83,3.74-5.4,5.24-6,5.69-9,8.54-9,14.64.02,4.49.27,8.97.77,13.43.05.37.36.66.74.66h.09l1-.12c.41-.05.71-.42.66-.83-.48-4.35-.73-8.73-.75-13.11,0-5,2.23-7.15,8.18-12.83,1.6-1.52,3.39-3.23,5.45-5.29,2.86-2.86,7.13-7.05,12.08-11.9,12.15-11.92,28.78-28.25,36-36.14,8.47-9.32,30-35.31,39.2-46.41,1.73-2.09,3.06-3.7,3.84-4.63,4.93-5.91,21.67-28,21.83-28.21.22-.32.16-.75-.14-1l-.8-.61c-.13-.1-.29-.15-.45-.15l-.05-.04Z"/>
      <path class="o" d="m163,234c.08-2.24.42-4.47,1-6.64.12-.49.23-1,.33-1.42.77-3.4,1.48-6.57,6.9-12,5.93-5.94,17-17,30-31,6.24-6.56,12.96-12.64,20.11-18.2,5.91-4.6,11.55-9.52,16.92-14.74,15.31-15.32,29.54-32.33,34.94-38.93,8.71-10.65,19.65-25.93,20.11-26.58l.22-.3.31.21,1.12.8-.22.3c-.47.66-11.44,16-20.19,26.67-5.42,6.63-19.69,23.7-35.06,39.07-5.39,5.29-11.07,10.27-17,14.94-7.08,5.5-13.75,11.51-19.94,18-13,14-24.08,25.08-30,31-5.06,5.06-5.69,7.85-6.42,11.09-.13.54-.23,1-.36,1.5-.56,2.03-.89,4.12-1,6.22v.37h-1.77v-.36Z"/>
      <path class="n" d="m293.62,84.7l.81.58c-.11.15-11.26,15.76-20.17,26.65-5.41,6.62-19.67,23.67-35,39-5.39,5.28-11.07,10.26-17,14.92-7.11,5.52-13.79,11.56-20,18.07-13,14-24.07,25.07-30,31-5.14,5.14-5.78,8-6.52,11.28-.11.48-.22,1-.35,1.49-.56,2.06-.9,4.18-1,6.31h-1c.09-2.21.42-4.41,1-6.55.13-.51.24-1,.35-1.47.74-3.31,1.44-6.42,6.78-11.76,5.94-5.94,17-17,30-31,6.23-6.55,12.95-12.62,20.08-18.17,5.91-4.64,11.56-9.59,16.93-14.84,15.33-15.33,29.56-32.36,35-39,8.89-10.86,20-26.44,20.13-26.59m-.17-1l-.44.61h0c-.47.64-11.4,15.91-20.1,26.55-5.4,6.6-19.61,23.6-34.92,38.91-5.35,5.23-10.98,10.17-16.87,14.79-7.17,5.58-13.91,11.69-20.16,18.28-13,14-24,25-30,31-5.49,5.49-6.22,8.71-7,12.12-.11.5-.22,1-.34,1.46-.59,2.2-.92,4.46-1,6.73v.75h2.5v-.82c.11-2.07.45-4.13,1-6.13.12-.49.23-1,.33-1.43v-.08c.72-3.18,1.34-5.92,6.32-10.91,6-5.94,17-17,30-31,6.17-6.49,12.82-12.51,19.9-18,5.96-4.68,11.66-9.69,17.07-15,15.38-15.38,29.66-32.46,35.08-39.09,8.75-10.69,19.74-26,20.2-26.68l.44-.61-.61-.44-.81-.59-.61-.43h.02Z"/>
      <path class="o" d="m206.24,161.32c-.09,0-.18-.03-.25-.1l-.74-.67c-.07-.07-.11-.16-.12-.26,0-.1.03-.2.1-.27l22.07-24.08s.08-.07.13-.09h.1c.14-.05,13.88-6,18.67-11.75,4.94-5.93,20-24,26-32,5.43-7.25,9.25-12.42,10-13.38.08-.11.21-.17.34-.17.07,0,.14.02.2.06l.81.59c.16.12.2.35.08.52,0,0-4.06,5.53-10,13.43s-21.08,26.1-26,32c-4.83,5.79-17.39,11.4-19.15,12.17l-21.96,23.88c-.07.08-.17.12-.28.12Z"/>
      <path class="n" d="m282.46,78.89l.8.59c0,.06-4.05,5.52-10,13.43s-21.07,26.08-26,32c-4.93,5.92-17.72,11.5-19.09,12.1l-21.93,23.99-.73-.68,22.07-24.08h.1c.14-.06,13.95-6,18.81-11.86s20-24,26-32,9.94-13.36,10-13.42m0-.75c-.24,0-.47.12-.61.31h0c-.71,1-4.52,6.14-9.95,13.39-6,8-21,26-26,32-4.74,5.68-18.4,11.59-18.54,11.65h-.1c-.1.05-.18.11-.25.19l-22.04,24.01c-.13.15-.2.34-.19.54,0,.2.09.39.24.52l.74.68c.3.28.77.26,1.05-.03,0,0,0-.01.01-.02l21.82-23.8c2-.89,14.4-6.46,19.22-12.24,4.95-5.94,20-24,26-32s10-13.39,10-13.43c.24-.34.17-.8-.16-1.05l-.81-.59c-.13-.1-.28-.15-.44-.15v.02Z"/>
    </g>
  </g>
</svg>