<?xml version="1.0" encoding="UTF-8"?>
<svg id="a" data-name="Layer 1" xmlns="http://www.w3.org/2000/svg" width="329.27" height="260.68" viewBox="0 0 329.27 260.68">
  <defs>
    <style>
      .o {
        stroke: #f5f5f5;
        stroke-width: 2px;
      }

      .o, .p {
        fill: none;
        stroke-miterlimit: 10;
      }

      .q {
        fill: #151515;
        stroke-width: 0px;
      }

      .p {
        stroke: #151515;
        stroke-width: .75px;
      }
    </style>
  </defs>
  <g id="b" data-name="Layer 12">
    <path class="q" d="m128.49,229.64c-2.26-.11-3.58-.2-5.32.74h0c-1.25-.41-2.57-.67-3.96-.74-7.88-.4-12.57,6.59-14.29,14.29-2.3,10.34,6.62,14.09,14.14,13.16.86-.11,1.72-.26,2.57-.46h0c2.66,1.28,3.67.83,6.71.46,7.62-.94,14.12-6.8,14.26-14.69.13-6.91-6.49-12.37-14.12-12.76Z"/>
    <path class="q" d="m234.58,243.93c-1.71-7.7-6.41-14.69-14.29-14.29-2.5.13-2.66.6-4.64,1.79-1.91-1.24-4.16-1.92-6.76-1.79-7.63.38-13.34,6.25-14.29,14.29-.92,7.84,6.81,12.22,14.43,13.16,2.72.34,5.62.06,8.11-.92,1.73.63,1.45.69,3.3.92,7.53.93,16.45-2.82,14.14-13.16Z"/>
    <path class="q" d="m259.41,218.14c-1.41-3.92-2.05-39.14-3.7-46.52-1.65-7.37-1.26-38.87-.59-45.1.67-6.24-1.33-20-1.53-21.45-.2-1.45-.08-13.57.35-15.85.43-2.27.31-21.09-.2-22.38-.27-.68-3.72-.42-7.6-.24-3.42.16-7.18-.86-9.39-.82h0c-.26-.05-.55-.07-.92-.03-2.29.29-10,.71-14,1.05-2.13.18-6.46.27-10.49.37h0c-1.68.02-5.35-1.65-5.03-8.27.32-6.62,1.88-18.89-1.82-28.8-3.71-9.91-5.99-15.12-8.54-18.89s-10.55-8.82-18.28-9.57c-2.75-.27-7.74.45-11.4,1.27l.04.02c-4.42-1.28-8.77-1.6-12.05-1.28-7.73.75-15.73,5.8-18.28,9.57-2.55,3.77-4.83,8.97-8.54,18.89-3.71,9.91-2.15,22.18-1.82,28.8.32,6.62-3.15,7.83-4.82,7.81h0c-4.03-.04-7.97-.02-10.62.22-6.35.59-14-1.12-18.12-.71-4.12.41-11.83-1.41-12.88-.41,0,0-1,5.47,0,10.47,1,5,.88,15.59-.41,20.89s-1.29,17.24-.41,22.59c.88,5.35-.41,23.06-.88,32.77-.47,9.71-.59,33.77-.24,40.06.35,6.3-.41,18.12-1.24,21-.82,2.88-.65,9.77.82,9.88,1.47.12,5.24.29,10.06.65,4.82.35,21.94-.24,27.24-.18s41.24.59,47.48,1c6.24.41,24.18-1.82,29.95-1.88,5.77-.06,21.89,1.06,25.71,1.24,3.65.17,19.22-.36,22.39-.51h0s18.28-.78,19.77-1.18c1.49-.39,1.41-.55,0-4.47ZM177.58,8.79c5.41,1.18,11.61,3.85,13.47,7.48,2.51,4.9,6.08,13.85,7.14,19.02,1.06,5.18.75,16.16.51,20.43-.17,3.06-1.34,7.56-3.47,9.77-1.19-1.53-2.06-3.6-2.14-5.5-.16-3.61,1.1-14.67.59-20.71-.51-6.04-4.59-14.63-11.37-25.14-1.35-2.1-2.98-3.87-4.78-5.39l.06.03Zm-43.84,26.5c1.06-5.18,4.63-14.12,7.14-19.02,2.06-4.03,7.36-6.47,13.58-7.49l-.53.38c-1.61,1.42-4.98,4.71-7.8,9.06-6.82,10.49-7.36,15.04-7.87,21.08-.51,6.04.78,17.1.59,20.71-.14,2.63-1.38,4.14-2.2,5.5h-.03c-2.28-2.12-3.21-6.61-3.38-9.78-.24-4.28-.55-15.26.51-20.43Zm38.08,32.51c-2.92-.43-10.52-.73-18.12-.9h0s-.02,0-.04,0c-.02,0-.03,0-.05,0-.69-.02-5.63-.29-6.18-4.59-.59-4.63-2.29-16.04-1.15-23.3,1.14-7.26,4.2-16.36,8.32-20.08,2.47-2.24,7.62-6.43,11.65-8.81,4.54,2.34,8.35,6.36,11.06,8.81,4.12,3.73,7.18,12.83,8.31,20.08,1.14,7.26-.67,19.49-1.26,24.12-.55,4.31-5.27,4.84-5.92,4.89-2.24.1-4.5.09-6.63-.22Z"/>
  </g>
  <g id="c" data-name="Layer 13 copy">
    <path class="o" d="m79.18,65.75c1.06-1,8.77.82,12.88.41s11.77,1.29,18.12.71c6.35-.59,20.12.12,24.77-.12s30.83.12,36.89,1,13.24-.65,17.83-.29,10.59.35,13.47,0,14.71-.38,18.71-.72,11.71-.75,14-1.05,2.41,1.71,2.35,3.53.49,17.12.01,19.83-1.53,12.41.2,15.59.44,10.06-.33,16.53-2,16.18-1.06,20.18,1.59,12.3,1.41,15.59-.47,9.88.12,12.41.18,8.88.29,11.83-.82,13.71-.76,16.41.84,17.06,1.19,19.77,2.75,6.24.75,6.35-18.94.71-22.77.53-19.94-1.29-25.71-1.24c-5.77.06-23.71,2.29-29.95,1.88-6.24-.41-42.18-.94-47.48-1s-22.42.53-27.24.18-8.59-.53-10.06-.65-1.65-7-.82-9.88c.82-2.88,1.59-14.71,1.24-21-.35-6.3-.24-30.36.24-40.06.47-9.71,1.76-27.42.88-32.77s-.88-17.3.41-22.59c1.29-5.29,1.41-15.88.41-20.89-1-5,0-10.47,0-10.47Z"/>
    <path class="o" d="m231.13,66.08c-.05,1.76.8,19.52.36,22.13s-1.4,11.98.18,15.04.4,9.71-.3,15.95-1.83,15.61-.97,19.47,1.46,11.86,1.29,15.04-.43,9.54.11,11.98.16,8.57.27,11.41-.75,13.23-.7,15.84.77,16.46,1.09,19.07,2.52,6.02.69,6.13-17.35.68-20.86.51-18.27-1.25-23.55-1.19-21.72,2.21-27.43,1.82c-5.71-.4-38.64-.91-43.49-.97s-20.53.51-24.95.17-8.32.39-9.22-.62c-1.36-1.55-1.51-6.76-.75-9.54s1.46-14.19,1.13-20.27,0-29.28.22-38.66c.2-9.18,1.62-26.45.81-31.62-.81-5.17-.17-16.67.38-21.8.56-5.21,1.1-14.99.38-20.15-.68-4.86-.02-9.96-.02-9.96"/>
    <path class="o" d="m120.8,66.64c1.68.02,5.15-1.19,4.82-7.81-.32-6.62-1.88-18.89,1.82-28.8s5.99-15.12,8.54-18.89,10.55-8.82,18.28-9.57c7.73-.75,21.26,2,28.04,12.51,6.79,10.51,10.86,19.1,11.37,25.14s-.75,17.1-.59,20.71,3.14,7.87,5.84,7.76"/>
    <path class="o" d="m178.39,67.98s5.41-.27,6-4.89,2.39-16.87,1.26-24.12-4.2-16.36-8.31-20.08-10.8-11.14-18.72-10.63-15.21,3.06-17.72,7.96-6.08,13.85-7.14,19.02c-1.06,5.18-.75,16.16-.51,20.43s1.84,10.99,6.31,11.01"/>
    <path class="o" d="m153.94,8.74c-1.61,1.42-4.98,5.08-7.8,9.42-6.82,10.49-7.36,15.04-7.87,21.08-.51,6.04.78,17.1.59,20.71-.14,2.63-1.38,4.14-2.2,5.5"/>
    <path class="o" d="m211.35,67.11c-1.68.02-5.35-1.65-5.03-8.27.32-6.62,1.88-18.89-1.82-28.8s-5.99-15.12-8.54-18.89-10.55-8.82-18.28-9.57c-2.75-.27-7.74.45-11.4,1.27"/>
    <path class="o" d="m177.59,8.74c5.41,1.18,11.61,3.85,13.47,7.48,2.51,4.9,6.08,13.85,7.14,19.02s.75,16.16.51,20.43c-.17,3.07-1.34,7.57-3.47,9.78"/>
    <path class="o" d="m153.72,66.85s-5.67.04-6.26-4.59-2.29-16.04-1.15-23.3c1.14-7.26,4.2-16.36,8.31-20.08,2.47-2.24,7.63-6.44,11.66-8.82"/>
    <path class="o" d="m236.77,65.72c2.21-.04,5.97.98,9.39.82,3.88-.18,7.33-.44,7.6.24.51,1.29.63,20.11.2,22.38s-.55,14.39-.35,15.85,2.2,15.22,1.53,21.45-1.06,37.73.59,45.1,2.29,42.59,3.7,46.52,1.49,4.08,0,4.47-19.77,1.18-19.77,1.18"/>
    <path class="o" d="m133.51,243.87c.92,7.84-6.81,12.22-14.43,13.16-7.53.93-16.45-2.82-14.14-13.16,1.71-7.7,6.41-14.69,14.29-14.29,7.63.38,13.34,6.25,14.29,14.29Z"/>
    <path class="o" d="m123.18,230.32c1.74-.94,3.06-.85,5.32-.74,7.63.38,14.24,5.85,14.12,12.76-.15,7.89-6.64,13.75-14.26,14.69-3.03.37-4.05.82-6.71-.45"/>
    <path class="o" d="m217.14,256.11c1.74.64,1.46.7,3.31.92,7.53.93,16.45-2.82,14.14-13.16-1.71-7.7-6.41-14.69-14.29-14.29-2.5.13-2.66.6-4.65,1.79"/>
    <path class="o" d="m194.61,243.87c-.92,7.84,6.81,12.22,14.43,13.16,7.53.93,16.45-2.82,14.14-13.16-1.71-7.7-6.41-14.69-14.29-14.29-7.63.38-13.34,6.25-14.29,14.29Z"/>
  </g>
  <g id="d" data-name="Layer 13">
    <path class="p" d="m79.18,65.75c1.06-1,8.77.82,12.88.41s11.77,1.29,18.12.71c6.35-.59,20.12.12,24.77-.12s30.83.12,36.89,1,13.24-.65,17.83-.29,10.59.35,13.47,0,14.71-.38,18.71-.72,11.71-.75,14-1.05,2.41,1.71,2.35,3.53.49,17.12.01,19.83-1.53,12.41.2,15.59.44,10.06-.33,16.53-2,16.18-1.06,20.18,1.59,12.3,1.41,15.59-.47,9.88.12,12.41.18,8.88.29,11.83-.82,13.71-.76,16.41.84,17.06,1.19,19.77,2.75,6.24.75,6.35-18.94.71-22.77.53-19.94-1.29-25.71-1.24c-5.77.06-23.71,2.29-29.95,1.88-6.24-.41-42.18-.94-47.48-1s-22.42.53-27.24.18-8.59-.53-10.06-.65-1.65-7-.82-9.88c.82-2.88,1.59-14.71,1.24-21-.35-6.3-.24-30.36.24-40.06.47-9.71,1.76-27.42.88-32.77s-.88-17.3.41-22.59c1.29-5.29,1.41-15.88.41-20.89-1-5,0-10.47,0-10.47Z"/>
    <path class="p" d="m231.13,66.08c-.05,1.76.8,19.52.36,22.13s-1.4,11.98.18,15.04.4,9.71-.3,15.95-1.83,15.61-.97,19.47,1.46,11.86,1.29,15.04-.43,9.54.11,11.98.16,8.57.27,11.41-.75,13.23-.7,15.84.77,16.46,1.09,19.07,2.52,6.02.69,6.13-17.35.68-20.86.51-18.27-1.25-23.55-1.19-21.72,2.21-27.43,1.82c-5.71-.4-38.64-.91-43.49-.97s-20.53.51-24.95.17-8.32.39-9.22-.62c-1.36-1.55-1.51-6.76-.75-9.54s1.46-14.19,1.13-20.27,0-29.28.22-38.66c.2-9.18,1.62-26.45.81-31.62-.81-5.17-.17-16.67.38-21.8.56-5.21,1.1-14.99.38-20.15-.68-4.86-.02-9.96-.02-9.96"/>
    <path class="p" d="m120.8,66.64c1.68.02,5.15-1.19,4.82-7.81-.32-6.62-1.88-18.89,1.82-28.8s5.99-15.12,8.54-18.89,10.55-8.82,18.28-9.57c7.73-.75,21.26,2,28.04,12.51,6.79,10.51,10.86,19.1,11.37,25.14s-.75,17.1-.59,20.71,3.14,7.87,5.84,7.76"/>
    <path class="p" d="m178.39,67.98s5.41-.27,6-4.89,2.39-16.87,1.26-24.12-4.2-16.36-8.31-20.08-10.8-11.14-18.72-10.63-15.21,3.06-17.72,7.96-6.08,13.85-7.14,19.02c-1.06,5.18-.75,16.16-.51,20.43s1.84,10.99,6.31,11.01"/>
    <path class="p" d="m153.94,8.74c-1.61,1.42-4.98,5.08-7.8,9.42-6.82,10.49-7.36,15.04-7.87,21.08-.51,6.04.78,17.1.59,20.71-.14,2.63-1.38,4.14-2.2,5.5"/>
    <path class="p" d="m211.35,67.11c-1.68.02-5.35-1.65-5.03-8.27.32-6.62,1.88-18.89-1.82-28.8s-5.99-15.12-8.54-18.89-10.55-8.82-18.28-9.57c-2.75-.27-7.74.45-11.4,1.27"/>
    <path class="p" d="m177.59,8.74c5.41,1.18,11.61,3.85,13.47,7.48,2.51,4.9,6.08,13.85,7.14,19.02s.75,16.16.51,20.43c-.17,3.07-1.34,7.57-3.47,9.78"/>
    <path class="p" d="m153.72,66.85s-5.67.04-6.26-4.59-2.29-16.04-1.15-23.3c1.14-7.26,4.2-16.36,8.31-20.08,2.47-2.24,7.63-6.44,11.66-8.82"/>
    <path class="p" d="m236.77,65.72c2.21-.04,5.97.98,9.39.82,3.88-.18,7.33-.44,7.6.24.51,1.29.63,20.11.2,22.38s-.55,14.39-.35,15.85,2.2,15.22,1.53,21.45-1.06,37.73.59,45.1,2.29,42.59,3.7,46.52,1.49,4.08,0,4.47-19.77,1.18-19.77,1.18"/>
    <path class="p" d="m133.51,243.87c.92,7.84-6.81,12.22-14.43,13.16-7.53.93-16.45-2.82-14.14-13.16,1.71-7.7,6.41-14.69,14.29-14.29,7.63.38,13.34,6.25,14.29,14.29Z"/>
    <path class="p" d="m123.18,230.32c1.74-.94,3.06-.85,5.32-.74,7.63.38,14.24,5.85,14.12,12.76-.15,7.89-6.64,13.75-14.26,14.69-3.03.37-4.05.82-6.71-.45"/>
    <path class="p" d="m217.14,256.11c1.74.64,1.46.7,3.31.92,7.53.93,16.45-2.82,14.14-13.16-1.71-7.7-6.41-14.69-14.29-14.29-2.5.13-2.66.6-4.65,1.79"/>
    <path class="p" d="m194.61,243.87c-.92,7.84,6.81,12.22,14.43,13.16,7.53.93,16.45-2.82,14.14-13.16-1.71-7.7-6.41-14.69-14.29-14.29-7.63.38-13.34,6.25-14.29,14.29Z"/>
  </g>
</svg>