<svg xmlns="http://www.w3.org/2000/svg" viewBox="0 0 153.95 293.967"><g id="Ebene_2" data-name="Ebene 2"><g id="Speaker_Stand"><g id="Ebene_29_Kopie" data-name="Ebene 29 Kopie"><polygon points="1.015 29.251 111.833 1.621 116.912 4.52 152.936 144.867 148.788 149.837 152.632 161.148 40.616 189.076 40.747 272.056 151.692 272.056 151.692 283.056 136.629 283.056 136.58 287.24 140.412 289.49 140.412 292.309 130.225 292.309 130.225 289.49 133.835 287.24 133.81 283.056 48.516 283.056 48.516 287.545 52.357 289.193 52.357 292.523 42.137 292.523 42.137 289.193 46.159 287.545 46.159 283.056 25.767 283.056 25.767 154.091 32.167 154.091 1.015 29.251" style="fill:#151515"/><path d="M129.879,293.467a1,1,0,0,1-1-1v-2.925a1,1,0,0,1,.417-.812l2.6-1.866a1,1,0,0,1,.583-.187h.409v-3.506h2v3.506h.374v-3.506h2v3.506h.41a1,1,0,0,1,.583.187l2.6,1.866a1,1,0,0,1,.417.812v2.925a1,1,0,0,1-1,1Zm9.385-2v-1.412l-1.919-1.378H132.8l-1.919,1.378v1.412Z" style="fill:#151515"/><path d="M136.758,283.671v3.506h.91a.5.5,0,0,1,.291.094l2.6,1.865a.5.5,0,0,1,.209.406v2.925a.5.5,0,0,1-.5.5H129.879a.5.5,0,0,1-.5-.5v-2.925a.5.5,0,0,1,.209-.406l2.6-1.865a.5.5,0,0,1,.291-.094h.909v-3.506h1v3.506h1.374v-3.506h1m-6.379,8.3h9.385V289.8l-2.257-1.622h-4.871l-2.257,1.622v2.168m7.379-9.3h-5.374v3.509a1.49,1.49,0,0,0-.784.279l-2.6,1.865a1.5,1.5,0,0,0-.625,1.218v2.925a1.5,1.5,0,0,0,1.5,1.5h10.385a1.5,1.5,0,0,0,1.5-1.5v-2.925a1.5,1.5,0,0,0-.624-1.217l-2.6-1.866a1.482,1.482,0,0,0-.785-.279v-3.509Zm-4.8,6.506h4.227l1.579,1.134v.656h-7.385v-.656l1.579-1.134Z" style="fill:#f0f0f0"/><path d="M42.116,293.467a1,1,0,0,1-1-1v-2.925a1,1,0,0,1,.416-.812l2.6-1.866a1,1,0,0,1,.583-.187h.409v-3.506h2v3.506H47.5v-3.506h2v3.506H49.9a1,1,0,0,1,.583.187l2.6,1.866a1,1,0,0,1,.417.812v2.925a1,1,0,0,1-1,1Zm9.385-2v-1.412l-1.919-1.378H45.034l-1.918,1.378v1.412Z" style="fill:#151515"/><path d="M49,283.671v3.506H49.9a.5.5,0,0,1,.292.094l2.6,1.865a.5.5,0,0,1,.209.406v2.925a.5.5,0,0,1-.5.5H42.116a.5.5,0,0,1-.5-.5v-2.925a.5.5,0,0,1,.208-.406l2.6-1.865a.5.5,0,0,1,.291-.094h.909v-3.506h1v3.506H48v-3.506h1m-6.379,8.3H52V289.8l-2.258-1.622h-4.87L42.616,289.8v2.168m7.379-9.3H44.621v3.509a1.487,1.487,0,0,0-.784.279l-2.6,1.865a1.5,1.5,0,0,0-.625,1.218v2.925a1.5,1.5,0,0,0,1.5,1.5H52.5a1.5,1.5,0,0,0,1.5-1.5v-2.925a1.5,1.5,0,0,0-.624-1.217l-2.6-1.866A1.475,1.475,0,0,0,50,286.18v-3.509Zm-4.8,6.506h4.226L51,290.311v.656H43.616v-.656l1.579-1.134Z" style="fill:#f0f0f0"/><path d="M40.247,284.556v-14H153.192v14Zm110.945-2v-10H42.247v10Z" style="fill:#151515"/><path d="M152.692,271.056v13H40.747v-13H152.692m-110.945,12H151.692v-11H41.747v11m111.945-13H39.747v15H153.692v-15Zm-110.945,3H150.692v9H42.747v-9Z" style="fill:#f5f5f5"/><polygon points="24.267 284.556 24.267 152.591 33.34 152.591 39.542 177.59 37.601 178.072 31.776 154.591 26.267 154.591 26.267 282.556 40.116 282.556 40.116 188.172 42.116 187.578 42.116 284.556 24.267 284.556" style="fill:#151515"/><path d="M32.949,153.091l5.987,24.134-.97.241-5.8-23.375h-6.4V283.056H40.616V188.545l1-.3v95.808H24.767V153.091h8.182m.782-1H23.767V285.056H42.616V186.908l-1.285.382-1,.3-.715.213v94.257H26.767V155.091h4.617l5.611,22.616.241.971.971-.241.97-.242.971-.241-.241-.97L33.919,152.85l-.188-.759Z" style="fill:#f5f5f5"/><path d="M24.267,179.851,150,148.5l3.242,13.008L24.267,193.668Zm2,11.257,124.547-31.053-2.276-9.127L26.267,181.414Z" style="fill:#151515"/><path d="M149.631,149.11l3,12.038-.485.121L24.767,193.028V180.242l.379-.095L149.631,149.11M25.767,191.748,151.42,160.419l-2.518-10.1-123.135,30.7v10.725M150.359,147.9l-.97.242L24.9,179.177l-.38.095-.757.189v14.847l1.242-.31,127.38-31.759.485-.121.97-.242-.242-.97-3-12.038-.242-.97ZM26.767,181.8l121.407-30.27,2.033,8.157L26.767,190.468V181.8Z" style="fill:#f5f5f5"/><path d="M38.454,178.343a1,1,0,0,1-.97-.758L.53,29.372a1,1,0,0,1,.728-1.212L112.076.53a1,1,0,0,1,1.213.729L150.243,149.47a1,1,0,0,1-.728,1.213L38.7,178.313A1.021,1.021,0,0,1,38.454,178.343Zm.729-2.212L148.06,148.984,111.59,2.712,2.713,29.859Z" style="fill:#151515"/><path d="M112.316,1a.5.5,0,0,1,.488.378l36.954,148.213a.505.505,0,0,1-.057.378.5.5,0,0,1-.308.228L38.575,177.828a.5.5,0,0,1-.606-.364L1.015,29.251a.5.5,0,0,1,.057-.378.5.5,0,0,1,.308-.228L112.2,1.015A.489.489,0,0,1,112.316,1m-73.5,175.736,109.847-27.389L111.954,2.106,2.107,29.494,38.819,176.737M112.316,0a1.5,1.5,0,0,0-.353.042L1.138,27.674A1.5,1.5,0,0,0,.044,29.49L37,177.706a1.5,1.5,0,0,0,1.455,1.137,1.519,1.519,0,0,0,.355-.043l110.826-27.632a1.5,1.5,0,0,0,1.094-1.816L113.774,1.137A1.5,1.5,0,0,0,112.316,0Zm-109,30.222,107.907-26.9,36.228,145.3-107.907,26.9L3.319,30.223Z" style="fill:#f5f5f5"/><path d="M149.231,150.716l-.128-.014a1,1,0,0,1-.8-.744L111.348,1.742A1,1,0,0,1,112.79.619L117.814,3.3a1,1,0,0,1,.5.64l35.107,140.805a1,1,0,0,1-.141.8l-3.177,4.729a1,1,0,0,1-.83.442Zm.468-3.427,1.673-2.49L116.48,4.856l-2.647-1.413Z" style="fill:#151515"/><path d="M112.318,1a.506.506,0,0,1,.236.059l5.025,2.683a.5.5,0,0,1,.25.32l35.107,140.8a.5.5,0,0,1-.071.4L149.688,150a.5.5,0,0,1-.9-.158L111.833,1.621A.5.5,0,0,1,112.318,1m37.168,147.5,2.425-3.61-35-140.373-3.836-2.049L149.486,148.5M112.318,0h0a1.5,1.5,0,0,0-1.455,1.863l36.955,148.216a1.5,1.5,0,0,0,1.2,1.115,1.562,1.562,0,0,0,.259.022,1.5,1.5,0,0,0,1.245-.664l3.177-4.727a1.5,1.5,0,0,0,.211-1.2L118.8,3.82a1.5,1.5,0,0,0-.751-.961L113.025.177A1.512,1.512,0,0,0,112.318,0Zm37.594,146.076L114.591,4.414l1.458.779L150.834,144.7l-.922,1.372Z" style="fill:#f5f5f5"/></g></g></g></svg>