<svg xmlns="http://www.w3.org/2000/svg" viewBox="0 0 329.32 278.76"><g id="Ebene_2" data-name="Ebene 2"><g id="Super8_Kopie_Kopie" data-name="Super8 Kopie Kopie"><path d="M7.25.49S.4,11.7.4,48.89s6.85,53.54,6.85,53.54H22.68L34.42,95l19.91.13,21.76-14.9,11.47-2.11.73,71.72,1.23,2.28,2.67.74,1.31,24.36L95,179.17l2.18.66,6.06.33,2.11,1.52,1.32,3.43-.06,88.15.85,1.78,2,1.25,53.74-.06,2-1.39,13.58-13,.13-2.84.26-74.5,3-2.71,28.81-.06,5.47-3.56,12.79-13.19,2.18-10L257,155l7.39-2.31,7.18-5,8.18-11,5.54-11.08.46-9.1-.26-63.62,14.63.2,7.26,4.08,16.22,1.39,2.3-2.31,2.9-14.7-1.05-16-3.83-9.69-15.16,1.19-8.7,5.27-14.84.07L278.84,13l-6.73-4.61-7.45-1.59-162.4.4-10.48,12L86.31,23l-10.16.13L54.07,8.4,33.76,8.14,22.22.56Z" style="fill:#151515"/><path d="M88,24.84h-1.5v-.5c0-2.29,9.66-13.33,13.82-18l.33-.37,1.49,1.34-.33.37C94,16.44,88.58,23.36,88.47,24.35v.5Z" style="fill:#151515"/><path d="M100.66,6.7l.74.66C94.8,14.75,88,23.11,88,24.34H87c0-2.23,11.4-15.09,13.69-17.64m-.08-1.41L99.91,6C93.55,13.14,86,22.09,86,24.34v1h3v-.93c.4-1.25,5.74-8.07,13.18-16.38l.66-.74-.74-.67L101.32,6l-.74-.66Z" style="fill:#f5f5f5"/><rect x="111.41" y="5.42" width="2" height="136.75" style="fill:#151515"/><path d="M112.91,5.92V141.67h-1V5.92h1m1-1h-3V142.67h3V4.92Z" style="fill:#f5f5f5"/><path d="M175.93,130a.45.45,0,0,1-.33-.19l-.6-.8a.5.5,0,0,1,.09-.7,9.8,9.8,0,0,0,3.93-7.88,9.89,9.89,0,0,0-17.78-6,.51.51,0,0,1-.4.2.54.54,0,0,1-.3-.1l-.8-.61a.53.53,0,0,1-.19-.33.46.46,0,0,1,.1-.37A11.89,11.89,0,1,1,176.3,129.9a.54.54,0,0,1-.3.1Z" style="fill:#151515"/><path d="M169.12,109A11.39,11.39,0,0,1,176,129.5l-.61-.8a10.31,10.31,0,0,0,4.13-8.28,10.41,10.41,0,0,0-10.4-10.4,10.31,10.31,0,0,0-8.28,4.13l-.8-.61a11.32,11.32,0,0,1,9.08-4.52m0-1a12.29,12.29,0,0,0-9.87,4.92,1,1,0,0,0,.19,1.4l.8.6a1,1,0,0,0,.6.21,1,1,0,0,0,.8-.4,9.39,9.39,0,1,1,13.15,13.16,1,1,0,0,0-.19,1.4l.6.79a1,1,0,0,0,.66.39H176a1,1,0,0,0,.6-.2A12.39,12.39,0,0,0,169.12,108Z" style="fill:#f5f5f5"/><path d="M167,134.43a11.89,11.89,0,0,1-7.18-21.38l2.9-2.2a.49.49,0,0,1,.66,0,.51.51,0,0,1,0,.66l-2.2,2.9a9.8,9.8,0,0,0-2,6,9.91,9.91,0,0,0,9.9,9.9,9.8,9.8,0,0,0,6-2l2.9-2.2a.5.5,0,0,1,.31-.1.5.5,0,0,1,.4.8l-2.21,2.91A11.8,11.8,0,0,1,167,134.43ZM157.23,121a11.17,11.17,0,0,0-.11,1.54,9.9,9.9,0,0,0,11.44,9.78A11.92,11.92,0,0,1,157.23,121Z" style="fill:#151515"/><path d="M163,111.24h0m0,0-2.2,2.91a10.25,10.25,0,0,0-2.12,6.27,10.42,10.42,0,0,0,10.4,10.4,10.25,10.25,0,0,0,6.27-2.12l2.91-2.2-2.2,2.9a11.39,11.39,0,1,1-16-16l2.9-2.21m-4.75,5.63a10.26,10.26,0,0,0-1.67,5.66,10.41,10.41,0,0,0,10.4,10.4,10.26,10.26,0,0,0,5.65-1.68,11.14,11.14,0,0,1-3.55.57,11.41,11.41,0,0,1-11.4-11.4,11.18,11.18,0,0,1,.57-3.55m4.75-6.63H163a1,1,0,0,0-.55.2l-2.89,2.2A12.39,12.39,0,1,0,176.89,130l2.2-2.9a1,1,0,0,0-.79-1.61,1,1,0,0,0-.61.2l-2.9,2.21a9.32,9.32,0,0,1-5.67,1.91,9.41,9.41,0,0,1-9.4-9.4,9.26,9.26,0,0,1,1.92-5.67l2.17-2.86a1,1,0,0,0-.76-1.65h0Zm0,2h0Z" style="fill:#f5f5f5"/><path d="M157.77,48.37l.39-.31a11.4,11.4,0,1,0-16-16l-.31.4-1.57-1.24.31-.39A13.4,13.4,0,1,1,159.4,49.64l-.4.3Z" style="fill:#151515"/><path d="M151.13,26.19a12.89,12.89,0,0,1,8,23.05l-.62-.78a11.9,11.9,0,1,0-16.7-16.71l-.79-.61a12.82,12.82,0,0,1,10.15-4.95m0-1a13.81,13.81,0,0,0-10.93,5.33l-.62.79.78.61.79.62.79.62.61-.79a10.9,10.9,0,1,1,15.3,15.3l-.78.62.61.78.62.79.62.79.78-.62a13.89,13.89,0,0,0-8.57-24.84Z" style="fill:#f5f5f5"/><path d="M149,54.61a13.4,13.4,0,0,1-8.26-23.95L144,28.09a.51.51,0,0,1,.31-.11.5.5,0,0,1,.35.15.49.49,0,0,1,0,.66l-2.57,3.27a12.19,12.19,0,0,0-2.43,7.3,11.46,11.46,0,0,0,11.4,11.14,11.25,11.25,0,0,0,7-2.44l3.27-2.56a.51.51,0,0,1,.31-.11.47.47,0,0,1,.35.15.49.49,0,0,1,0,.66l-2.57,3.27A13.33,13.33,0,0,1,149,54.61Zm-11.29-15a12.36,12.36,0,0,0-.11,1.62A11.42,11.42,0,0,0,149,52.61a11.07,11.07,0,0,0,1.63-.12A13.48,13.48,0,0,1,137.73,39.58Z" style="fill:#151515"/><path d="M144.34,28.48l-2.57,3.27a12.7,12.7,0,0,0-2.54,7.61,11.9,11.9,0,0,0,19.24,9.1l3.27-2.57-2.57,3.27a12.9,12.9,0,1,1-18.1-18.11l3.27-2.57m-5.29,6.22a11.9,11.9,0,0,0,16.27,16.6,12.9,12.9,0,0,1-17.09-11.93h0a2.53,2.53,0,0,1,0-.28h0a14,14,0,0,1,.82-4.39m5.29-7.22a1,1,0,0,0-.62.22l-3.27,2.57A13.9,13.9,0,1,0,160,49.78l2.57-3.27a1,1,0,0,0-1.41-1.41l-3.27,2.57A10.8,10.8,0,0,1,151.13,50a11,11,0,0,1-10.9-10.66,11.69,11.69,0,0,1,2.32-7l2.57-3.27a1,1,0,0,0-.08-1.32,1,1,0,0,0-.7-.3Zm-2.63,21.81c-.26-.24-.51-.49-.75-.76.24.26.49.52.75.76Z" style="fill:#f5f5f5"/><path d="M140.11,128.61l.4-.31a9.89,9.89,0,1,0-13.86-13.85l-.3.4-1.59-1.21.3-.4a11.89,11.89,0,1,1,16.65,16.66l-.39.3Z" style="fill:#151515"/><path d="M134.54,109a11.39,11.39,0,0,1,6.87,20.48l-.6-.8a10.39,10.39,0,1,0-14.56-14.55l-.79-.61a11.32,11.32,0,0,1,9.08-4.52m0-1a12.29,12.29,0,0,0-9.88,4.92l-.61.8.8.6.8.6.8.61.6-.8A9.39,9.39,0,1,1,140.2,127.9l-.79.61.6.8.61.79.6.8.8-.6A12.39,12.39,0,0,0,134.54,108Z" style="fill:#f5f5f5"/><path d="M132.43,134.43a11.89,11.89,0,0,1-7.18-21.38l2.9-2.2a.49.49,0,0,1,.3-.1.5.5,0,0,1,.36.14.51.51,0,0,1,0,.66l-2.2,2.9a9.8,9.8,0,0,0-2,6,9.89,9.89,0,0,0,15.88,7.88l2.9-2.2a.49.49,0,0,1,.65.05.49.49,0,0,1,.05.65l-2.2,2.9A11.8,11.8,0,0,1,132.43,134.43ZM122.65,121a10,10,0,0,0-.12,1.55A9.9,9.9,0,0,0,134,132.31,11.92,11.92,0,0,1,122.65,121Z" style="fill:#151515"/><path d="M128.45,111.25l-2.2,2.9a10.39,10.39,0,0,0,14.56,14.55l2.9-2.2-2.2,2.9a11.39,11.39,0,1,1-16-16l2.9-2.2m-4.75,5.62a10.41,10.41,0,0,0,8.73,16.06,10.24,10.24,0,0,0,5.65-1.68,11.08,11.08,0,0,1-3.54.57,11.39,11.39,0,0,1-10.84-14.95m4.75-6.62a1,1,0,0,0-.6.2l-2.9,2.2A12.39,12.39,0,1,0,142.3,130l2.21-2.91a1,1,0,0,0-.09-1.31,1,1,0,0,0-1.31-.09l-2.91,2.2a9.26,9.26,0,0,1-5.66,1.92,9.38,9.38,0,0,1-7.49-15.07l2.2-2.9a1,1,0,0,0-.09-1.31,1,1,0,0,0-.71-.29Z" style="fill:#f5f5f5"/><path d="M264.79,124.4v-2h1a.55.55,0,0,0,.55-.55V116.4a.55.55,0,0,0-.55-.55H248.36a.55.55,0,0,0-.55.55v.5h-2v-.5a2.55,2.55,0,0,1,2.55-2.55h17.48a2.55,2.55,0,0,1,2.55,2.55v5.45a2.55,2.55,0,0,1-2.55,2.55Z" style="fill:#151515"/><path d="M265.84,114.35a2.05,2.05,0,0,1,2.05,2.05v5.45a2.05,2.05,0,0,1-2.05,2.05h-.55v-1h.55a1,1,0,0,0,1.05-1.05V116.4a1,1,0,0,0-1.05-1.05H248.36a1,1,0,0,0-1.05,1.05h-1a2.05,2.05,0,0,1,2.05-2.05h17.48m0-1H248.36a3.06,3.06,0,0,0-3.05,3.05v1h3v-1a0,0,0,0,1,.05-.05h17.48a0,0,0,0,1,.05.05v5.45a0,0,0,0,1-.05.05h-1.55v3h1.55a3.06,3.06,0,0,0,3.05-3.05V116.4a3.06,3.06,0,0,0-3.05-3.05Z" style="fill:#f5f5f5"/><path d="M246.25,126.51A2.56,2.56,0,0,1,243.7,124V118.5a2.56,2.56,0,0,1,2.55-2.55h1.56v5.9a.55.55,0,0,0,.55.55h17.93V124a2.56,2.56,0,0,1-2.55,2.55Zm-.44-8.33a.52.52,0,0,0-.11.32V124a.55.55,0,0,0,.55.55h17.49a.52.52,0,0,0,.32-.11h-15.7a2.55,2.55,0,0,1-2.55-2.55Z" style="fill:#151515"/><path d="M247.31,116.45v5.4a1,1,0,0,0,1.05,1.05h17.43V124a2.05,2.05,0,0,1-2.05,2.05H246.25A2.05,2.05,0,0,1,244.2,124V118.5a2.05,2.05,0,0,1,2.05-2h1.06M246.25,125h17.49a1.06,1.06,0,0,0,1.05-1.05v-.06H248.36a2.05,2.05,0,0,1-2.05-2.05v-4.4h-.06a1,1,0,0,0-1.05,1V124a1,1,0,0,0,1.05,1.05m2.06-9.56h-2.06a3.06,3.06,0,0,0-3.05,3V124a3.06,3.06,0,0,0,3.05,3.05h17.49a3.06,3.06,0,0,0,3.05-3.05V121.9H248.36a0,0,0,0,1-.05-.05v-6.4Z" style="fill:#f5f5f5"/><path d="M75,78.77l.41-.28c.7-.6,3.32-8.86,3.32-26.8s-2.62-26.2-3.32-26.81l-.42-.28.29-.41L76.07,23l.41.28c3.43,2.3,4.2,21.81,4.2,28.46s-.77,26.14-4.2,28.46l-.41.28Z" style="fill:#151515"/><path d="M76.2,23.64c2.8,1.88,4,18.32,4,28.05S79,77.85,76.2,79.74l-.56-.83c1-.64,3.54-9.41,3.54-27.22s-2.59-26.58-3.53-27.22l.55-.83m-.27-1.39-.56.84-.55.83-.56.83.76.51c.84,1.11,3.16,9.51,3.16,26.43S75.86,77,75,78.12l-.76.52.56.83.56.83.56.82.82-.56c4.3-2.9,4.42-28.61,4.42-28.87s-.12-26-4.42-28.88l-.83-.56Z" style="fill:#f5f5f5"/><path d="M53.24,95.22v-2h.5c1.62-.31,4.78-15.25,4.78-41.53s-3.16-41.22-4.79-41.53h-.5v-2h.5c5.36,0,6.78,28.47,6.78,43.53S59.1,95.22,53.74,95.22Z" style="fill:#151515"/><path d="M53.74,8.66c4.08,0,6.28,22.17,6.28,43s-2.2,43-6.28,43v-1c2.2,0,5.28-16,5.28-42s-3.08-42-5.28-42v-1m0-1h-1v3h.83C54.94,12,58,25.26,58,51.69s-3.08,39.66-4.45,41h-.83v3h1c1.75,0,4-1.66,5.66-14.56A243.33,243.33,0,0,0,61,51.69,243.33,243.33,0,0,0,59.4,22.22C57.72,9.31,55.49,7.66,53.74,7.66Z" style="fill:#f5f5f5"/><path d="M32.58,93.67l.42-.28c1.47-1,5.34-15.33,5.34-41.7S34.47,11,33,10l-.42-.28L33.7,8.05l.42.28C38,11,40.34,32.43,40.34,51.69S38,92.41,34.12,95.05l-.42.28Z" style="fill:#151515"/><path d="M33.84,8.74c3.39,2.28,6,22.09,6,42.95s-2.62,40.65-6,42.94l-.56-.82c1.82-1.24,5.56-16.08,5.56-42.12S35.11,10.8,33.28,9.57l.56-.83m-.28-1.39L33,8.19,32.45,9l-.56.83.83.55c1.45,1.24,5.12,15.34,5.12,41.29S34.17,91.74,32.7,93l-.83.56.58.82.56.83.56.82.83-.56c4.19-2.83,6.44-24.67,6.44-43.77s-2.26-41-6.45-43.78l-.83-.56Z" style="fill:#f5f5f5"/><path d="M21.48,102.88v-2H22c2,0,5.83-17.36,5.83-49.19S24,2.5,22,2.5h-.5V.5H22c6.2,0,7.83,33.48,7.83,51.19S28.18,102.88,22,102.88Z" style="fill:#151515"/><path d="M22,1c4.76,0,7.33,26.12,7.33,50.69S26.74,102.38,22,102.38v-1c3,0,6.33-20.41,6.33-49.69S25,2,22,2V1m0-1H21V3h.92c.24.2,2,2,3.52,14.06a282.21,282.21,0,0,1,1.89,34.63,282.21,282.21,0,0,1-1.89,34.63c-1.57,12.06-3.28,13.86-3.52,14.06H21v3h1c1.83,0,4.48-1.76,6.45-17a291.67,291.67,0,0,0,1.88-34.69A291.55,291.55,0,0,0,28.43,17C26.46,1.76,23.81,0,22,0Z" style="fill:#f5f5f5"/><polygon points="92.14 158.43 104.34 146.18 230.96 146.18 230.96 148.18 105.17 148.18 92.68 160.67 92.14 158.43" style="fill:#151515"/><path d="M230.45,146.68v1H105l-12,12-.27-1.11,11.86-11.9h125.9m1-1H104.14l-.3.29L92,157.88l-.4.4.14.54.27,1.1.42,1.73,1.26-1.26,11.71-11.71H231.45v-3Z" style="fill:#f5f5f5"/><path d="M110.4,278.26a5.89,5.89,0,0,1-5.84-5.92V184.81a3,3,0,0,0-3-3h-5.1a5,5,0,0,1-4.93-5V155c-2.5-.41-5.09-2.37-5.09-4.81V78.82h2v71.39c0,1.36,1.92,2.66,3.59,2.86l11.84-12,1.42,1.41L93.56,154.44v22.33a3,3,0,0,0,2.93,3h5.1a5,5,0,0,1,5,5v87.53a3.88,3.88,0,0,0,3.84,3.92h52.38c1.59,0,9.05-7.08,15.06-13.64l.33-.37,1.48,1.35-.34.37c-3.07,3.35-13.33,14.29-16.53,14.29Z" style="fill:#151515"/><path d="M88,79.32v70.89c0,1.72,2.33,3.26,4.28,3.38l11.65-11.77.71.7L93.06,154.24v22.53a3.47,3.47,0,0,0,3.43,3.5h5.1a4.51,4.51,0,0,1,4.47,4.54v87.53a4.39,4.39,0,0,0,4.34,4.42h52.38c2,0,10.54-8.47,15.43-13.8l.73.68c-1.32,1.44-13,14.12-16.16,14.12H110.4a5.39,5.39,0,0,1-5.34-5.42V184.81a3.51,3.51,0,0,0-3.47-3.54h-5.1a4.47,4.47,0,0,1-4.43-4.5V154.58c-2.41-.21-5.09-2.08-5.09-4.37V79.32h1m1-1H86v71.89c0,2.59,2.49,4.64,5.09,5.23v21.33a5.47,5.47,0,0,0,5.43,5.5h5.1a2.51,2.51,0,0,1,2.47,2.54v87.53a6.38,6.38,0,0,0,6.34,6.42h52.38c3.32,0,12.92-10.11,16.9-14.45l.67-.74-.73-.67-.74-.68-.74-.67-.67.73c-6.43,7-13.3,13.32-14.71,13.48H110.4a3.38,3.38,0,0,1-3.34-3.42V184.81a5.51,5.51,0,0,0-5.47-5.54h-5.1a2.47,2.47,0,0,1-2.43-2.5V154.65l11.26-11.43.71-.71-.72-.7-.71-.7-.71-.71-.7.71-11.3,11.43c-1.47-.26-2.92-1.39-2.92-2.33V78.32Z" style="fill:#f5f5f5"/><path d="M7.83,102.88v-2H21.68L33,93.39a1,1,0,0,1,.55-.17H53.43L75.37,78.49a1,1,0,0,1,.55-.17H93.7c.87-.84,2.85-9.4,2.85-26.63s-2-25.79-2.85-26.63H75.92a1,1,0,0,1-.55-.17L53.43,10.16H33.56A1,1,0,0,1,33,10L21.68,2.5H7.83V.5H22a1,1,0,0,1,.56.17L33.86,8.16H53.74a1,1,0,0,1,.55.17L76.23,23.06H93.79c4.53,0,4.76,23.85,4.76,28.63s-.23,28.63-4.76,28.63H76.23L54.29,95.05a1,1,0,0,1-.55.17H33.86l-11.32,7.49a1,1,0,0,1-.56.17Z" style="fill:#151515"/><path d="M22,1a.54.54,0,0,1,.28.08L33.71,8.66h20a.53.53,0,0,1,.27.08L76.08,23.56H93.79c3.37,0,4.26,18.4,4.26,28.13s-.89,28.13-4.26,28.13H76.08L54,94.64a.53.53,0,0,1-.27.08h-20l-11.45,7.57a.47.47,0,0,1-.28.09H8.33v-1h13.5L33.28,93.8a.54.54,0,0,1,.28-.08h20L75.65,78.91a.46.46,0,0,1,.27-.09H93.79c1.14,0,3.26-9.32,3.26-27.13s-2.12-27.13-3.26-27.13H75.92a.46.46,0,0,1-.27-.09L53.58,9.66h-20a.47.47,0,0,1-.28-.09L21.83,2H8.33V1H22m0-1H7.33V3h14.2l11.2,7.41a1.53,1.53,0,0,0,.83.25H53.28L75.09,25.3a1.48,1.48,0,0,0,.83.26H93.43c.79,1.43,2.62,9.5,2.62,26.13s-1.83,24.69-2.62,26.13H75.92a1.48,1.48,0,0,0-.83.26L53.28,92.72H33.56a1.53,1.53,0,0,0-.83.25l-11.2,7.41H7.33v3H22a1.5,1.5,0,0,0,.83-.25L34,95.72H53.74a1.55,1.55,0,0,0,.83-.25L76.38,80.82H93.79c1.55,0,3.28-1.34,4.39-11.31.81-7.31.87-15.49.87-17.82S99,41.18,98.18,33.86c-1.11-10-2.84-11.3-4.39-11.3H76.38L54.57,7.91a1.55,1.55,0,0,0-.83-.25H34L22.81.25A1.5,1.5,0,0,0,22,0Z" style="fill:#f5f5f5"/><path d="M8.33,102.88C2.14,102.88.5,69.39.5,51.69S2.19.5,8.33.5,16.16,34,16.16,51.69,14.52,102.88,8.33,102.88ZM8.33,2.5C6.35,2.5,2.5,20,2.5,52.21c0,31.95,3.82,48.67,5.83,48.67s5.83-17.36,5.83-49.19S10.31,2.5,8.33,2.5Z" style="fill:#151515"/><path d="M8.33,1c4.76,0,7.33,26.12,7.33,50.69s-2.57,50.69-7.33,50.69S1,76.26,1,51.69H1C1,27,3.6,1,8.33,1m0,100.38c3,0,6.33-20.41,6.33-49.69S11.32,2,8.33,2,2,22.62,2,52.21c0,29,3.35,49.17,6.33,49.17M8.33,0C6.51,0,3.87,1.76,1.91,17A295.07,295.07,0,0,0,0,51.69,289.38,289.38,0,0,0,1.89,86.38c2,15.24,4.61,17,6.44,17s4.47-1.76,6.44-17a289.38,289.38,0,0,0,1.89-34.69A289.26,289.26,0,0,0,14.77,17C12.8,1.76,10.15,0,8.33,0Zm0,100.3c-.43-.46-2-2.84-3.42-13.82A281.7,281.7,0,0,1,3,52.2a288,288,0,0,1,1.89-35C6.33,6,7.9,3.55,8.33,3.08c.43.47,2,2.88,3.44,14a284.21,284.21,0,0,1,1.89,34.63,284.21,284.21,0,0,1-1.89,34.63c-1.45,11.12-3,13.52-3.44,14Z" style="fill:#f5f5f5"/><path d="M180.52,181.83v-2h28.56c4.1,0,8.39-4.72,14.88-11.86,1.2-1.32,2.48-2.73,3.83-4.19l.34-.37,1.47,1.36-.34.37c-1.34,1.44-2.6,2.83-3.79,4.13-6.88,7.58-11.41,12.56-16.39,12.56Z" style="fill:#151515"/><path d="M228.16,164.12l.73.68c-1.35,1.46-2.62,2.86-3.82,4.18-6.76,7.43-11.23,12.35-16,12.35H181v-1h28.06c4.32,0,8.67-4.79,15.25-12,1.2-1.33,2.47-2.73,3.83-4.19m0-1.41-.68.73c-1.36,1.46-2.64,2.87-3.84,4.19-6.4,7.05-10.63,11.7-14.51,11.7H180v3h29.06c5.21,0,9.79-5.05,16.73-12.68l0,0q1.78-2,3.79-4.13l.68-.73-.74-.68-.73-.68-.73-.68Z" style="fill:#f5f5f5"/><path d="M230,155.1v-2h25c11.86,0,19.65-11.25,25.71-22.26l.24-.44,1.75,1-.24.43c-6.34,11.52-14.55,23.3-27.46,23.3Z" style="fill:#151515"/><path d="M281.14,131.08l.87.48c-6.26,11.39-14.38,23-27,23H230.45v-1H255c12.12,0,20-11.38,26.15-22.52m-.4-1.36-.48.88c-6,10.88-13.67,22-25.27,22H229.45v3H255c13.17,0,21.49-11.91,27.9-23.56l.48-.87-.87-.48-.88-.49-.88-.48Z" style="fill:#f5f5f5"/><path d="M290.93,53.07v-2h.5c.59-.25,2.24-4.74,2.24-13.3S292,24.72,291.39,24.46h-.5l0-.5v-1.5h.5c4.19,0,4.24,14.68,4.24,15.31s-.05,15.3-4.24,15.3Z" style="fill:#151515"/><path d="M291.43,23c2.74,0,3.74,8.86,3.74,14.81s-1,14.8-3.74,14.8v-1c1.12,0,2.74-5.37,2.74-13.8S292.55,24,291.43,24V23m0-1h-1v3h.77c.64.83,2,5.22,2,12.81s-1.33,12-2,12.8h-.77v3h1c4.51,0,4.74-13.16,4.74-15.8S295.94,22,291.43,22Z" style="fill:#f5f5f5"/><path d="M299.94,53.07v-2h.5c.59-.25,2.24-4.74,2.24-13.3S301,24.72,300.4,24.46h-.5l0-.5v-1.5h.5c4.19,0,4.24,14.68,4.24,15.31s-.05,15.3-4.24,15.3Z" style="fill:#151515"/><path d="M300.44,23c2.74,0,3.74,8.86,3.74,14.81s-1,14.8-3.74,14.8v-1c1.12,0,2.74-5.37,2.74-13.8S301.56,24,300.44,24V23m0-1h-1v3h.77c.64.83,2,5.22,2,12.81s-1.33,12-2,12.8h-.77v3h1c4.51,0,4.74-13.16,4.74-15.8S305,22,300.44,22Z" style="fill:#f5f5f5"/><path d="M306.42,56.51v-2h.42c.71-.62,2.32-6.27,2.32-17.31s-1.55-16.77-2.24-17.4h-.41v-2h.5c3.85,0,4.15,14.85,4.15,19.4,0,3.22-.21,19.31-4.24,19.31Z" style="fill:#151515"/><path d="M307,18.3c2.95,0,3.65,12.24,3.65,18.9S309.88,56,306.92,56V55c.93,0,2.74-6,2.74-17.81S307.94,19.3,307,19.3v-1m0-1h-1v3h.65c.63,1.1,2,6.31,2,16.9S307.24,52.93,306.59,54h-.67v3h1c2,0,3.18-2.4,4-7.77a93.53,93.53,0,0,0,.77-12,95,95,0,0,0-.73-12.08c-.75-5.41-2-7.82-3.92-7.82Z" style="fill:#f5f5f5"/><path d="M306.81,56.92a1,1,0,0,1-.41-.13l-6.24-3.72H285a1,1,0,0,1,0-2h15.47a1,1,0,0,1,.51.14L307.24,55l16.18,1.7c.78-.75,3.4-7.86,3.4-19.46s-2.67-18.78-3.44-19.47l-16.08,1.7-6.25,4.83a1,1,0,0,1-.61.2H285a1,1,0,0,1,0-2H300.1l6.21-4.79a1,1,0,0,1,.51-.2l16.52-1.74c3.26,0,5.48,11.31,5.48,21.47s-2.29,21.47-5.37,21.47Z" style="fill:#151515"/><path d="M323.4,16.23c2.51,0,4.92,10.38,4.92,21s-2.41,21-4.87,21l-16.58-1.74a.48.48,0,0,1-.21-.07l-6.36-3.79H285a.5.5,0,0,1-.5-.5.5.5,0,0,1,.5-.5h15.47a.59.59,0,0,1,.26.07l6.38,3.8,16.42,1.73c.94,0,3.82-7.85,3.82-20s-2.88-20-3.87-20L307.11,19l-6.36,4.91a.5.5,0,0,1-.31.1H285a.5.5,0,0,1-.5-.5.5.5,0,0,1,.5-.5h15.3l6.34-4.89a.49.49,0,0,1,.26-.1l16.53-1.74h0m0-1h-.11L306.76,17a1.54,1.54,0,0,0-.76.31L299.93,22H285a1.5,1.5,0,0,0,0,3h15.47a1.49,1.49,0,0,0,.91-.31l6.15-4.74,15.66-1.65c.92,1.34,3.16,8.34,3.16,18.94s-2.21,17.54-3.12,18.93l-15.8-1.66-6.19-3.69a1.62,1.62,0,0,0-.77-.21H285a1.5,1.5,0,0,0,0,3H300l6.12,3.65a1.47,1.47,0,0,0,.61.2l16.58,1.74h.11c.65,0,2.64,0,4.33-7.29a68.06,68.06,0,0,0,1.54-14.68c0-8.86-1.88-22-5.92-22Z" style="fill:#f5f5f5"/><path d="M122.6,265.93a5.88,5.88,0,0,1-5.84-5.92V172.49a3,3,0,0,0-3-3.05h-5.1a5,5,0,0,1-4.93-5V141.67a1,1,0,0,1,2,0v22.78a3,3,0,0,0,2.93,3h5.1a5,5,0,0,1,5,5.05V260a3.88,3.88,0,0,0,3.84,3.92H175a3.88,3.88,0,0,0,3.83-3.92V186.79a19.22,19.22,0,0,1,19-19.35h22.87a8.82,8.82,0,0,0,8.73-8.89V141.67a1,1,0,0,1,2,0v16.88a10.82,10.82,0,0,1-10.73,10.89H197.85a17.21,17.21,0,0,0-17,17.35V260a5.88,5.88,0,0,1-5.83,5.92Z" style="fill:#151515"/><path d="M230.45,141.17a.5.5,0,0,1,.5.5v16.88a10.32,10.32,0,0,1-10.23,10.39H197.85a17.72,17.72,0,0,0-17.54,17.85V260a5.38,5.38,0,0,1-5.33,5.42H122.6a5.38,5.38,0,0,1-5.34-5.42V172.49a3.52,3.52,0,0,0-3.47-3.55h-5.1a4.46,4.46,0,0,1-4.43-4.49V141.67a.5.5,0,0,1,.5-.5.5.5,0,0,1,.5.5v22.78a3.47,3.47,0,0,0,3.43,3.49h5.1a4.52,4.52,0,0,1,4.47,4.55V260a4.39,4.39,0,0,0,4.34,4.42H175a4.38,4.38,0,0,0,4.33-4.42V186.79a18.72,18.72,0,0,1,18.54-18.85h22.87a9.32,9.32,0,0,0,9.23-9.39V141.67a.5.5,0,0,1,.5-.5m0-1a1.5,1.5,0,0,0-1.5,1.5v16.88a8.32,8.32,0,0,1-8.23,8.39H197.85a19.71,19.71,0,0,0-19.54,19.85V260a3.38,3.38,0,0,1-3.33,3.42H122.6a3.38,3.38,0,0,1-3.34-3.42V172.49a5.51,5.51,0,0,0-5.47-5.55h-5.1a2.47,2.47,0,0,1-2.43-2.49V141.67a1.5,1.5,0,0,0-3,0v22.78a5.46,5.46,0,0,0,5.43,5.49h5.1a2.51,2.51,0,0,1,2.47,2.55V260a6.38,6.38,0,0,0,6.34,6.42H175a6.38,6.38,0,0,0,6.33-6.42V186.79a16.72,16.72,0,0,1,16.54-16.85h22.87A11.32,11.32,0,0,0,232,158.55V141.67a1.5,1.5,0,0,0-1.5-1.5Z" style="fill:#f5f5f5"/><path d="M103.75,142.67a4.91,4.91,0,0,1-4.89-4.9V9.81a4.9,4.9,0,0,1,4.89-4.89H264a22,22,0,0,1,22,22v92.66a23.14,23.14,0,0,1-23.11,23.11Zm0-135.75a2.9,2.9,0,0,0-2.89,2.89v128a2.9,2.9,0,0,0,2.89,2.9H262.86A21.13,21.13,0,0,0,284,119.56V26.9a20,20,0,0,0-20-20Z" style="fill:#151515"/><path d="M264,5.42A21.5,21.5,0,0,1,285.47,26.9v92.66a22.64,22.64,0,0,1-22.61,22.61H103.75a4.4,4.4,0,0,1-4.39-4.4V9.81a4.4,4.4,0,0,1,4.39-4.39H264M103.75,141.17H262.86a21.64,21.64,0,0,0,21.61-21.61V26.9A20.5,20.5,0,0,0,264,6.42H103.75a3.39,3.39,0,0,0-3.39,3.39v128a3.4,3.4,0,0,0,3.39,3.4M264,4.42H103.75a5.4,5.4,0,0,0-5.39,5.39v128a5.4,5.4,0,0,0,5.39,5.4H262.86a23.63,23.63,0,0,0,23.61-23.61V26.9A22.51,22.51,0,0,0,264,4.42ZM103.75,140.17a2.4,2.4,0,0,1-2.39-2.4V9.81a2.39,2.39,0,0,1,2.39-2.39H264A19.5,19.5,0,0,1,283.47,26.9v92.66a20.64,20.64,0,0,1-20.61,20.61Z" style="fill:#f5f5f5"/></g></g></svg>