<svg xmlns="http://www.w3.org/2000/svg" width="40" height="40" viewBox="0 0 40 40">
  <path fill="rgb(21,21,21)" fill-rule="evenodd" d="M40 0H0v40h40V0zM28.39615885 10.7360433C30.84977214 10.80540974 32 12.26223754 31.8466797 15.03715006c-.07666016 2.08117675-1.68701172 4.92545572-4.83072917 8.74095662-3.2203776 3.8155009-5.98079427 5.68855794-8.20442708 5.68855794-1.38020834 0-2.5304362-1.17933146-3.527181-3.4686381-.22998046-.69372559-.53678385-1.80368042-.99674478-3.19114176-.4601237-1.38745118-.76676433-2.49741618-.99690756-3.19114177-.69010416-2.28929647-1.45686849-3.4686381-2.30029296-3.4686381-.15332032 0-.76676433.34687296-1.84016928 1.04059855L8 15.86961873c.38346354-.27748616.9967448-.76310221 1.76350911-1.38745117.76676433-.62435913 1.38020834-1.109965 1.76367188-1.38746134 1.53352865-1.17933146 2.68375651-1.87305705 3.52718099-1.94243368 1.91682943-.2081197 2.99039713.97122193 3.45035807 3.39926148.4601237 2.5667928.84358724 4.23174031.99690755 4.9254659.53678386 2.15055338 1.1500651 3.2605184 1.76350912 3.2605184.4601237 0 1.22688802-.76310222 2.22363281-2.1505534.99690755-1.4568278 1.53352865-2.49741617 1.61035156-3.26051839.15332032-1.24870809-.38346354-1.87306722-1.61035156-1.87306722-.5366211 0-1.1500651.06937663-1.76350911.3468628 1.1500651-3.46862793 3.37386067-5.13357544 6.67089843-5.06419882z"/>
</svg>
