<?xml version="1.0" encoding="UTF-8"?>
<svg id="r" data-name="Layer 18" xmlns="http://www.w3.org/2000/svg" viewBox="0 0 329.27 260.68">
  <path d="M237.29,45.38c0-13.13-16.6-29.51-73.36-29.51s-73.36,16.38-73.36,29.51v17.41l5.77,51.36-5.02,140.19h8.92l1.99-42.71v42.71h8.76l2.85-123.71h100.21l2.85,123.71h8.76v-42.71l1.99,42.71h8.92l-5.02-140.19,5.77-51.36v-17.41ZM222.75,114.14h-2.92s-22.53,2.95-55.9,2.95-55.9-2.95-55.9-2.95h-2.92l-7.77-51.29c8.42-3.56,29.05-5.68,66.59-5.68s58.17,2.12,66.59,5.68l-7.77,51.29Z" style="fill: #151515; stroke-width: 0px;"/>
  <g id="s" data-name="Layer 19 copy">
    <g>
      <path d="M227.15,255.34c-.27,0-.49-.21-.5-.48l-.02-.36v.33c0,.28-.22.5-.5.5h-9.74c-.27,0-.49-.22-.5-.49l-2.83-123.23h-98.25l-2.84,123.23c0,.27-.23.49-.5.49h-9.74c-.28,0-.5-.22-.5-.5v-.33l-.02.36c-.01.27-.23.48-.5.48h-9.91c-.14,0-.27-.05-.36-.15-.09-.1-.14-.23-.14-.36l5.04-140.71-5.76-51.21v-17.52c0-14.75,19.53-30.51,74.36-30.51s74.36,15.76,74.36,30.51v17.41l-5.77,51.47,5.04,140.56c0,.14-.05.27-.14.36-.09.1-.22.15-.36.15h-9.91ZM235.5,253.34l-4.98-139.16,5.77-51.5v-17.3c0-13.78-19.02-28.51-72.37-28.51s-72.36,14.73-72.36,28.51v17.41l5.76,51.25-4.98,139.3h6.93l1.95-41.75v-97.95c0-.28.22-.5.5-.5h2.22l-7.6-50.14v-15.55c-.01-20.25,22.73-30.51,67.58-30.51s67.59,10.26,67.59,30.51v15.4l-7.61,50.29h2.22c.13,0,.26.05.35.14s.15.22.15.35v97.98l1.95,41.71h6.92ZM224.63,253.34V115.14h-4.77c-.3.04-2.04.26-4.83.54v14.93l2.82,122.73h6.78ZM110,253.34l2.82-122.74v-14.91c-2.73-.28-4.42-.49-4.9-.55h-4.71v138.2h6.78ZM213.03,129.62v-13.74c-8.89.85-26.63,2.21-49.1,2.21s-40.21-1.36-49.1-2.21v13.74h98.21ZM108.02,113.14s.09,0,.11,0c2.41.3,24.49,2.94,55.79,2.94,33,0,55.55-2.92,55.77-2.95h2.19s7.52-49.66,7.52-49.66c-9.25-3.53-31.28-5.32-65.48-5.32s-56.24,1.79-65.49,5.32l7.53,49.65h2.06ZM163.93,56.18c33.72,0,55.78,1.76,65.6,5.23v-13.95c0-18.92-22.07-28.51-65.6-28.51s-65.59,9.59-65.59,28.51v13.95c9.82-3.47,31.88-5.22,65.59-5.22Z" style="fill: #151515; stroke-width: 0px;"/>
      <path d="M163.93,15.37c54.46,0,73.86,15.5,73.86,30.01v17.41l-5.77,51.41,5.04,140.64h-9.91l-.02-.48-.99-21.3v21.78h-9.74v-.49s-2.85-123.23-2.85-123.23h-99.23l-2.85,123.71h-9.74v-21.77l-1.02,21.77h-9.91l5.04-140.71-5.76-51.29v-17.46c0-14.51,19.4-30.01,73.86-30.01M91.83,253.84h7.92l1.97-42.22v-97.97h2.8l-7.68-50.71v-15.48c0-19.91,22.57-30.01,67.09-30.01s67.09,10.1,67.09,30.01v15.4l-7.69,50.79h2.8s0,97.98,0,97.98l1.97,42.21h7.92l-5-139.67,5.77-51.43v-17.35c0-14.02-19.14-29.01-72.86-29.01s-72.86,14.99-72.86,29.01v17.41l5.76,51.3-5,139.75M97.83,62.12c9.41-3.61,31.62-5.44,66.09-5.44s56.7,1.83,66.1,5.44v-14.67c0-19.25-22.24-29.01-66.1-29.01s-66.09,9.76-66.09,29.01v14.66M105.53,113.64h2.49c.29.03,22.95,2.95,55.9,2.95s55.61-2.92,55.84-2.95h2.55s7.65-50.47,7.65-50.47c-9.08-3.65-31.29-5.49-66.04-5.49s-56.96,1.85-66.04,5.5l7.65,50.47M102.72,253.84h7.77l2.84-123.23v-15.38c-3.42-.34-5.3-.59-5.37-.59h-5.24v139.2M217.36,253.84h7.77V114.64h-5.3s-1.91.25-5.3.59v15.38l2.83,123.23M163.93,117.6c-22.76,0-40.62-1.39-49.6-2.27v14.79h99.21v-14.79c-8.95.87-26.82,2.27-49.6,2.27M163.93,14.37c-55.2,0-74.86,16.02-74.86,31.01v17.46s0,.07,0,.11l5.75,51.21-5.03,140.64c0,.27.09.53.28.73.19.2.45.31.72.31h9.91c.19,0,.36-.05.51-.14.15.09.32.14.51.14h9.74c.54,0,.99-.43,1-.98l2.82-122.74h97.27l2.81,122.25v.49c.02.54.47.98,1.01.98h9.74c.19,0,.36-.05.51-.14.15.09.32.14.51.14h9.91c.27,0,.53-.11.72-.31.19-.2.29-.46.28-.73l-5.04-140.56,5.76-51.34s0-.07,0-.11v-17.41c0-14.99-19.67-31.01-74.86-31.01h0ZM98.83,60.71v-13.25c0-18.59,21.9-28.01,65.09-28.01s65.09,9.42,65.09,28.01v13.25c-10.18-3.34-32.06-5.03-65.09-5.03s-54.9,1.69-65.09,5.03h0ZM224.49,112.65l7.51-49.64s.01-.1.01-.15v-15.4c0-9.93-5.33-17.49-15.92-22.67,1.39.54,2.71,1.12,3.98,1.72,10.14,4.85,15.72,11.55,15.72,18.86v17.3s-5.76,51.38-5.76,51.38c0,.05,0,.1,0,.15l4.96,138.64h-5.93l-1.93-41.26v-97.93c0-.27-.1-.52-.29-.71-.19-.19-.44-.29-.71-.29h-1.64ZM92.06,62.73v-17.35c0-7.32,5.58-14.02,15.72-18.86,1.26-.6,2.59-1.18,3.98-1.72-10.59,5.17-15.92,12.74-15.92,22.67v15.48c0,.05,0,.1.02.15l7.51,49.56h-1.64c-.55,0-1,.45-1,1v97.97l-1.92,41.22h-5.93l4.96-138.71s0-.1,0-.15l-5.76-51.25h0ZM98.99,63.82c9.4-3.41,31.23-5.14,64.93-5.14s55.53,1.73,64.93,5.14l-7.4,48.82h-1.69s-.09,0-.13,0c-.22.03-22.92,2.94-55.71,2.94s-53.32-2.64-55.73-2.94h-.06s-.08-.01-.12-.01h-1.63l-7.4-48.82h0ZM103.72,115.64h4.17c.33.04,1.85.23,4.43.49v14.47l-2.81,122.23h-5.79V115.64h0ZM219.9,115.64h4.24v137.19h-5.79l-2.81-122.25v-14.45c2.47-.26,3.99-.44,4.37-.49h0ZM163.93,118.6c22.06,0,39.54-1.31,48.6-2.17v12.69h-97.21v-12.69c9.07.85,26.57,2.16,48.6,2.16h0Z" style="fill: #f5f5f5; stroke-width: 0px;"/>
    </g>
  </g>
</svg>