<?xml version="1.0" encoding="utf-8"?>
<!-- Generator: Adobe Illustrator 25.0.0, SVG Export Plug-In . SVG Version: 6.00 Build 0)  -->
<svg version="1.1" xmlns="http://www.w3.org/2000/svg" xmlns:xlink="http://www.w3.org/1999/xlink" x="0px" y="0px"
	 viewBox="0 0 595.3 841.9" style="enable-background:new 0 0 595.3 841.9;" xml:space="preserve">
<style type="text/css">
	.st0{fill:none;stroke:#F5F5F5;stroke-width:1.5;stroke-linecap:round;stroke-linejoin:round;stroke-miterlimit:10;}
	.st1{fill:#F5F5F5;}
	.st2{fill:#151515;}
	.st3{fill:#1B1B1B;}
	.st4{fill:none;stroke:#F5F5F5;stroke-width:1.5;stroke-linejoin:round;stroke-miterlimit:10;}
	.st5{fill:#151515;stroke:#F5F5F5;stroke-miterlimit:10;}
	.st6{fill:none;stroke:#F5F5F5;stroke-miterlimit:10;}
</style>
<g id="Lamp8">
	<line class="st0" x1="201.5" y1="324.5" x2="207.4" y2="330.4"/>
	<line class="st0" x1="205.7" y1="317.3" x2="213.7" y2="319.5"/>
	<line class="st0" x1="205.7" y1="309" x2="213.7" y2="306.8"/>
	<line class="st0" x1="201.5" y1="301.8" x2="207.4" y2="295.9"/>
	<line class="st0" x1="194.3" y1="297.6" x2="196.5" y2="289.6"/>
	<line class="st0" x1="186" y1="297.6" x2="183.8" y2="289.6"/>
	<line class="st0" x1="178.8" y1="301.8" x2="172.9" y2="295.9"/>
	<line class="st0" x1="174.6" y1="309" x2="166.6" y2="306.8"/>
	<line class="st0" x1="174.6" y1="317.3" x2="166.6" y2="319.5"/>
	<line class="st0" x1="178.8" y1="324.5" x2="172.9" y2="330.4"/>
	<line class="st0" x1="186" y1="328.7" x2="183.8" y2="336.7"/>
	<line class="st0" x1="194.3" y1="328.7" x2="196.5" y2="336.7"/>
	<polyline class="st1" points="190,313.1 189.4,528.1 234.5,573.3 360.7,573.3 450,484 450,357.8 405.3,313.1 190,313.1 	"/>
	<polyline class="st2" points="327.1,391.4 434.9,499.1 375.8,558.2 268.1,450.5 327.1,391.4 	"/>
</g>
<g id="Lamp_Kopie">
	<line class="st0" x1="297.6" y1="556.5" x2="297.6" y2="548.2"/>
	<line class="st0" x1="289.6" y1="558.7" x2="285.4" y2="551.5"/>
	<line class="st0" x1="283.7" y1="564.6" x2="276.5" y2="560.4"/>
	<line class="st0" x1="281.6" y1="572.6" x2="273.2" y2="572.6"/>
	<line class="st0" x1="283.7" y1="580.7" x2="276.5" y2="584.8"/>
	<line class="st0" x1="289.6" y1="586.5" x2="285.4" y2="593.7"/>
	<line class="st0" x1="297.6" y1="588.7" x2="297.6" y2="597"/>
	<line class="st0" x1="305.7" y1="586.5" x2="309.8" y2="593.7"/>
	<line class="st0" x1="311.6" y1="580.7" x2="318.8" y2="584.8"/>
	<line class="st0" x1="313.7" y1="572.6" x2="322" y2="572.6"/>
	<line class="st0" x1="311.6" y1="564.6" x2="318.8" y2="560.4"/>
	<line class="st0" x1="305.7" y1="558.7" x2="309.8" y2="551.5"/>
	<polyline class="st1" points="297.6,572.6 449.6,420.9 450,357.8 360.7,268.6 234.5,268.6 145.3,357.8 145.3,420.9 297.6,572.6 	
		"/>
	<rect x="268.1" y="268.6" class="st3" width="59" height="122.8"/>
</g>
<g id="Lamp_Kopie_2">
	<line class="st0" x1="129.6" y1="420.6" x2="121.2" y2="420.6"/>
	<line class="st0" x1="131.7" y1="428.7" x2="124.5" y2="432.8"/>
	<line class="st0" x1="137.6" y1="434.5" x2="133.4" y2="441.7"/>
	<line class="st0" x1="145.6" y1="436.7" x2="145.6" y2="445"/>
	<line class="st0" x1="153.7" y1="434.5" x2="157.8" y2="441.7"/>
	<line class="st0" x1="159.6" y1="428.7" x2="166.8" y2="432.8"/>
	<line class="st0" x1="161.7" y1="420.6" x2="170" y2="420.6"/>
	<line class="st0" x1="159.6" y1="412.6" x2="166.8" y2="408.4"/>
	<line class="st0" x1="153.7" y1="406.7" x2="157.8" y2="399.5"/>
	<line class="st0" x1="145.6" y1="404.5" x2="145.6" y2="396.2"/>
	<line class="st0" x1="137.6" y1="406.7" x2="133.4" y2="399.5"/>
	<line class="st0" x1="131.7" y1="412.6" x2="124.5" y2="408.4"/>
	<polyline class="st1" points="145.6,420.6 297.6,268.6 360.7,268.6 450,357.8 450,484 360.7,573.3 297.8,573.3 145.6,420.6 	"/>
	<rect x="327.1" y="391.4" class="st2" width="122.8" height="59"/>
</g>
<g id="Lamp_5">
	<line class="st0" x1="178.8" y1="539.5" x2="172.9" y2="545.3"/>
	<line class="st0" x1="186" y1="543.6" x2="183.8" y2="551.7"/>
	<line class="st0" x1="194.3" y1="543.6" x2="196.5" y2="551.7"/>
	<line class="st0" x1="201.5" y1="539.5" x2="207.4" y2="545.3"/>
	<line class="st0" x1="205.7" y1="532.3" x2="213.7" y2="534.4"/>
	<line class="st0" x1="205.7" y1="523.9" x2="213.7" y2="521.8"/>
	<line class="st0" x1="201.5" y1="516.7" x2="207.4" y2="510.8"/>
	<line class="st0" x1="194.3" y1="512.6" x2="196.5" y2="504.5"/>
	<line class="st0" x1="186" y1="512.6" x2="183.8" y2="504.5"/>
	<line class="st0" x1="178.8" y1="516.7" x2="172.9" y2="510.8"/>
	<line class="st0" x1="174.6" y1="523.9" x2="166.6" y2="521.8"/>
	<line class="st0" x1="174.6" y1="532.3" x2="166.6" y2="534.4"/>
	<polyline class="st1" points="190.2,528.9 190.2,313 234.5,268.6 360.7,268.6 450,357.8 450,484 405.1,528.9 190.2,528.9 	"/>
	<polyline class="st2" points="268.1,391.4 327.1,450.5 434.9,342.7 376.1,284 268.1,391.4 	"/>
</g>
<g id="Lamp_4">
	<line class="st0" x1="416.5" y1="539.5" x2="422.4" y2="545.3"/>
	<line class="st0" x1="420.7" y1="532.3" x2="428.7" y2="534.4"/>
	<line class="st0" x1="420.7" y1="523.9" x2="428.7" y2="521.8"/>
	<line class="st0" x1="416.5" y1="516.7" x2="422.4" y2="510.8"/>
	<line class="st0" x1="409.3" y1="512.6" x2="411.4" y2="504.5"/>
	<line class="st0" x1="401" y1="512.6" x2="398.8" y2="504.5"/>
	<line class="st0" x1="393.7" y1="516.7" x2="387.9" y2="510.8"/>
	<line class="st0" x1="389.6" y1="523.9" x2="381.6" y2="521.8"/>
	<line class="st0" x1="389.6" y1="532.3" x2="381.6" y2="534.4"/>
	<line class="st0" x1="393.7" y1="539.5" x2="387.9" y2="545.3"/>
	<line class="st0" x1="401" y1="543.6" x2="398.8" y2="551.7"/>
	<line class="st0" x1="409.3" y1="543.6" x2="411.4" y2="551.7"/>
	<polyline class="st1" points="405.1,528.1 405.1,313 360.7,268.6 234.5,268.6 145.3,357.8 145.3,484 190.2,528.9 405.1,528.1 	"/>
	<polyline class="st2" points="327.1,391.4 268.1,450.5 160.4,342.7 219.3,283.9 327.1,391.4 	"/>
</g>
<g id="Lamp3">
	<line class="st0" x1="433.6" y1="420.6" x2="425.2" y2="420.6"/>
	<line class="st0" x1="435.7" y1="428.7" x2="428.5" y2="432.8"/>
	<line class="st0" x1="441.6" y1="434.5" x2="437.4" y2="441.7"/>
	<line class="st0" x1="449.6" y1="436.7" x2="449.6" y2="445"/>
	<line class="st0" x1="457.7" y1="434.5" x2="461.8" y2="441.7"/>
	<line class="st0" x1="463.6" y1="428.7" x2="470.8" y2="432.8"/>
	<line class="st0" x1="465.7" y1="420.6" x2="474" y2="420.6"/>
	<line class="st0" x1="463.6" y1="412.6" x2="470.8" y2="408.4"/>
	<line class="st0" x1="457.7" y1="406.7" x2="461.8" y2="399.5"/>
	<line class="st0" x1="449.6" y1="404.5" x2="449.6" y2="396.2"/>
	<line class="st0" x1="441.6" y1="406.7" x2="437.4" y2="399.5"/>
	<line class="st0" x1="435.7" y1="412.6" x2="428.5" y2="408.4"/>
	<polyline class="st1" points="449.6,420.6 297.6,268.6 234.5,268.6 145.3,357.8 145.3,484 234.5,573.3 297.5,572.6 449.6,420.6 	
		"/>
	<polyline class="st2" points="268.1,391.4 145.3,391.4 145.3,450.5 268.1,450.5 268.1,391.4 	"/>
</g>
<g id="Lamp2">
	<line class="st0" x1="393.7" y1="324.5" x2="387.9" y2="330.4"/>
	<line class="st0" x1="401" y1="328.7" x2="398.8" y2="336.7"/>
	<line class="st0" x1="409.3" y1="328.7" x2="411.4" y2="336.7"/>
	<line class="st0" x1="416.5" y1="324.5" x2="422.4" y2="330.4"/>
	<line class="st0" x1="420.7" y1="317.3" x2="428.7" y2="319.5"/>
	<line class="st0" x1="420.7" y1="309" x2="428.7" y2="306.8"/>
	<line class="st0" x1="416.5" y1="301.8" x2="422.4" y2="295.9"/>
	<line class="st0" x1="409.3" y1="297.6" x2="411.4" y2="289.6"/>
	<line class="st0" x1="401" y1="297.6" x2="398.8" y2="289.6"/>
	<line class="st0" x1="393.7" y1="301.8" x2="387.9" y2="295.9"/>
	<line class="st0" x1="389.6" y1="309" x2="381.6" y2="306.8"/>
	<line class="st0" x1="389.6" y1="317.3" x2="381.6" y2="319.5"/>
	<polyline class="st1" points="405.1,313 405.1,528.9 360.7,573.3 234.5,573.3 145.3,484 145.3,357.8 190,313.1 405.1,313 	"/>
	<polyline class="st2" points="327.1,450.5 268.1,391.4 160.4,499.1 219.8,558.5 327.1,450.5 	"/>
</g>
<g id="Lamp1">
	<line class="st0" x1="297.6" y1="252.5" x2="297.6" y2="244.2"/>
	<line class="st0" x1="289.6" y1="254.7" x2="285.4" y2="247.5"/>
	<line class="st0" x1="283.7" y1="260.6" x2="276.5" y2="256.4"/>
	<line class="st0" x1="281.6" y1="268.6" x2="273.2" y2="268.6"/>
	<line class="st0" x1="283.7" y1="276.7" x2="276.5" y2="280.8"/>
	<line class="st0" x1="289.6" y1="282.5" x2="285.4" y2="289.7"/>
	<line class="st0" x1="297.6" y1="284.7" x2="297.6" y2="293"/>
	<line class="st0" x1="305.7" y1="282.5" x2="309.8" y2="289.7"/>
	<line class="st0" x1="311.6" y1="276.7" x2="318.8" y2="280.8"/>
	<line class="st0" x1="313.7" y1="268.6" x2="322" y2="268.6"/>
	<line class="st0" x1="311.6" y1="260.6" x2="318.8" y2="256.4"/>
	<line class="st0" x1="305.7" y1="254.7" x2="309.8" y2="247.5"/>
	<polygon class="st1" points="297.6,268.6 449.6,420.6 450,484 360.7,573.3 234.5,573.3 145.3,484.4 145.6,420.6 	"/>
	<polyline id="shadow" class="st3" points="327.1,450.5 327.1,573.3 268.1,573.3 268.1,450.5 	"/>
</g>
<g id="Scanner">
	<polygon class="st4" points="360.7,268.6 234.5,268.6 145.3,357.8 145.3,484 234.5,573.3 360.7,573.3 450,484 450,357.8 	"/>
	<rect x="268.1" y="391.4" class="st5" width="59" height="59"/>
	<circle class="st4" cx="190.2" cy="313.1" r="11.1"/>
	<circle class="st4" cx="405.1" cy="528.1" r="11.1"/>
	<circle class="st4" cx="405.1" cy="313.1" r="11.1"/>
	<circle class="st4" cx="190.2" cy="528.1" r="11.1"/>
	<circle class="st4" cx="145.6" cy="420.6" r="11.1"/>
	<circle class="st4" cx="449.6" cy="420.6" r="11.1"/>
	<circle class="st6" cx="297.6" cy="268.6" r="11.1"/>
	<circle class="st4" cx="297.6" cy="572.6" r="11.1"/>
</g>
</svg>
