<svg xmlns="http://www.w3.org/2000/svg" viewBox="0 0 1148.32 666.04"><g id="Ebene_2" data-name="Ebene 2"><g id="Ebene_1-2" data-name="Ebene 1"><path d="M415.18,109.05V99h5.67V42.35h-5.67V32.25h-63v5.67H68.73V32.25H.1v76.8H43.59v5.41H.1v14.17H5.77V242H.1v14.18H26.45v-5.67H139.84v5.67H284.41v-5.67H397.79v5.67h23.26V242h-5.67V128.63h5.67V114.46H403v-5.41ZM349.32,54a4,4,0,1,1,7.95,0V92.71a4,4,0,1,1-7.95,0Zm-14.57,0a4,4,0,1,1,7.95,0V92.71a4,4,0,1,1-7.95,0Zm-14.57,0a4,4,0,0,1,4-4h0a4,4,0,0,1,4,4V92.71a4,4,0,0,1-4,4h0a4,4,0,0,1-4-4Zm-14.57,0a4,4,0,0,1,8,0V92.71a4,4,0,0,1-8,0ZM291,54a4,4,0,0,1,8,0V92.71a4,4,0,0,1-8,0Zm-14.57,0a4,4,0,0,1,8,0V92.71a4,4,0,0,1-8,0ZM261.9,54a4,4,0,0,1,8,0V92.71a4,4,0,0,1-8,0Zm-14.56,0a4,4,0,1,1,7.95,0V92.71a4,4,0,1,1-7.95,0Zm-14.57,0a4,4,0,1,1,7.95,0V92.71a4,4,0,1,1-7.95,0ZM218.2,54a4,4,0,1,1,8,0V92.71a4,4,0,1,1-8,0Zm-14.57,0a4,4,0,1,1,8,0V92.71a4,4,0,1,1-8,0Zm-14.57,0a4,4,0,0,1,4-4h0a4,4,0,0,1,4,4V92.71a4,4,0,0,1-4,4h0a4,4,0,0,1-4-4Zm-43.71,0a4,4,0,1,1,8,0V92.71a4,4,0,1,1-8,0Zm-14.56,0a4,4,0,0,1,4-4h0a4,4,0,0,1,4,4V92.71a4,4,0,0,1-4,4h0a4,4,0,0,1-4-4Zm-2.16,55.05h10.1v5.41h-10.1ZM72.51,54a4,4,0,0,1,8,0V92.71a4,4,0,0,1-8,0ZM83,137.41H40.46v-5.67H83ZM95,92.71a4,4,0,0,1-8,0V54a4,4,0,0,1,8,0Zm14.56,0a4,4,0,1,1-7.95,0V54a4,4,0,1,1,7.95,0Zm6.62,0V54a4,4,0,1,1,8,0V92.71a4,4,0,1,1-8,0Zm43.83,93.4H117.53v-5.67h42.52Zm7.83-93.4a4,4,0,1,1-8,0V54a4,4,0,1,1,8,0Zm6.61,0V54a4,4,0,1,1,8,0V92.71a4,4,0,1,1-8,0Zm6.76,16.34H346.34v5.41H181.25ZM389.89,212.44a12,12,0,0,1-12,12H234.24a12,12,0,0,1-12-12V175.78a12,12,0,0,1,12-12H377.89a12,12,0,0,1,12,12Z" style="fill:#f5f4f4;stroke:#141414;stroke-miterlimit:10;stroke-width:0.200000002980232px"/><path d="M456.35,32.25h-26V46.42h-5.67V159.74h5.67V174h15.43v5.65H425.16v9.77h5.67v56.69h-5.67v10.1H461.4v-5.67h56.7v5.67h61.8v-5.67h56.7v5.67l191.55-.11V242H661.2V179.63H649.32V174H822V159.81h5.67V46.49H822V32.25H796.5v5.67H456.35ZM564.29,174v5.65H531.94V174Z" style="fill:#f5f4f4;stroke:#141414;stroke-miterlimit:10;stroke-width:0.200000002980232px"/><path d="M979.77,636.41a12,12,0,0,1-12-12V305.78a12,12,0,0,1,12-12h12.89V268H978.49v-5.67H865.18V268H850.93v25.76h5.67V633.94h-5.67v25.73h14.18v5.67H978.43v-5.67h14.23V636.41Zm-20-55.75a12,12,0,0,1-12,12H887.1a12,12,0,0,1-12-12V349.54a12,12,0,0,1,12-12h60.62a12,12,0,0,1,12,12Z" style="fill:#f5f4f4;stroke:#141414;stroke-miterlimit:10;stroke-width:0.200000002980232px"/><path d="M846,285.19V263.42H828.22V269H771.53v-5.55H606.44V269H563.92v-5.55H553.83V269h-85v-5.55H425V294.6h3a11.37,11.37,0,0,1,11.34,11.34V623.42A11.38,11.38,0,0,1,428,634.76h-3v31.18h43.77v-5.62h85v5.62h10.09v-5.62h42.52v5.62H771.53v-5.62h56.69v5.62H846V487.62h-5.68v-85H846V370.23h-5.68v-85ZM454.23,654H434.39a4.25,4.25,0,0,1,0-8.5h19.84a4.25,4.25,0,0,1,0,8.5Zm0-370.56H434.39a4.26,4.26,0,0,1,0-8.51h19.84a4.26,4.26,0,0,1,0,8.51Zm152,5.42a4.26,4.26,0,1,1-4.26,4.26A4.26,4.26,0,0,1,606.24,288.85Zm-.41,19.85a4.26,4.26,0,1,1-4.25,4.26A4.25,4.25,0,0,1,605.83,308.7Zm4.66,101.13a4.26,4.26,0,1,1-4.25-4.25A4.26,4.26,0,0,1,610.49,409.83ZM588.08,645.49a4.27,4.27,0,0,1-4.25,4.25H564a4.27,4.27,0,0,1-4.25-4.25h0a4.27,4.27,0,0,1,4.25-4.26h19.84a4.27,4.27,0,0,1,4.25,4.26Zm-4.25-360.06H564a4.26,4.26,0,0,1,0-8.51h19.84a4.26,4.26,0,0,1,0,8.51Zm26.08,366.15h-5.67a4.25,4.25,0,1,1,0-8.5h5.67a4.25,4.25,0,0,1,0,8.5Zm0-139.55h-5.67a4.25,4.25,0,1,1,0-8.5h5.67a4.25,4.25,0,1,1,0,8.5Zm16.49-78.21a4.25,4.25,0,1,1,4.25-4.25A4.25,4.25,0,0,1,626.4,433.82Zm16,199.39a4.25,4.25,0,1,1-8.5,0V528.33a4.25,4.25,0,0,1,8.5,0Zm4.93-299.39a10.66,10.66,0,1,1-21.31,0V299.51a10.66,10.66,0,1,1,21.31,0Zm12.15,299.39a4.25,4.25,0,1,1-8.5,0V528.33a4.25,4.25,0,0,1,8.5,0Zm17.08,0a4.26,4.26,0,1,1-8.51,0V528.33a4.26,4.26,0,0,1,8.51,0Zm17.07,0a4.25,4.25,0,1,1-8.5,0V528.33a4.25,4.25,0,0,1,8.5,0Zm17.08,0a4.26,4.26,0,1,1-8.51,0V528.33a4.26,4.26,0,0,1,8.51,0Zm17.07,0a4.25,4.25,0,1,1-8.5,0V528.33a4.25,4.25,0,1,1,8.5,0Zm17.08,0a4.25,4.25,0,1,1-8.5,0V528.33a4.25,4.25,0,0,1,8.5,0Zm28.71,18.37h-5.67a4.25,4.25,0,0,1,0-8.5h5.67a4.25,4.25,0,0,1,0,8.5Zm0-139.55h-5.67a4.25,4.25,0,0,1,0-8.5h5.67a4.25,4.25,0,0,1,0,8.5ZM786.8,308.66a4.25,4.25,0,1,1-4.26,4.25A4.25,4.25,0,0,1,786.8,308.66Zm.57,155.19a4.26,4.26,0,1,1,4.25-4.26A4.25,4.25,0,0,1,787.37,463.85Zm19.7,20.24a4.26,4.26,0,1,1,4.25-4.26A4.25,4.25,0,0,1,807.07,484.09Zm0-186.73a4.26,4.26,0,1,1,4.25-4.25A4.25,4.25,0,0,1,807.07,297.36Z" style="fill:#f5f4f4;stroke:#141414;stroke-miterlimit:10;stroke-width:0.200000002980232px"/><path d="M1148.22,284.58l0,13.91a5,5,0,0,1-5,5h-5a5,5,0,0,1-5-5v-2a5,5,0,0,0-5-5h-69.64a5,5,0,0,0-5,5v13.35a5,5,0,0,1-5,5h-5a5,5,0,0,0-5,5v330a4.87,4.87,0,0,0,4.88,4.87h84.94a4.87,4.87,0,0,0,4.88-4.87v-1A4.88,4.88,0,0,1,1138,644h5.28a4.87,4.87,0,0,1,4.87,4.88v10.87a5.6,5.6,0,0,1-5.6,5.61H1003.7a5.61,5.61,0,0,1-5.6-5.61V645.16a4.88,4.88,0,0,1,4.88-4.88h7.45a4.89,4.89,0,0,1,4.88,4.88v4.7a4.87,4.87,0,0,0,4.88,4.87h3.23a4.88,4.88,0,0,0,4.88-4.87V405.55a5,5,0,0,0-5-5h-20.45a5,5,0,0,1-5-5v-111a4,4,0,0,1,4-4H1144.2A4,4,0,0,1,1148.22,284.58Zm-6.21-.29a4.25,4.25,0,1,0,3.53,3.53A4.26,4.26,0,0,0,1142,284.29ZM1140.67,663a4.25,4.25,0,1,0-3.53-3.53A4.26,4.26,0,0,0,1140.67,663Zm-131.78-12.16a4.25,4.25,0,1,0,3.53,3.53A4.26,4.26,0,0,0,1008.89,650.82Zm11.62-264.91h4.6a5,5,0,0,0,5-5V363.62a5,5,0,0,0-5-5h-4.6a5,5,0,0,0-5,5V380.9A5,5,0,0,0,1020.51,385.91Zm0-41.93h4.6a5,5,0,0,0,5-5V319.84a5,5,0,0,0-5-5h-4.6a5,5,0,0,0-5,5V339A5,5,0,0,0,1020.51,344Zm-13-49.31a4.25,4.25,0,1,0-3.53-3.53A4.26,4.26,0,0,0,1007.55,294.67Z" style="fill:#f5f4f4;stroke:#141414;stroke-miterlimit:10;stroke-width:0.200000002980232px"/><path d="M11.72.1A10.32,10.32,0,1,0,22,10.42,10.32,10.32,0,0,0,11.72.1Zm0,14.57A4.25,4.25,0,1,1,16,10.42,4.25,4.25,0,0,1,11.72,14.67Z" style="fill:#f5f4f4;stroke:#141414;stroke-miterlimit:10;stroke-width:0.200000002980232px"/><path d="M95.44.1a10.32,10.32,0,1,0,10.32,10.32A10.32,10.32,0,0,0,95.44.1Zm0,14.57a4.25,4.25,0,1,1,4.25-4.25A4.25,4.25,0,0,1,95.44,14.67Z" style="fill:#f5f4f4;stroke:#141414;stroke-miterlimit:10;stroke-width:0.200000002980232px"/><path d="M182.85.1a10.32,10.32,0,1,0,10.32,10.32A10.32,10.32,0,0,0,182.85.1Zm0,14.57a4.25,4.25,0,1,1,4.26-4.25A4.25,4.25,0,0,1,182.85,14.67Z" style="fill:#f5f4f4;stroke:#141414;stroke-miterlimit:10;stroke-width:0.200000002980232px"/><path d="M270.27.1a10.32,10.32,0,1,0,10.32,10.32A10.32,10.32,0,0,0,270.27.1Zm0,14.57a4.25,4.25,0,1,1,4.25-4.25A4.25,4.25,0,0,1,270.27,14.67Z" style="fill:#f5f4f4;stroke:#141414;stroke-miterlimit:10;stroke-width:0.200000002980232px"/><path d="M40.21.1A10.32,10.32,0,1,0,50.53,10.42,10.32,10.32,0,0,0,40.21.1Zm0,14.57a4.25,4.25,0,1,1,4.25-4.25A4.25,4.25,0,0,1,40.21,14.67Z" style="fill:#f5f4f4;stroke:#141414;stroke-miterlimit:10;stroke-width:0.200000002980232px"/><path d="M123.93.1a10.32,10.32,0,1,0,10.32,10.32A10.32,10.32,0,0,0,123.93.1Zm0,14.57a4.25,4.25,0,1,1,4.25-4.25A4.25,4.25,0,0,1,123.93,14.67Z" style="fill:#f5f4f4;stroke:#141414;stroke-miterlimit:10;stroke-width:0.200000002980232px"/><path d="M211.34.1a10.32,10.32,0,1,0,10.32,10.32A10.32,10.32,0,0,0,211.34.1Zm0,14.57a4.25,4.25,0,1,1,4.25-4.25A4.25,4.25,0,0,1,211.34,14.67Z" style="fill:#f5f4f4;stroke:#141414;stroke-miterlimit:10;stroke-width:0.200000002980232px"/><path d="M298.75.1a10.32,10.32,0,1,0,10.32,10.32A10.32,10.32,0,0,0,298.75.1Zm0,14.57A4.25,4.25,0,1,1,303,10.42,4.25,4.25,0,0,1,298.75,14.67Z" style="fill:#f5f4f4;stroke:#141414;stroke-miterlimit:10;stroke-width:0.200000002980232px"/><path d="M69.19.1A10.32,10.32,0,1,0,79.51,10.42,10.32,10.32,0,0,0,69.19.1Zm0,14.57a4.25,4.25,0,1,1,4.25-4.25A4.25,4.25,0,0,1,69.19,14.67Z" style="fill:#f5f4f4;stroke:#141414;stroke-miterlimit:10;stroke-width:0.200000002980232px"/><path d="M152.9.1a10.32,10.32,0,1,0,10.32,10.32A10.32,10.32,0,0,0,152.9.1Zm0,14.57a4.25,4.25,0,1,1,4.26-4.25A4.25,4.25,0,0,1,152.9,14.67Z" style="fill:#f5f4f4;stroke:#141414;stroke-miterlimit:10;stroke-width:0.200000002980232px"/><path d="M240.32.1a10.32,10.32,0,1,0,10.32,10.32A10.32,10.32,0,0,0,240.32.1Zm0,14.57a4.25,4.25,0,1,1,4.25-4.25A4.25,4.25,0,0,1,240.32,14.67Z" style="fill:#f5f4f4;stroke:#141414;stroke-miterlimit:10;stroke-width:0.200000002980232px"/><path d="M327.73.1a10.32,10.32,0,1,0,10.32,10.32A10.32,10.32,0,0,0,327.73.1Zm0,14.57A4.25,4.25,0,1,1,332,10.42,4.25,4.25,0,0,1,327.73,14.67Z" style="fill:#f5f4f4;stroke:#141414;stroke-miterlimit:10;stroke-width:0.200000002980232px"/><path d="M415.31,292.86V267.54H397.89v-5.09H284.5v5.09H139.93v-5.09H26.55l0,5.09H5.44v25.32H.17V633.08H5.44V660H26.55v4.93H139.93V660H284.5v4.93H397.89V660h17.42v-26.9H421V292.86ZM24.7,644.45a4.83,4.83,0,1,1,4.83-4.83A4.83,4.83,0,0,1,24.7,644.45ZM24.7,291a4.83,4.83,0,1,1,4.83-4.83A4.83,4.83,0,0,1,24.7,291Zm156.63,25.53a4.25,4.25,0,1,1,4.25-4.25A4.25,4.25,0,0,1,181.33,316.57ZM201.9,433.19a4.26,4.26,0,1,1,4.25-4.25A4.25,4.25,0,0,1,201.9,433.19Zm8.68,35.05a4.57,4.57,0,1,1,4.56-4.56A4.57,4.57,0,0,1,210.58,468.24Zm23.7-38.64a4.16,4.16,0,0,1-8.31,0V312.1a4.16,4.16,0,0,1,8.31,0Zm15.82,0a4.15,4.15,0,0,1-8.3,0V312.1a4.15,4.15,0,1,1,8.3,0Zm15.83,0a4.17,4.17,0,0,1-4.16,4.15h0a4.17,4.17,0,0,1-4.15-4.15V312.1a4.17,4.17,0,0,1,4.15-4.15h0a4.17,4.17,0,0,1,4.16,4.15Zm15.82,0a4.16,4.16,0,0,1-8.31,0V312.1a4.16,4.16,0,0,1,8.31,0Zm15.83,0a4.16,4.16,0,0,1-8.31,0V312.1a4.16,4.16,0,0,1,8.31,0Zm15.82,0a4.16,4.16,0,0,1-8.31,0V312.1a4.16,4.16,0,0,1,8.31,0Zm15.82,0a4.15,4.15,0,1,1-8.3,0V312.1a4.15,4.15,0,1,1,8.3,0ZM362.3,308a4.26,4.26,0,1,1-4.25,4.26A4.25,4.25,0,0,1,362.3,308Zm.57,155.19a4.25,4.25,0,1,1,4.25-4.25A4.25,4.25,0,0,1,362.87,463.21ZM397,644.45a4.83,4.83,0,1,1,4.83-4.83A4.82,4.82,0,0,1,397,644.45ZM397,291a4.83,4.83,0,1,1,4.83-4.83A4.82,4.82,0,0,1,397,291Z" style="fill:#f5f4f4;stroke:#141414;stroke-miterlimit:10;stroke-width:0.200000002980232px"/></g></g></svg>